<?xml version="1.0" standalone="no"?>
<!DOCTYPE svg PUBLIC "-//W3C//DTD SVG 20010904//EN"
 "http://www.w3.org/TR/2001/REC-SVG-20010904/DTD/svg10.dtd">
<svg version="1.0" xmlns="http://www.w3.org/2000/svg"
 width="640.000000pt" height="360.000000pt" viewBox="0 0 640.000000 360.000000"
 preserveAspectRatio="xMidYMid meet">

<g transform="translate(0.000000,360.000000) scale(0.100000,-0.100000)"
fill="#000000" stroke="none">
<path d="M0 2040 l0 -1560 2665 0 c1466 0 2665 -2 2665 -4 0 -2 -28 -73 -63
-157 l-64 -154 -2601 -3 -2602 -2 0 -80 0 -80 3200 0 3200 0 0 1800 0 1800
-3200 0 -3200 0 0 -1560z m5540 1305 c16 -9 36 -29 45 -45 43 -84 -13 -180
-105 -180 -92 0 -148 96 -105 180 29 55 105 76 165 45z m180 -99 c0 -52 1 -55
28 -59 19 -3 14 -4 -15 -6 l-43 -1 0 60 c0 47 3 60 15 60 11 0 15 -13 15 -54z
m115 -6 c0 -58 -1 -60 -25 -59 -14 0 -19 3 -12 6 7 3 12 24 12 53 0 29 -5 50
-12 53 -7 3 -2 6 12 6 24 1 25 -1 25 -59z m66 13 l15 -48 13 48 c8 26 19 47
27 47 10 0 8 -14 -8 -60 -11 -33 -26 -60 -33 -60 -8 0 -20 23 -29 54 -18 62
-19 66 -8 66 5 0 15 -21 23 -47z m145 38 c-17 -3 -29 -9 -28 -13 1 -5 2 -12 2
-18 0 -5 12 -10 26 -10 14 0 23 -4 19 -10 -3 -5 -17 -10 -30 -10 -33 0 -22
-37 14 -43 17 -3 11 -5 -16 -6 l-43 -1 0 60 0 60 43 -1 c37 -1 39 -2 13 -8z
m-2926 -1251 l0 -1140 -1400 0 -1400 0 0 1140 0 1140 1400 0 1400 0 0 -1140z
m1134 727 c20 -20 53 -39 82 -47 57 -16 236 -17 304 -1 36 8 48 7 61 -5 28
-25 70 -131 78 -197 l7 -62 17 38 c9 22 22 57 29 78 24 81 54 10 37 -86 -11
-62 -30 -107 -59 -140 -10 -11 -20 -45 -23 -75 -4 -34 -22 -85 -47 -137 -22
-44 -40 -86 -40 -91 0 -6 13 -23 30 -38 16 -16 39 -52 50 -80 l21 -51 -117
-281 c-65 -155 -120 -279 -122 -277 -7 7 -51 227 -52 257 0 15 8 33 18 40 50
37 49 45 -9 104 l-53 54 -58 -57 -58 -57 36 -38 37 -37 -22 -118 c-13 -65 -26
-126 -30 -137 -5 -14 -39 58 -125 263 l-118 281 19 48 c9 26 33 64 52 85 l33
37 -42 83 c-31 62 -43 99 -47 147 -4 39 -11 68 -20 73 -52 31 -93 252 -48 258
6 1 22 -28 36 -65 30 -78 39 -89 39 -50 0 16 9 46 20 67 15 28 20 56 20 116 0
68 13 131 27 131 2 0 19 -15 37 -33z m1366 -2387 c0 -40 4 -70 10 -70 6 0 10
-7 10 -16 0 -12 -10 -14 -47 -12 -26 2 -48 9 -51 16 -2 6 3 12 12 12 12 0 16
11 16 45 0 35 -3 43 -15 39 -9 -4 -15 -1 -15 7 0 21 32 49 57 49 22 0 23 -3
23 -70z m160 48 c46 -50 11 -148 -53 -148 -18 0 -38 4 -46 9 -22 14 3 39 33
34 13 -3 26 -1 30 5 3 5 -6 10 -19 10 -34 0 -55 19 -55 53 0 57 69 81 110 37z
m235 10 c2 -7 6 -46 9 -85 l5 -73 -41 0 c-38 0 -40 1 -34 25 6 23 4 25 -29 25
-20 0 -35 5 -35 11 0 7 17 34 37 60 37 49 78 66 88 37z m155 -8 c0 -15 -7 -20
-29 -20 -17 0 -33 -5 -37 -12 -5 -8 -2 -9 11 -4 28 10 65 -19 65 -54 0 -39
-24 -60 -69 -60 -42 0 -72 22 -49 37 7 4 27 8 43 8 20 0 30 5 30 15 0 10 -10
15 -32 15 -42 1 -45 5 -37 54 l7 41 48 0 c42 0 49 -3 49 -20z m-297 -42 c7
-21 -4 -38 -23 -38 -23 0 -34 16 -26 35 7 18 43 20 49 3z m0 -70 c7 -21 -4
-38 -23 -38 -23 0 -34 16 -26 35 7 18 43 20 49 3z m-5680 -255 c6 2 14 14 18
28 l7 24 1 -25 c1 -15 -4 -31 -10 -37 -19 -19 -39 -3 -38 31 2 31 2 31 6 3 3
-16 10 -26 16 -24z m68 15 c-5 -30 -6 -31 -9 -8 -2 14 -9 28 -16 32 -7 5 -3 8
10 8 18 0 20 -5 15 -32z m63 5 c-10 -40 -14 -41 -14 -5 0 18 5 32 10 32 6 0 8
-11 4 -27z m36 -4 c0 -27 -2 -30 -15 -19 -17 14 -21 35 -5 25 6 -3 10 1 10 9
0 9 2 16 5 16 3 0 5 -14 5 -31z m40 1 c0 -16 -4 -30 -10 -30 -5 0 -10 14 -10
30 0 17 5 30 10 30 6 0 10 -13 10 -30z m27 -17 c-3 -10 -5 -2 -5 17 0 19 2 27
5 18 2 -10 2 -26 0 -35z m43 17 c0 -16 -4 -30 -9 -30 -7 0 -8 19 -2 53 3 19
11 4 11 -23z m27 -17 c-3 -10 -5 -2 -5 17 0 19 2 27 5 18 2 -10 2 -26 0 -35z
m51 -6 c12 -3 10 -5 -5 -6 -20 -1 -23 4 -22 32 2 29 2 29 6 5 2 -15 12 -29 21
-31z m98 21 c3 -28 -10 -38 -19 -15 -4 9 -8 8 -16 -3 -8 -12 -11 -8 -11 18 0
28 3 33 21 30 15 -2 23 -11 25 -30z m40 25 c-15 -4 -16 -7 -5 -14 10 -6 10 -9
2 -9 -19 0 -16 -18 5 -23 13 -4 11 -5 -5 -6 -19 -1 -23 4 -23 29 0 25 4 30 23
29 19 -1 19 -2 3 -6z m56 -4 c-25 -9 -26 -29 -2 -37 7 -3 10 0 6 7 -4 6 -2 11
3 11 16 0 13 -27 -3 -33 -17 -7 -36 11 -36 33 0 22 9 30 34 29 20 0 20 -1 -2
-10z m58 -19 c0 -16 -4 -30 -10 -30 -5 0 -10 14 -10 30 0 17 5 30 10 30 6 0
10 -13 10 -30z m65 0 c0 -18 -6 -26 -21 -28 -23 -3 -37 18 -27 44 10 25 48 13
48 -16z m41 18 c4 -6 2 -14 -4 -16 -6 -2 -8 -10 -5 -18 3 -8 0 -14 -6 -14 -6
0 -11 14 -11 30 0 31 13 40 26 18z m34 -19 c0 -31 -19 -37 -28 -9 -3 7 0 10 7
6 7 -5 11 1 11 13 0 12 2 21 5 21 3 0 5 -14 5 -31z m40 23 c-8 -4 -15 -14 -15
-22 0 -8 7 -18 15 -22 11 -5 9 -7 -7 -7 -19 -1 -23 4 -23 29 0 25 4 30 23 29
16 0 18 -2 7 -7z m95 -22 c0 -18 -6 -26 -22 -28 -20 -3 -23 1 -23 28 0 27 3
31 23 28 16 -2 22 -10 22 -28z m53 23 c-10 -2 -18 -13 -18 -23 0 -10 8 -21 18
-23 13 -4 11 -5 -5 -6 -19 -1 -23 4 -23 29 0 25 4 30 23 29 16 -1 18 -2 5 -6z
m48 -2 c-18 -7 -18 -8 -3 -14 25 -10 21 -37 -5 -36 -22 0 -22 1 -3 9 18 7 19
8 3 15 -26 10 -22 35 5 34 20 0 20 -1 3 -8z m60 2 c-15 -4 -16 -7 -5 -14 10
-6 10 -9 2 -9 -19 0 -16 -18 5 -23 13 -4 11 -5 -5 -6 -19 -1 -23 4 -23 29 0
25 4 30 23 29 19 -1 19 -2 3 -6z m69 -28 l2 -30 -10 28 c-6 15 -15 27 -20 27
-4 0 -5 -4 -2 -10 3 -5 1 -18 -4 -27 -9 -15 -10 -12 -11 15 0 29 3 33 21 30
16 -2 22 -11 24 -33z m42 -12 c6 -2 13 8 16 24 4 28 4 28 6 -3 1 -34 -19 -50
-38 -31 -6 6 -11 22 -10 37 l1 25 7 -24 c4 -14 12 -26 18 -28z m63 17 c0 -16
-4 -30 -10 -30 -5 0 -10 14 -10 30 0 17 5 30 10 30 6 0 10 -13 10 -30z m40 20
c-12 -8 -12 -10 3 -16 25 -9 21 -34 -5 -33 -22 0 -22 1 -3 8 19 8 19 8 -3 20
-25 13 -21 31 6 31 14 0 15 -2 2 -10z m57 3 c-18 -5 -17 -6 2 -20 25 -17 19
-33 -12 -32 -21 0 -21 1 -2 9 18 7 19 8 3 15 -26 10 -22 35 5 34 18 -1 19 -2
4 -6z m63 -1 c-22 -10 -24 -40 -3 -45 14 -4 13 -5 -4 -6 -19 -1 -23 4 -23 29
0 25 4 30 23 29 16 0 18 -2 7 -7z m327 1 c-18 -5 -17 -6 2 -20 25 -17 19 -33
-12 -32 -20 0 -20 1 -4 8 17 6 17 8 3 20 -19 16 -12 31 12 30 14 -1 14 -2 -1
-6z m72 -19 c6 -15 9 -29 7 -32 -3 -3 -9 6 -14 18 l-9 24 -6 -24 c-3 -13 -9
-21 -12 -18 -8 7 5 58 14 58 4 0 13 -12 20 -26z m48 4 l10 -23 7 23 c11 33 26
27 25 -10 0 -26 -2 -29 -8 -14 -7 19 -8 19 -15 0 -7 -19 -8 -19 -18 1 -11 19
-11 19 -19 0 -6 -16 -8 -13 -8 13 -1 37 11 42 26 10z m103 9 c0 -11 -33 -47
-43 -47 -5 0 -6 33 -1 48 5 16 44 16 44 -1z m30 -11 c0 -13 6 -27 13 -29 6 -3
2 -6 -10 -6 -19 -1 -23 4 -23 29 0 17 5 30 10 30 6 0 10 -11 10 -24z m63 17
c-7 -2 -13 -13 -13 -23 0 -10 6 -21 13 -23 7 -3 5 -6 -5 -6 -13 -1 -18 7 -18
29 0 22 5 30 18 29 10 0 12 -3 5 -6z m78 -25 c-5 -30 -6 -31 -9 -8 -2 14 -9
28 -16 32 -7 5 -3 8 10 8 18 0 20 -5 15 -32z m57 25 c-10 -2 -18 -13 -18 -23
0 -10 8 -21 18 -23 13 -4 11 -5 -5 -6 -19 -1 -23 4 -23 29 0 25 4 30 23 29 16
-1 18 -2 5 -6z m54 -1 c3 7 5 -1 5 -17 0 -21 -5 -31 -16 -31 -11 0 -16 9 -16
27 0 20 3 25 12 18 7 -7 13 -5 15 3z m62 0 c-7 -4 -14 -18 -16 -32 -3 -23 -4
-22 -9 8 -5 27 -3 32 15 32 13 0 17 -3 10 -8z m53 -39 c-3 -10 -5 -2 -5 17 0
19 2 27 5 18 2 -10 2 -26 0 -35z m43 15 c-1 -26 -3 -30 -10 -16 -6 9 -7 23 -4
32 9 25 14 19 14 -16z m43 25 c-7 -2 -13 -13 -13 -23 0 -10 6 -21 13 -23 6 -3
2 -6 -10 -6 -19 -1 -23 4 -23 29 0 25 4 30 23 29 12 0 16 -3 10 -6z m69 -18
c6 -27 -7 -44 -15 -23 -4 10 -8 9 -16 -2 -8 -12 -11 -8 -11 18 0 25 4 32 19
32 12 0 20 -9 23 -25z m48 17 c-8 -4 -15 -14 -15 -22 0 -8 7 -18 15 -22 11 -5
9 -7 -7 -7 -19 -1 -23 4 -23 29 0 25 4 30 23 29 16 0 18 -2 7 -7z m297 1 c-18
-5 -17 -6 2 -20 23 -16 20 -33 -7 -33 -14 0 -14 2 -3 9 11 7 10 11 -4 19 -21
11 -12 33 13 31 14 -1 14 -2 -1 -6z m74 -19 c5 -15 7 -29 4 -32 -2 -3 -8 6
-13 18 l-9 24 -6 -24 c-3 -13 -9 -21 -12 -18 -9 8 5 58 16 58 5 0 14 -12 20
-26z m46 4 l10 -23 7 23 c11 33 26 27 25 -10 0 -26 -2 -29 -8 -14 -7 19 -8 19
-15 0 -7 -19 -8 -19 -18 1 -11 19 -11 19 -19 0 -6 -16 -8 -13 -8 13 -1 37 11
42 26 10z m103 9 c0 -10 -33 -47 -43 -47 -2 0 0 50 2 58 3 9 41 -1 41 -11z
m30 -11 c0 -13 6 -27 13 -29 6 -3 2 -6 -10 -6 -19 -1 -23 4 -23 29 0 17 5 30
10 30 6 0 10 -11 10 -24z m63 17 c-7 -2 -13 -13 -13 -23 0 -10 6 -21 13 -23 7
-3 5 -6 -5 -6 -13 -1 -18 7 -18 29 0 22 5 30 18 29 10 0 12 -3 5 -6z m78 -25
c-5 -30 -6 -31 -9 -8 -2 14 -9 28 -16 32 -7 5 -3 8 10 8 18 0 20 -5 15 -32z
m57 25 c-10 -2 -18 -13 -18 -23 0 -10 8 -21 18 -23 13 -4 11 -5 -5 -6 -19 -1
-23 4 -23 29 0 25 4 30 23 29 16 -1 18 -2 5 -6z m54 -1 c3 7 5 -1 5 -17 0 -21
-5 -31 -16 -31 -11 0 -16 9 -16 27 0 20 3 25 12 18 7 -7 13 -5 15 3z m62 0
c-7 -4 -14 -18 -16 -32 -3 -23 -4 -22 -9 8 -5 27 -3 32 15 32 13 0 17 -3 10
-8z m53 -39 c-3 -10 -5 -2 -5 17 0 19 2 27 5 18 2 -10 2 -26 0 -35z m43 15
c-1 -26 -3 -30 -10 -16 -6 9 -7 23 -4 32 9 25 14 19 14 -16z m43 25 c-7 -2
-13 -13 -13 -23 0 -10 6 -21 13 -23 6 -3 2 -6 -10 -6 -19 -1 -23 4 -23 29 0
25 4 30 23 29 12 0 16 -3 10 -6z m69 -18 c6 -27 -7 -44 -15 -23 -4 10 -8 9
-16 -2 -8 -12 -11 -8 -11 18 0 25 4 32 19 32 12 0 20 -9 23 -25z m48 17 c-8
-4 -15 -14 -15 -22 0 -8 7 -18 15 -22 11 -5 9 -7 -7 -7 -19 -1 -23 4 -23 29 0
25 4 30 23 29 16 0 18 -2 7 -7z m297 1 c-18 -5 -17 -6 2 -20 25 -17 19 -33
-12 -32 -21 0 -21 1 -2 9 18 7 19 8 3 15 -26 10 -22 35 5 34 18 -1 19 -2 4 -6z
m72 -19 c6 -15 9 -29 7 -32 -3 -3 -9 6 -14 18 l-9 24 -6 -24 c-3 -13 -9 -21
-12 -18 -8 7 5 58 14 58 4 0 13 -12 20 -26z m48 4 l10 -23 7 23 c11 33 26 27
25 -10 0 -26 -2 -29 -8 -14 -7 19 -8 19 -15 0 -7 -19 -8 -19 -18 1 -11 19 -11
19 -19 0 -6 -16 -8 -13 -8 13 -1 37 11 42 26 10z m98 11 c6 -9 -26 -49 -40
-49 -7 0 -6 45 2 53 10 11 31 8 38 -4z m35 -13 c0 -13 6 -27 13 -29 6 -3 2 -6
-10 -6 -19 -1 -23 4 -23 29 0 17 5 30 10 30 6 0 10 -11 10 -24z m63 17 c-7 -2
-13 -13 -13 -23 0 -10 6 -21 13 -23 7 -3 5 -6 -5 -6 -13 -1 -18 7 -18 29 0 22
5 30 18 29 10 0 12 -3 5 -6z m78 -25 c-5 -30 -6 -31 -9 -8 -2 14 -9 28 -16 32
-7 5 -3 8 10 8 18 0 20 -5 15 -32z m57 25 c-10 -2 -18 -13 -18 -23 0 -10 8
-21 18 -23 13 -4 11 -5 -5 -6 -19 -1 -23 4 -23 29 0 25 4 30 23 29 16 -1 18
-2 5 -6z m54 -1 c3 7 5 -1 5 -17 0 -21 -5 -31 -16 -31 -11 0 -16 9 -16 27 0
20 3 25 12 18 7 -7 13 -5 15 3z m62 0 c-7 -4 -14 -18 -16 -32 -3 -23 -4 -22
-9 8 -5 27 -3 32 15 32 13 0 17 -3 10 -8z m53 -39 c-3 -10 -5 -2 -5 17 0 19 2
27 5 18 2 -10 2 -26 0 -35z m43 15 c-1 -26 -3 -30 -10 -16 -6 9 -7 23 -4 32 9
25 14 19 14 -16z m43 25 c-7 -2 -13 -13 -13 -23 0 -10 6 -21 13 -23 6 -3 2 -6
-10 -6 -19 -1 -23 4 -23 29 0 25 4 30 23 29 12 0 16 -3 10 -6z m69 -18 c6 -27
-7 -44 -15 -23 -4 10 -8 9 -16 -2 -8 -12 -11 -8 -11 18 0 25 4 32 19 32 12 0
20 -9 23 -25z m48 17 c-22 -10 -24 -40 -3 -45 14 -4 13 -5 -4 -6 -19 -1 -23 4
-23 29 0 25 4 30 23 29 16 0 18 -2 7 -7z m377 1 c-18 -5 -17 -6 2 -20 23 -16
20 -33 -7 -33 -13 0 -14 2 -4 9 10 6 10 10 -2 21 -19 15 -12 30 12 29 14 -1
14 -2 -1 -6z m72 -19 c6 -15 9 -29 7 -32 -3 -3 -9 6 -14 18 l-9 24 -6 -24 c-3
-13 -9 -21 -12 -18 -8 7 5 58 14 58 4 0 13 -12 20 -26z m48 4 l10 -23 7 23
c11 33 26 27 25 -10 0 -26 -2 -29 -8 -14 -7 19 -8 19 -15 0 -7 -19 -8 -19 -18
1 -11 19 -11 19 -19 0 -6 -16 -8 -13 -8 13 -1 37 11 42 26 10z m103 9 c0 -7
-9 -20 -20 -30 -19 -16 -20 -16 -20 13 0 23 4 30 20 30 11 0 20 -6 20 -13z
m30 -11 c0 -13 6 -27 13 -29 6 -3 2 -6 -10 -6 -19 -1 -23 4 -23 29 0 17 5 30
10 30 6 0 10 -11 10 -24z m63 17 c-7 -2 -13 -13 -13 -23 0 -10 6 -21 13 -23 7
-3 5 -6 -5 -6 -13 -1 -18 7 -18 29 0 22 5 30 18 29 10 0 12 -3 5 -6z m78 -25
c-5 -30 -6 -31 -9 -8 -2 14 -9 28 -16 32 -7 5 -3 8 10 8 18 0 20 -5 15 -32z
m57 25 c-10 -2 -18 -13 -18 -23 0 -10 8 -21 18 -23 13 -4 11 -5 -5 -6 -19 -1
-23 4 -23 29 0 25 4 30 23 29 16 -1 18 -2 5 -6z m54 -1 c3 7 5 -1 5 -17 0 -21
-5 -31 -16 -31 -11 0 -16 9 -16 27 0 20 3 25 12 18 7 -7 13 -5 15 3z m62 0
c-7 -4 -14 -18 -16 -32 -3 -23 -4 -22 -9 8 -5 27 -3 32 15 32 13 0 17 -3 10
-8z m53 -39 c-3 -10 -5 -2 -5 17 0 19 2 27 5 18 2 -10 2 -26 0 -35z m43 16 c0
-17 -4 -28 -10 -24 -5 3 -10 17 -10 31 0 13 5 24 10 24 6 0 10 -14 10 -31z
m43 24 c-7 -2 -13 -13 -13 -23 0 -10 6 -21 13 -23 6 -3 2 -6 -10 -6 -19 -1
-23 4 -23 29 0 25 4 30 23 29 12 0 16 -3 10 -6z m67 -25 c0 -25 -3 -29 -10
-18 -9 13 -11 13 -20 0 -7 -11 -10 -7 -10 18 0 25 4 32 20 32 16 0 20 -7 20
-32z m50 24 c-8 -4 -15 -14 -15 -22 0 -8 7 -18 15 -22 11 -5 9 -7 -7 -7 -19
-1 -23 4 -23 29 0 25 4 30 23 29 16 0 18 -2 7 -7z"/>
<path d="M5429 3301 c-29 -24 -33 -91 -6 -118 27 -27 94 -23 118 6 60 74 -38
172 -112 112z"/>
<path d="M360 2040 l0 -1100 1360 0 1360 0 0 1100 0 1100 -1360 0 -1360 0 0
-1100z m2260 290 l0 -210 -900 0 -900 0 0 203 c0 112 3 207 7 210 3 4 408 7
900 7 l893 0 0 -210z m-265 -302 c14 -6 25 -16 25 -22 0 -6 5 -3 11 7 7 11 22
17 49 17 l40 0 0 -60 0 -60 -44 0 c-35 0 -45 4 -49 20 -3 11 -17 25 -31 32
-22 9 -29 9 -43 -4 -22 -23 -11 -34 62 -58 63 -21 115 -64 115 -94 0 -33 -25
-78 -51 -91 -36 -19 -120 -19 -145 0 -25 19 -34 19 -34 0 0 -11 -11 -15 -40
-15 l-40 0 0 60 0 60 45 0 c32 0 45 -4 45 -14 0 -17 22 -26 61 -26 52 0 33 27
-35 50 -67 22 -101 49 -111 90 -20 80 85 147 170 108z m-1237 -51 c18 -28 42
-63 52 -77 l20 -25 0 48 c0 35 -4 47 -15 47 -10 0 -15 10 -15 30 l0 30 69 0
c66 0 69 -1 74 -25 3 -18 -1 -29 -14 -36 -17 -9 -19 -23 -19 -139 l0 -130 -48
0 -49 0 -59 88 -59 87 -3 -44 c-4 -51 2 -72 20 -69 8 2 14 -10 16 -30 l3 -33
-73 3 -73 3 0 30 c0 19 5 29 13 28 9 -2 12 23 12 102 0 80 -3 105 -13 105 -8
0 -13 12 -13 30 l0 30 70 0 71 0 33 -53z m512 3 l0 -50 -40 0 c-34 0 -40 3
-40 21 0 17 -5 20 -37 17 -33 -3 -38 -7 -41 -30 -3 -27 -2 -28 42 -28 46 0 46
0 46 -35 0 -35 0 -35 -45 -35 -45 0 -45 0 -45 -35 0 -34 1 -35 40 -35 33 0 40
3 40 20 0 17 7 20 40 20 l40 0 0 -55 0 -55 -140 0 -140 0 0 35 c0 23 5 35 14
35 19 0 20 175 0 194 -8 8 -14 26 -14 40 l0 26 140 0 140 0 0 -50z m190 20 c0
-21 -5 -30 -16 -30 -11 0 -14 -5 -10 -16 3 -9 9 -40 12 -70 4 -30 10 -51 14
-47 4 4 15 50 26 101 l18 92 51 0 52 0 16 -82 c9 -46 18 -92 20 -103 2 -11 9
7 16 40 8 33 16 65 18 72 3 7 -2 13 -11 13 -11 0 -16 9 -16 30 l0 30 70 0 70
0 0 -30 c0 -18 -5 -30 -13 -30 -9 0 -26 -46 -49 -132 l-34 -133 -57 -3 -56 -3
-10 38 c-6 21 -14 55 -17 75 -7 44 -19 42 -28 -4 -3 -17 -11 -49 -17 -70 l-10
-38 -54 0 -53 0 -32 135 c-22 95 -36 135 -46 135 -9 0 -14 11 -14 30 l0 30 80
0 80 0 0 -30z"/>
<path d="M961 2358 c-7 -46 -15 -100 -18 -120 -5 -38 -5 -38 28 -38 57 1 113
18 132 41 23 29 22 66 -4 80 l-21 11 21 14 c12 9 21 26 21 39 0 35 -36 55 -96
55 l-52 0 -11 -82z m111 28 c9 -12 -27 -46 -48 -46 -14 0 -20 51 -7 63 9 9 46
-2 55 -17z m-4 -99 c5 -27 -17 -47 -50 -47 -27 0 -30 3 -24 23 3 12 6 28 6 35
0 21 64 11 68 -11z"/>
<path d="M1180 2433 c0 -5 -7 -48 -15 -98 -20 -121 -19 -135 5 -135 18 0 24
14 33 90 1 9 15 16 35 18 l34 3 -3 -53 c-3 -46 -1 -53 16 -53 30 0 47 83 22
106 -10 10 -8 17 10 35 28 28 29 48 3 74 -16 16 -33 20 -80 20 -33 0 -60 -3
-60 -7z m88 -29 c44 -12 20 -64 -30 -64 -26 0 -28 2 -22 28 11 46 12 46 52 36z"/>
<path d="M1385 2428 c-2 -7 -10 -60 -18 -116 -11 -80 -11 -105 -2 -108 7 -3
39 -4 71 -2 47 2 59 7 62 21 3 14 -4 17 -45 17 l-49 0 4 35 c4 34 5 35 48 35
32 0 44 4 44 15 0 11 -11 15 -40 15 -33 0 -40 3 -40 19 0 41 11 51 56 51 32 0
44 4 44 15 0 20 -128 22 -135 3z"/>
<path d="M1575 2333 c-26 -60 -49 -113 -52 -119 -10 -26 42 -8 55 19 10 21 20
27 46 27 29 0 34 -4 40 -30 4 -21 11 -30 26 -30 24 0 24 -7 5 105 -23 137 -23
135 -49 135 -20 0 -30 -15 -71 -107z m74 -25 c1 -21 -3 -25 -19 -21 -24 6 -24
7 -8 50 10 28 14 31 19 16 4 -10 8 -30 8 -45z"/>
<path d="M1761 2358 c-6 -46 -14 -100 -17 -120 -5 -34 -3 -38 15 -38 23 0 25
3 38 70 l8 45 33 -57 c22 -40 38 -58 52 -58 26 0 25 16 -5 65 -14 22 -25 46
-25 53 0 8 15 32 33 55 50 62 52 67 23 67 -18 0 -34 -13 -61 -50 -38 -51 -56
-63 -50 -32 16 79 15 82 -9 82 -22 0 -24 -6 -35 -82z"/>
<path d="M1970 2431 c0 -5 5 -11 11 -13 17 -6 -11 -168 -32 -187 -25 -21 -14
-31 31 -31 40 0 62 16 41 30 -17 10 7 180 26 187 28 11 11 23 -32 23 -25 0
-45 -4 -45 -9z"/>
<path d="M2107 2418 c-12 -51 -30 -209 -24 -214 16 -16 36 9 42 53 16 115 18
116 54 25 28 -69 37 -82 56 -82 21 0 24 7 34 83 6 45 14 99 17 120 5 32 3 37
-15 37 -16 0 -21 -8 -26 -47 -3 -27 -9 -63 -13 -82 -7 -35 -8 -34 -38 45 -27
67 -35 79 -56 82 -20 2 -27 -2 -31 -20z"/>
<path d="M2372 2424 c-34 -24 -52 -68 -52 -129 0 -42 5 -60 20 -75 22 -22 60
-26 90 -10 13 7 21 7 25 0 12 -20 24 -9 30 28 4 20 9 50 12 65 5 28 4 28 -38
25 -46 -3 -69 -28 -26 -28 21 0 24 -4 19 -22 -6 -28 -20 -38 -49 -38 -45 0
-55 80 -17 137 14 22 21 25 61 20 34 -3 46 -1 50 10 3 8 0 19 -8 24 -23 14
-93 10 -117 -7z"/>
<path d="M5714 399 c-10 -17 13 -36 27 -22 12 12 4 33 -11 33 -5 0 -12 -5 -16
-11z"/>
<path d="M5946 371 c-4 -7 -5 -15 -2 -18 9 -9 19 4 14 18 -4 11 -6 11 -12 0z"/>
<path d="M610 90 c0 -5 5 -10 10 -10 6 0 10 5 10 10 0 6 -4 10 -10 10 -5 0
-10 -4 -10 -10z"/>
<path d="M830 80 c0 -13 5 -20 13 -17 6 2 12 10 12 17 0 7 -6 15 -12 18 -8 2
-13 -5 -13 -18z"/>
<path d="M1040 80 c0 -11 7 -20 15 -20 8 0 15 9 15 20 0 11 -7 20 -15 20 -8 0
-15 -9 -15 -20z"/>
<path d="M2090 89 c0 -5 5 -7 10 -4 6 3 10 8 10 11 0 2 -4 4 -10 4 -5 0 -10
-5 -10 -11z"/>
<path d="M2640 89 c0 -5 5 -7 10 -4 6 3 10 8 10 11 0 2 -4 4 -10 4 -5 0 -10
-5 -10 -11z"/>
<path d="M3210 90 c0 -5 5 -10 10 -10 6 0 10 5 10 10 0 6 -4 10 -10 10 -5 0
-10 -4 -10 -10z"/>
<path d="M3760 89 c0 -5 5 -7 10 -4 6 3 10 8 10 11 0 2 -4 4 -10 4 -5 0 -10
-5 -10 -11z"/>
<path d="M4330 89 c0 -5 5 -7 10 -4 6 3 10 8 10 11 0 2 -4 4 -10 4 -5 0 -10
-5 -10 -11z"/>
<path d="M4880 89 c0 -5 5 -7 10 -4 6 3 10 8 10 11 0 2 -4 4 -10 4 -5 0 -10
-5 -10 -11z"/>
<path d="M5530 90 c0 -5 5 -10 10 -10 6 0 10 5 10 10 0 6 -4 10 -10 10 -5 0
-10 -4 -10 -10z"/>
<path d="M6080 89 c0 -5 5 -7 10 -4 6 3 10 8 10 11 0 2 -4 4 -10 4 -5 0 -10
-5 -10 -11z"/>
<path d="M170 375 l0 -65 35 0 c19 0 35 5 35 10 0 6 -11 10 -25 10 -24 0 -25
3 -25 55 0 30 -4 55 -10 55 -6 0 -10 -28 -10 -65z"/>
<path d="M288 430 c-25 -15 -33 -66 -14 -95 32 -49 96 -23 96 39 0 52 -41 79
-82 56z m58 -34 c9 -38 -4 -68 -29 -64 -23 3 -35 43 -23 74 9 24 45 17 52 -10z"/>
<path d="M400 375 c0 -37 4 -65 10 -65 6 0 10 14 10 31 0 26 3 30 23 27 16 -2
23 -11 25 -30 2 -16 8 -28 13 -28 13 0 11 44 -3 58 -9 9 -9 12 0 12 19 0 14
38 -7 50 -11 5 -31 10 -45 10 -25 0 -26 -2 -26 -65z m68 28 c-2 -10 -13 -19
-26 -21 -17 -3 -22 2 -22 17 0 16 6 21 26 21 19 0 25 -5 22 -17z"/>
<path d="M524 426 c-3 -7 -4 -35 -2 -62 3 -49 3 -49 41 -52 21 -2 37 1 37 7 0
6 -11 11 -25 11 -37 0 -35 37 3 43 l27 4 -27 2 c-38 2 -41 41 -3 41 14 0 25 5
25 10 0 16 -70 12 -76 -4z"/>
<path d="M637 434 c-11 -11 -8 -124 2 -124 6 0 11 21 13 48 l3 47 15 -44 c21
-61 36 -62 54 -4 l15 48 0 -47 c1 -27 6 -48 11 -48 6 0 10 28 10 65 0 83 -21
88 -46 13 l-17 -53 -17 49 c-16 48 -29 64 -43 50z"/>
<path d="M849 426 c14 -16 12 -85 -2 -103 -7 -10 -3 -13 14 -13 23 0 24 3 24
65 0 62 -1 65 -24 65 -19 0 -21 -3 -12 -14z"/>
<path d="M920 375 c0 -37 4 -65 10 -65 6 0 10 11 10 25 0 19 5 25 23 25 49 0
65 54 21 70 -57 22 -64 16 -64 -55z m65 35 c8 -13 -13 -40 -31 -40 -8 0 -14
10 -14 25 0 18 5 25 19 25 11 0 23 -5 26 -10z"/>
<path d="M1040 420 c-14 -25 -8 -34 30 -50 40 -17 39 -40 -2 -40 -23 0 -29 -3
-21 -11 6 -6 23 -9 39 -7 23 2 30 9 32 31 3 23 -2 30 -33 43 -42 17 -38 34 8
34 24 0 28 3 17 10 -25 16 -59 11 -70 -10z"/>
<path d="M1150 387 c0 -60 12 -77 52 -77 34 0 48 24 48 84 0 64 -18 58 -22 -6
-3 -49 -5 -53 -28 -53 -23 0 -25 4 -28 53 -4 68 -22 68 -22 -1z"/>
<path d="M1280 376 c0 -37 4 -66 10 -66 6 0 10 21 11 48 l0 47 17 -44 c23 -61
38 -62 56 -4 l15 48 0 -47 c1 -27 6 -48 11 -48 6 0 10 28 10 65 0 83 -21 88
-46 13 l-17 -53 -17 50 c-10 30 -24 51 -33 53 -15 3 -17 -6 -17 -62z"/>
<path d="M1500 376 c0 -66 0 -66 28 -66 43 0 64 21 64 64 0 46 -8 55 -55 63
l-37 6 0 -67z m65 -1 c0 -34 -3 -40 -22 -43 -21 -3 -23 1 -23 43 0 42 2 46 23
43 19 -3 22 -9 22 -43z"/>
<path d="M1636 418 c-31 -44 -7 -108 39 -108 48 0 74 80 37 113 -26 23 -58 21
-76 -5z m70 -22 c9 -38 -4 -66 -31 -66 -27 0 -41 39 -25 70 15 28 48 26 56 -4z"/>
<path d="M1760 375 l0 -65 40 0 c22 0 40 5 40 10 0 6 -13 10 -30 10 -30 0 -30
1 -30 55 0 30 -4 55 -10 55 -6 0 -10 -28 -10 -65z"/>
<path d="M1878 429 c-13 -7 -18 -23 -18 -52 0 -49 13 -67 50 -67 36 0 50 17
50 61 0 58 -38 84 -82 58z m57 -54 c0 -36 -2 -40 -25 -40 -20 0 -26 6 -28 28
-5 42 5 59 30 55 20 -3 23 -9 23 -43z"/>
<path d="M1997 433 c-4 -3 -7 -33 -7 -65 0 -43 3 -59 13 -55 6 2 12 15 12 28
0 36 39 33 43 -3 2 -16 7 -28 12 -28 16 0 17 35 2 53 -10 11 -11 17 -4 17 7 0
12 11 12 24 0 16 -7 26 -22 30 -30 8 -53 8 -61 -1z m61 -30 c-2 -10 -12 -18
-23 -18 -11 0 -21 8 -23 18 -3 13 3 17 23 17 20 0 26 -4 23 -17z"/>
<path d="M2170 425 c-16 -20 -7 -40 26 -57 42 -20 42 -38 -1 -38 -21 0 -34 -4
-30 -10 9 -14 58 -13 73 2 20 20 14 38 -23 59 -43 26 -45 39 -4 39 17 0 28 4
24 10 -9 15 -51 12 -65 -5z"/>
<path d="M2277 428 c12 -20 13 -91 1 -105 -8 -10 -5 -13 13 -13 23 0 24 3 24
65 0 61 -1 65 -23 65 -16 0 -21 -4 -15 -12z"/>
<path d="M2345 430 c-3 -5 3 -10 14 -10 19 0 21 -6 21 -55 0 -30 5 -55 10 -55
6 0 10 25 10 55 0 42 3 55 15 55 8 0 15 5 15 10 0 6 -18 10 -39 10 -22 0 -43
-4 -46 -10z"/>
<path d="M2521 378 c-21 -63 -20 -87 3 -55 7 9 21 17 31 17 10 0 24 -8 31 -17
23 -32 24 -8 3 55 -11 34 -27 62 -34 62 -7 0 -23 -28 -34 -62z m48 -15 c1 -7
-6 -13 -14 -13 -17 0 -18 4 -8 39 6 23 7 23 14 5 4 -10 8 -25 8 -31z"/>
<path d="M2639 396 c-2 -24 -1 -55 2 -68 5 -20 7 -21 14 -5 4 9 4 28 1 42 -4
14 -2 25 3 25 4 0 11 -12 14 -27 15 -68 35 -67 58 2 l14 40 5 -50 c8 -64 22
-38 18 31 -4 63 -27 66 -48 7 -8 -24 -17 -43 -20 -43 -3 0 -12 19 -20 42 -21
57 -37 59 -41 4z"/>
<path d="M2800 375 l0 -65 40 0 c22 0 40 5 40 10 0 6 -13 10 -30 10 -23 0 -30
4 -30 20 0 15 7 20 28 21 l27 1 -25 7 c-14 4 -26 15 -28 24 -3 13 4 17 27 17
17 0 31 5 31 10 0 6 -18 10 -40 10 l-40 0 0 -65z"/>
<path d="M2900 430 c0 -5 9 -10 20 -10 18 0 20 -7 20 -55 0 -30 5 -55 10 -55
6 0 10 25 10 55 0 42 3 55 15 55 8 0 15 5 15 10 0 6 -20 10 -45 10 -25 0 -45
-4 -45 -10z"/>
<path d="M3007 334 c-8 -8 1 -24 14 -24 5 0 9 7 9 15 0 15 -12 20 -23 9z"/>
<path d="M170 240 c0 -22 5 -30 18 -29 10 0 12 3 5 6 -7 2 -13 13 -13 23 0 10
6 21 13 23 7 3 5 6 -5 6 -13 1 -18 -7 -18 -29z"/>
<path d="M224 240 c1 -18 7 -26 24 -28 19 -3 22 1 21 30 -2 30 -2 31 -6 6 -5
-34 -30 -37 -36 -5 -3 19 -4 19 -3 -3z"/>
<path d="M311 238 c1 -19 3 -25 6 -15 5 18 5 18 18 0 13 -17 14 -17 21 1 7 19
8 19 15 0 6 -15 8 -12 8 14 1 37 -14 43 -25 10 l-7 -23 -10 23 c-15 32 -27 27
-26 -10z"/>
<path d="M400 240 c0 -22 5 -30 18 -29 10 0 12 3 5 6 -17 6 -17 40 0 46 7 3 5
6 -5 6 -13 1 -18 -7 -18 -29z"/>
<path d="M451 243 c-1 -28 2 -33 22 -32 15 1 17 3 5 6 -9 2 -19 16 -21 31 -4
24 -4 24 -6 -5z"/>
<path d="M531 240 c1 -31 2 -32 8 -10 l7 25 8 -22 c11 -34 26 -28 25 10 -1 23
-3 26 -6 9 l-4 -22 -19 22 -19 23 0 -35z"/>
<path d="M598 252 c-7 -27 5 -45 28 -40 28 5 26 52 -2 56 -14 2 -23 -3 -26
-16z m40 -15 c2 -10 -3 -17 -12 -17 -10 0 -16 9 -16 21 0 24 23 21 28 -4z"/>
<path d="M665 261 c-3 -5 5 -17 17 -25 19 -14 20 -16 5 -16 -10 0 -15 -5 -12
-10 5 -8 12 -7 22 2 13 11 13 14 -6 29 -19 16 -20 18 -4 22 16 4 16 5 1 6 -9
0 -19 -3 -23 -8z"/>
<path d="M728 240 c2 -16 8 -30 12 -30 4 0 10 14 12 30 4 23 1 30 -12 30 -13
0 -16 -7 -12 -30z"/>
<path d="M780 240 c0 -22 5 -30 18 -29 10 0 12 3 5 6 -7 2 -13 13 -13 23 0 10
6 21 13 23 7 3 5 6 -5 6 -13 1 -18 -7 -18 -29z"/>
<path d="M830 238 c1 -27 2 -30 11 -15 5 9 7 22 4 27 -3 6 -1 10 4 10 6 0 11
-11 11 -25 0 -14 4 -25 9 -25 5 0 8 12 7 28 -2 19 -10 28 -25 30 -18 3 -21 -1
-21 -30z"/>
<path d="M920 240 c0 -27 3 -31 23 -28 16 2 22 10 22 28 0 18 -6 26 -22 28
-20 3 -23 -1 -23 -28z m35 0 c0 -7 -6 -15 -12 -17 -8 -3 -13 4 -13 17 0 13 5
20 13 18 6 -3 12 -11 12 -18z"/>
<path d="M985 240 c0 -16 3 -30 8 -30 4 0 7 14 7 30 0 17 -3 30 -7 30 -5 0 -8
-13 -8 -30z"/>
<path d="M1020 256 c0 -8 8 -17 18 -21 16 -7 15 -8 -3 -15 -19 -8 -19 -9 3 -9
26 -1 30 24 5 34 -17 7 -16 8 2 15 19 8 19 9 -2 9 -13 1 -23 -5 -23 -13z"/>
<path d="M1077 258 c-2 -7 -2 -21 1 -30 4 -16 6 -15 24 2 21 19 17 40 -7 40
-7 0 -15 -6 -18 -12z m33 -8 c0 -5 -4 -10 -10 -10 -5 0 -10 5 -10 10 0 6 5 10
10 10 6 0 10 -4 10 -10z"/>
<path d="M1132 243 c5 -49 57 -40 58 10 0 9 -4 17 -10 17 -5 0 -10 -11 -10
-25 0 -14 -4 -25 -10 -25 -5 0 -10 11 -10 25 0 14 -5 25 -11 25 -6 0 -9 -12
-7 -27z"/>
<path d="M1209 256 c6 -7 9 -21 5 -30 -3 -9 -2 -16 4 -16 5 0 12 14 14 30 4
25 1 30 -15 30 -15 0 -17 -3 -8 -14z"/>
<path d="M1260 251 c-6 -12 -9 -27 -7 -34 3 -7 9 -1 15 13 7 17 11 19 11 8 1
-9 6 -20 12 -24 8 -4 9 1 4 17 -11 37 -22 43 -35 20z"/>
<path d="M1316 255 c-9 -25 -7 -45 5 -45 6 0 9 6 6 14 -3 8 -1 17 6 19 9 3 9
8 1 16 -9 10 -13 8 -18 -4z"/>
<path d="M1360 249 c0 -12 -4 -18 -11 -13 -7 4 -10 1 -7 -6 9 -28 28 -22 28 9
0 17 -2 31 -5 31 -3 0 -5 -9 -5 -21z"/>
<path d="M1380 241 c0 -27 4 -31 26 -31 22 0 25 4 22 28 -2 19 -9 28 -25 30
-20 3 -23 -1 -23 -27z m40 -1 c0 -11 -4 -20 -10 -20 -5 0 -10 9 -10 20 0 11 5
20 10 20 6 0 10 -9 10 -20z"/>
<path d="M1454 256 c-9 -24 3 -46 26 -46 17 0 21 5 18 27 -3 31 -34 44 -44 19z
m36 -16 c0 -11 -7 -20 -15 -20 -8 0 -15 9 -15 20 0 11 7 20 15 20 8 0 15 -9
15 -20z"/>
<path d="M1571 238 c1 -24 3 -27 6 -10 l4 22 19 -22 19 -23 0 35 c-1 31 -2 32
-8 10 l-7 -25 -8 23 c-11 33 -26 27 -25 -10z"/>
<path d="M1644 256 c-9 -24 3 -46 26 -46 17 0 21 5 18 27 -3 31 -34 44 -44 19z
m36 -16 c0 -11 -7 -20 -15 -20 -8 0 -15 9 -15 20 0 11 7 20 15 20 8 0 15 -9
15 -20z"/>
<path d="M1730 240 c0 -25 4 -30 23 -29 16 0 18 2 7 7 -8 4 -15 14 -15 22 0 8
7 18 15 22 11 5 9 7 -7 7 -19 1 -23 -4 -23 -29z"/>
<path d="M1791 242 c-1 -29 2 -33 22 -30 17 2 22 10 24 33 2 27 1 28 -5 6 -11
-35 -30 -37 -35 -4 -4 26 -4 26 -6 -5z"/>
<path d="M1856 247 c-8 -31 -7 -37 5 -37 6 0 8 7 5 16 -3 8 -2 12 4 9 6 -3 10
1 10 9 0 25 -17 27 -24 3z"/>
<path d="M1901 258 c0 -7 4 -22 9 -33 7 -17 9 -15 9 13 1 17 -3 32 -9 32 -5 0
-10 -6 -9 -12z"/>
<path d="M1970 245 c-6 -15 -8 -30 -5 -33 2 -3 9 6 14 19 7 16 10 19 10 7 1
-9 6 -20 12 -24 8 -4 9 1 4 17 -12 40 -24 44 -35 14z"/>
<path d="M2028 265 c-12 -12 5 -55 22 -55 20 0 32 23 24 45 -6 14 -35 21 -46
10z m32 -25 c0 -11 -4 -20 -10 -20 -5 0 -10 9 -10 20 0 11 5 20 10 20 6 0 10
-9 10 -20z"/>
<path d="M2091 240 c0 -29 1 -32 10 -17 7 11 7 23 0 35 -9 14 -10 11 -10 -18z"/>
<path d="M2132 240 c0 -19 2 -27 5 -17 2 9 2 25 0 35 -3 9 -5 1 -5 -18z"/>
<path d="M2161 242 c-1 -29 2 -33 22 -30 16 2 22 10 23 28 1 22 0 22 -3 3 -6
-32 -31 -29 -36 5 -4 25 -4 24 -6 -6z"/>
<path d="M2226 255 c-9 -24 4 -45 28 -44 16 1 17 2 4 6 -10 2 -18 13 -18 23 0
10 8 21 18 23 13 4 12 5 -4 6 -12 0 -24 -6 -28 -14z"/>
<path d="M2310 240 c0 -22 5 -30 18 -29 10 0 12 3 5 6 -19 7 -16 41 5 46 13 4
11 5 -5 6 -19 1 -23 -4 -23 -29z"/>
<path d="M2361 243 c-1 -28 2 -33 22 -32 15 1 17 3 5 6 -9 2 -19 16 -21 31 -4
24 -4 24 -6 -5z"/>
<path d="M2420 250 c0 -11 -1 -23 -2 -27 -1 -5 7 -9 18 -10 10 -2 13 0 7 3 -7
3 -13 14 -13 24 0 10 6 21 13 23 7 3 5 6 -5 6 -12 1 -18 -6 -18 -19z"/>
<path d="M2475 240 c0 -16 3 -30 8 -30 4 0 7 14 7 30 0 17 -3 30 -7 30 -5 0
-8 -13 -8 -30z"/>
<path d="M2511 238 c2 -30 2 -30 6 -6 2 15 12 29 21 31 12 3 10 5 -5 6 -20 1
-23 -4 -22 -31z"/>
<path d="M2560 240 c0 -25 4 -30 23 -29 16 0 18 2 7 7 -8 4 -15 14 -15 22 0 8
7 18 15 22 11 5 9 7 -7 7 -19 1 -23 -4 -23 -29z"/>
<path d="M2621 239 c1 -19 3 -26 6 -16 2 9 9 15 14 12 15 -10 10 12 -6 25 -13
11 -15 8 -14 -21z"/>
<path d="M2658 245 c-6 -30 -3 -43 8 -33 3 4 4 19 2 35 l-3 28 -7 -30z"/>
<path d="M2690 240 c0 -23 5 -30 19 -30 21 0 33 22 25 45 -4 8 -15 15 -25 15
-14 0 -19 -7 -19 -30z m35 0 c0 -7 -6 -15 -12 -17 -8 -3 -13 4 -13 17 0 13 5
20 13 18 6 -3 12 -11 12 -18z"/>
<path d="M2781 240 c13 -36 24 -38 33 -7 9 34 6 45 -6 17 l-10 -25 -9 23 c-13
33 -20 27 -8 -8z"/>
<path d="M2835 250 c-8 -26 6 -43 31 -38 13 2 19 12 19 28 0 34 -40 41 -50 10z
m41 -1 c10 -17 -13 -36 -27 -22 -12 12 -4 33 11 33 5 0 12 -5 16 -11z"/>
<path d="M2901 243 c-1 -28 2 -33 22 -32 15 1 17 3 5 6 -9 2 -19 16 -21 31 -4
24 -4 24 -6 -5z"/>
<path d="M2953 245 c2 -23 7 -31 25 -33 19 -3 22 1 21 30 -2 31 -2 31 -6 5 -5
-33 -24 -31 -35 4 -6 22 -7 21 -5 -6z"/>
<path d="M3028 240 c2 -16 8 -30 12 -30 4 0 10 14 12 30 4 23 1 30 -12 30 -13
0 -16 -7 -12 -30z"/>
<path d="M3080 240 l0 -31 21 20 c22 20 19 41 -7 41 -9 0 -14 -11 -14 -30z
m30 10 c0 -5 -4 -10 -10 -10 -5 0 -10 5 -10 10 0 6 5 10 10 10 6 0 10 -4 10
-10z"/>
<path d="M3140 245 c-6 -15 -8 -30 -5 -33 2 -3 9 6 14 19 7 16 10 19 10 7 1
-9 6 -20 12 -24 8 -4 9 1 4 17 -12 40 -24 44 -35 14z"/>
<path d="M3199 238 c5 -30 6 -31 9 -8 2 14 9 28 16 32 7 5 3 8 -10 8 -18 0
-20 -5 -15 -32z"/>
<path d="M3295 249 c12 -40 24 -44 35 -14 6 15 8 30 5 33 -2 3 -9 -6 -14 -19
-7 -16 -10 -19 -10 -7 -1 9 -6 20 -12 24 -8 4 -9 -1 -4 -17z"/>
<path d="M3362 240 c0 -19 2 -27 5 -17 2 9 2 25 0 35 -3 9 -5 1 -5 -18z"/>
<path d="M3399 258 c11 -15 11 -21 1 -33 -8 -9 -8 -15 -2 -15 6 0 13 6 15 13
4 10 6 10 6 0 1 -7 6 -13 12 -13 8 0 8 5 -1 15 -10 12 -10 18 1 33 12 15 12
16 -2 5 -12 -10 -18 -10 -29 0 -12 10 -12 9 -1 -5z"/>
<path d="M3480 240 c0 -25 4 -30 23 -29 16 1 18 2 5 6 -10 2 -18 13 -18 23 0
10 8 21 18 23 13 4 11 5 -5 6 -19 1 -23 -4 -23 -29z"/>
<path d="M3541 240 c-6 -18 -6 -30 0 -30 5 0 9 9 9 21 0 11 5 17 10 14 6 -4 8
-10 5 -15 -3 -5 -1 -11 5 -15 11 -7 12 0 4 33 -9 30 -20 28 -33 -8z"/>
<path d="M3628 240 c2 -16 6 -30 8 -30 2 0 4 14 4 30 0 17 -4 30 -8 30 -5 0
-7 -13 -4 -30z"/>
<path d="M3661 238 c0 -28 2 -30 9 -13 12 28 12 45 0 45 -5 0 -10 -15 -9 -32z"/>
<path d="M3705 250 c-4 -11 -11 -18 -16 -15 -5 4 -9 2 -9 -4 0 -18 18 -21 25
-3 7 16 8 15 15 -3 7 -17 9 -14 9 13 1 36 -14 43 -24 12z"/>
<path d="M3740 240 c0 -35 4 -37 31 -11 24 22 18 41 -12 41 -14 0 -19 -7 -19
-30z m40 10 c0 -5 -4 -10 -10 -10 -5 0 -10 5 -10 10 0 6 5 10 10 10 6 0 10 -4
10 -10z"/>
<path d="M3800 240 c0 -25 4 -30 23 -29 16 0 18 2 7 7 -8 4 -15 14 -15 22 0 8
7 18 15 22 11 5 9 7 -7 7 -19 1 -23 -4 -23 -29z"/>
<path d="M3869 238 c5 -30 6 -31 9 -8 2 14 9 28 16 32 7 5 3 8 -10 8 -18 0
-20 -5 -15 -32z"/>
<path d="M3912 245 c2 -22 9 -31 24 -33 25 -4 39 22 24 46 -8 14 -9 12 -10
-11 0 -30 -25 -34 -25 -4 0 8 -4 19 -9 24 -4 4 -6 -5 -4 -22z"/>
<path d="M3980 256 c0 -8 8 -17 18 -21 16 -7 15 -8 -3 -15 -19 -8 -19 -9 3 -9
26 -1 30 24 5 34 -17 7 -16 8 2 15 19 8 19 9 -2 9 -13 1 -23 -5 -23 -13z"/>
<path d="M4064 255 c-9 -23 3 -45 23 -44 17 1 17 2 1 6 -10 2 -18 11 -18 18 0
8 8 19 18 24 16 10 16 10 -1 11 -10 0 -20 -7 -23 -15z"/>
<path d="M4127 243 c-7 -35 2 -45 10 -13 l6 24 9 -24 c5 -12 11 -21 13 -18 8
8 -13 58 -24 58 -5 0 -11 -12 -14 -27z"/>
<path d="M4185 261 c-3 -5 5 -17 17 -25 19 -14 20 -16 5 -16 -10 0 -15 -5 -12
-10 5 -8 12 -7 22 2 13 11 13 14 -6 29 -19 16 -20 18 -4 22 16 4 16 5 1 6 -9
0 -19 -3 -23 -8z"/>
<path d="M4240 240 c0 -25 4 -30 23 -29 16 0 18 2 7 7 -8 4 -15 14 -15 22 0 8
7 18 15 22 11 5 9 7 -7 7 -19 1 -23 -4 -23 -29z"/>
<path d="M4320 240 c0 -27 3 -31 23 -28 16 2 22 10 22 28 0 18 -6 26 -22 28
-20 3 -23 -1 -23 -28z m40 0 c0 -11 -7 -20 -15 -20 -8 0 -15 9 -15 20 0 11 7
20 15 20 8 0 15 -9 15 -20z"/>
<path d="M4390 240 c0 -22 5 -30 18 -29 10 0 12 3 5 6 -7 2 -13 13 -13 23 0
10 6 21 13 23 7 3 5 6 -5 6 -13 1 -18 -7 -18 -29z"/>
<path d="M4440 256 c0 -8 8 -17 18 -21 16 -7 16 -8 -2 -14 -18 -7 -18 -8 -2
-14 24 -10 34 23 10 36 -17 10 -17 11 1 18 19 7 18 8 -2 8 -13 1 -23 -5 -23
-13z"/>
<path d="M4500 240 c0 -25 4 -30 23 -29 16 1 18 2 5 6 -10 2 -18 13 -18 23 0
10 8 21 18 23 13 4 11 5 -5 6 -19 1 -23 -4 -23 -29z"/>
<path d="M4550 241 c0 -17 4 -31 9 -31 5 0 8 11 6 25 -1 16 3 25 12 25 8 0 11
-4 8 -10 -3 -5 -2 -18 4 -27 8 -15 9 -12 7 12 -2 22 -9 31 -25 33 -18 3 -21
-2 -21 -27z"/>
<path d="M4610 256 c0 -42 41 -65 54 -30 9 24 7 44 -4 44 -5 0 -10 -11 -10
-25 0 -14 -4 -25 -10 -25 -5 0 -10 11 -10 25 0 14 -4 25 -10 25 -5 0 -10 -6
-10 -14z"/>
<path d="M4685 240 c0 -16 3 -30 8 -30 4 0 7 14 7 30 0 17 -3 30 -7 30 -5 0
-8 -13 -8 -30z"/>
<path d="M4720 256 c0 -8 8 -17 18 -21 16 -7 15 -8 -3 -15 -19 -8 -19 -9 3 -9
26 -1 30 24 5 34 -17 7 -16 8 2 15 19 8 19 9 -2 9 -13 1 -23 -5 -23 -13z"/>
<path d="M4775 261 c-3 -5 4 -16 16 -24 19 -14 20 -15 2 -20 -15 -4 -14 -5 5
-6 26 -1 29 11 7 29 -13 11 -13 15 -3 21 10 7 9 9 -4 9 -9 0 -19 -4 -23 -9z"/>
<path d="M4830 240 c0 -25 4 -30 23 -29 16 0 18 2 7 7 -8 4 -15 14 -15 22 0 8
7 18 15 22 11 5 9 7 -7 7 -19 1 -23 -4 -23 -29z"/>
<path d="M1886 231 c-4 -7 -5 -15 -2 -18 9 -9 19 4 14 18 -4 11 -6 11 -12 0z"/>
</g>
</svg>
