<?xml version="1.0" standalone="no"?>
<!DOCTYPE svg PUBLIC "-//W3C//DTD SVG 20010904//EN"
 "http://www.w3.org/TR/2001/REC-SVG-20010904/DTD/svg10.dtd">
<svg version="1.0" xmlns="http://www.w3.org/2000/svg"
 width="455.000000pt" height="280.000000pt" viewBox="0 0 455.000000 280.000000"
 preserveAspectRatio="xMidYMid meet">

<g transform="translate(0.000000,280.000000) scale(0.100000,-0.100000)"
fill="#000000" stroke="none">
<path d="M399 2790 c-1 -3 -1 -12 0 -22 1 -9 -3 -19 -9 -23 -6 -4 -10 4 -10
19 0 26 0 26 -90 26 l-90 0 0 -84 c0 -51 4 -88 11 -92 8 -4 7 -9 -2 -15 -11
-7 -10 -9 4 -9 9 0 17 -5 17 -11 0 -5 -4 -8 -9 -4 -5 3 -12 1 -16 -5 -4 -6 6
-10 24 -10 17 0 31 -4 31 -8 0 -5 -13 -7 -29 -4 l-30 4 -1 -976 0 -976 89 0
90 0 4 32 4 33 1 -33 2 -34 302 4 302 3 1 78 c0 62 -3 77 -15 77 -12 1 -11 3
3 11 9 5 17 17 17 24 0 12 -18 15 -90 15 -79 0 -90 -2 -90 -17 -1 -17 -1 -17
-14 0 -7 9 -18 17 -25 17 -6 0 -11 5 -11 10 0 6 7 10 15 10 12 0 15 17 15 89
l0 89 -51 0 c-28 1 -54 3 -57 6 -3 3 6 6 21 6 14 0 31 8 36 18 10 16 10 16 11
0 0 -11 7 -16 20 -15 18 1 20 8 20 89 l0 88 -42 2 c-24 0 -47 2 -53 3 -5 2
-23 3 -39 4 -16 0 -26 4 -22 8 8 8 333 6 347 -3 5 -3 9 1 9 8 0 9 3 9 8 2 4
-6 14 -14 22 -17 12 -4 11 -6 -2 -6 -16 -1 -18 -12 -18 -77 l0 -76 100 4 c96
4 100 4 101 -16 0 -12 3 -15 6 -8 2 6 10 9 16 5 6 -4 27 -10 47 -14 32 -6 31
-7 -17 -8 l-53 -1 0 -90 0 -90 55 0 c30 0 55 -4 55 -10 0 -5 -25 -10 -55 -10
l-55 0 0 -85 c0 -50 -4 -85 -10 -85 -6 0 -10 35 -10 85 0 78 -2 85 -20 85 -16
0 -20 -8 -23 -57 l-3 -58 -2 58 -2 57 -65 0 -65 0 0 -105 0 -105 65 3 64 2 4
45 3 45 2 -47 2 -48 330 0 329 0 0 270 1 270 -23 -5 c-17 -5 -31 3 -57 30 -33
35 -35 35 -117 35 -102 0 -110 14 -10 18 39 2 101 5 137 7 36 3 155 6 265 8
l200 2 3 468 c1 333 5 467 13 467 7 0 9 11 7 25 -6 29 -3 32 42 40 55 10 66
26 31 45 -14 7 -27 7 -46 -2 -35 -16 -42 -4 -44 78 -1 46 2 64 11 64 9 0 9 3
-1 9 -12 8 -16 47 -19 185 l-5 176 -298 0 -298 0 -5 -32 c-3 -18 -7 -44 -9
-58 -3 -14 -5 -4 -6 23 l-1 47 -85 0 -85 0 -1 -27 c0 -16 -1 -49 -2 -76 l-2
-47 80 1 c44 1 73 3 64 6 -17 4 -33 73 -17 73 4 0 8 -13 8 -30 0 -20 5 -30 15
-30 8 0 15 -9 15 -20 0 -11 -4 -20 -10 -20 -5 0 -10 -7 -10 -15 0 -8 -5 -15
-11 -15 -6 0 -9 7 -5 15 4 12 -6 15 -62 15 -61 0 -68 -2 -68 -20 0 -18 7 -20
68 -20 37 0 68 -4 68 -8 0 -4 -30 -8 -67 -7 -64 0 -68 -1 -67 -22 1 -13 -3
-23 -7 -23 -5 0 -9 23 -9 50 l0 50 -50 0 c-43 0 -50 -3 -50 -20 0 -17 7 -20
47 -20 25 0 43 -3 39 -7 -4 -4 -24 -6 -46 -4 -35 2 -39 0 -43 -26 l-4 -28 -2
29 c-1 26 -4 28 -31 24 -16 -3 -30 -1 -30 4 0 4 14 8 31 8 16 0 28 4 25 9 -3
4 -17 6 -31 3 -14 -2 -25 0 -25 6 0 6 15 13 33 15 31 4 31 4 -5 5 l-38 2 0
-50 c0 -27 -4 -50 -10 -50 -5 0 -10 10 -10 23 0 20 -5 23 -46 24 -65 3 -69 13
-6 13 44 0 52 3 52 19 0 14 -12 20 -52 28 l-53 10 53 2 52 1 0 85 0 85 -92 -2
-93 -2 90 -6 c88 -6 55 -14 -42 -10 l-43 2 0 -138 c0 -75 -2 -135 -5 -133 -2
3 -5 65 -6 137 l-2 132 -46 2 -46 1 50 7 c45 6 46 7 15 10 -19 1 -39 2 -44 1
-5 -1 -77 -3 -160 -3 -136 -2 -142 -2 -61 -8 l90 -6 -89 -2 c-66 -2 -87 -5
-83 -14 2 -7 1 -22 -4 -33 -6 -15 -8 -9 -8 22 l-1 42 -105 3 c-58 2 -106 1
-106 -2z m168 -16 c-3 -3 -12 -4 -19 -1 -8 3 -5 6 6 6 11 1 17 -2 13 -5z
m1250 -206 c-1 -40 -3 -8 -3 72 0 80 2 112 3 73 2 -40 2 -106 0 -145z m363
204 c0 -4 -18 -6 -40 -4 -22 2 -40 6 -40 8 0 2 18 4 40 4 22 0 40 -3 40 -8z
m-54 -60 c-4 -3 -12 0 -19 8 -10 10 -9 11 2 5 11 -6 13 -4 8 7 -3 9 -3 19 1
23 4 4 8 -3 10 -15 2 -12 1 -24 -2 -28z m-1730 -28 c-11 -29 5 -74 28 -75 20
-2 20 -2 -1 -6 -13 -2 -23 -11 -23 -19 0 -8 -4 -14 -10 -14 -5 0 -10 5 -10 11
0 7 -8 18 -17 26 -17 14 -17 14 0 9 15 -5 17 2 17 57 1 48 3 58 11 44 6 -10 8
-25 5 -33z m174 5 c0 -5 -4 -9 -10 -9 -5 0 -10 7 -10 16 0 8 5 12 10 9 6 -3
10 -10 10 -16z m-257 -2 c-2 -4 -5 -7 -8 -7 -3 0 -12 0 -21 0 -8 0 -13 4 -10
9 7 10 42 8 39 -2z m337 1 c0 -4 -7 -8 -16 -8 -8 0 -13 -4 -9 -9 3 -5 1 -12
-5 -16 -6 -3 -10 4 -10 17 0 17 6 24 20 24 11 0 20 -4 20 -8z m420 2 c0 -5 -4
-10 -10 -10 -5 0 -10 5 -10 10 0 6 5 10 10 10 6 0 10 -4 10 -10z m30 0 c0 -5
-4 -10 -10 -10 -5 0 -10 5 -10 10 0 6 5 10 10 10 6 0 10 -4 10 -10z m60 6 c0
-3 -4 -8 -10 -11 -5 -3 -10 -1 -10 4 0 6 5 11 10 11 6 0 10 -2 10 -4z m300
-31 c0 -19 -4 -35 -8 -35 -4 0 -6 16 -4 35 2 19 6 35 8 35 2 0 4 -16 4 -35z
m-1006 10 c3 -8 1 -15 -4 -15 -6 0 -10 7 -10 15 0 8 2 15 4 15 2 0 6 -7 10
-15z m646 -15 c0 -5 -4 -10 -10 -10 -5 0 -10 5 -10 10 0 6 5 10 10 10 6 0 10
-4 10 -10z m-600 -30 c-21 -7 -22 -8 -5 -9 18 -1 18 -3 4 -14 -9 -7 -18 -19
-22 -27 -3 -8 -6 -1 -6 16 -1 36 5 44 33 43 18 -1 18 -2 -4 -9z m166 -10 c21
1 55 -3 74 -8 31 -9 26 -10 -45 -12 -44 -1 -72 -4 -62 -7 20 -5 23 -23 3 -23
-9 0 -13 -9 -12 -25 2 -13 -1 -22 -5 -19 -5 3 -9 20 -9 39 0 27 -4 34 -22 38
l-23 4 23 8 c12 4 22 12 22 19 0 7 3 6 9 -2 4 -7 25 -13 47 -12z m-356 -10 c0
-5 -15 -9 -32 -9 l-33 1 30 8 c17 4 31 8 33 9 1 0 2 -3 2 -9z m-20 -24 c0 -3
-4 -8 -10 -11 -5 -3 -10 -1 -10 4 0 6 5 11 10 11 6 0 10 -2 10 -4z m150 -8 c0
-4 -7 -8 -15 -8 -8 0 -15 4 -15 8 0 5 7 9 15 9 8 0 15 -4 15 -9z m156 5 c-10
-11 -36 -12 -36 -2 0 5 10 9 22 9 12 0 18 -3 14 -7z m164 -3 c0 -5 -4 -10 -10
-10 -5 0 -10 5 -10 10 0 6 5 10 10 10 6 0 10 -4 10 -10z m390 0 c0 -5 -7 -7
-15 -4 -8 4 -15 8 -15 10 0 2 7 4 15 4 8 0 15 -4 15 -10z m200 0 c0 -5 -4 -10
-10 -10 -5 0 -10 5 -10 10 0 6 5 10 10 10 6 0 10 -4 10 -10z m30 0 c0 -5 -4
-10 -10 -10 -5 0 -10 5 -10 10 0 6 5 10 10 10 6 0 10 -4 10 -10z m80 0 c0 -5
-4 -10 -10 -10 -5 0 -10 5 -10 10 0 6 5 10 10 10 6 0 10 -4 10 -10z m-640 -40
c0 -22 -4 -40 -10 -40 -5 0 -10 18 -10 40 0 22 5 40 10 40 6 0 10 -18 10 -40z
m-452 15 c-7 -8 -87 -9 -95 -2 -3 4 18 7 47 7 29 0 51 -2 48 -5z m32 -25 c0
-10 -4 -22 -10 -25 -6 -4 -10 7 -10 25 0 18 4 29 10 25 6 -3 10 -15 10 -25z
m120 26 c0 -2 -11 -6 -25 -8 -14 -3 -25 -1 -25 3 0 5 11 9 25 9 14 0 25 -2 25
-4z m205 -1 c-23 -8 -85 -10 -85 -3 0 4 21 8 48 7 26 0 43 -2 37 -4z m35 -10
c0 -8 -2 -15 -4 -15 -2 0 -6 7 -10 15 -3 8 -1 15 4 15 6 0 10 -7 10 -15z m85
5 c3 -5 1 -10 -4 -10 -6 0 -11 5 -11 10 0 6 2 10 4 10 3 0 8 -4 11 -10z m535
-35 c0 -8 -4 -15 -10 -15 -5 0 -10 7 -10 15 0 8 5 15 10 15 6 0 10 -7 10 -15z
m77 -7 c-3 -8 -6 -5 -6 6 -1 11 2 17 5 13 3 -3 4 -12 1 -19z m-767 2 c0 -5 -5
-10 -11 -10 -5 0 -7 5 -4 10 3 6 8 10 11 10 2 0 4 -4 4 -10z m959 -499 c26
-17 6 -34 -40 -35 -37 -1 -44 -4 -47 -23 -3 -17 8 -27 50 -50 48 -25 53 -32
56 -65 5 -57 -24 -80 -96 -76 -46 2 -57 7 -60 21 -3 16 1 18 40 12 31 -4 49
-2 63 9 26 19 12 44 -38 68 -71 35 -86 102 -29 132 30 17 80 20 101 7z m-812
-96 l53 -90 0 93 c0 85 1 92 20 92 19 0 20 -7 20 -126 l0 -125 -27 3 c-22 2
-36 19 -79 91 -29 49 -54 90 -56 92 -2 3 -2 -38 0 -90 l4 -95 -26 0 -26 0 0
126 0 125 32 -3 c29 -3 38 -12 85 -93z m293 80 c0 -11 -12 -15 -50 -15 l-50 0
0 -35 0 -35 50 0 c43 0 50 -3 50 -20 0 -17 -7 -20 -50 -20 l-50 0 0 -34 0 -35
52 -3 c41 -2 54 -7 56 -20 3 -16 -6 -18 -75 -18 l-78 0 0 125 0 125 73 0 c57
0 72 -3 72 -15z m90 -7 c1 -13 9 -57 19 -98 l17 -75 23 98 c21 90 24 97 47 97
28 0 26 4 51 -110 l19 -85 20 95 c18 83 23 95 42 98 12 2 22 0 22 -4 0 -3 -14
-60 -32 -125 -29 -110 -33 -119 -55 -119 -27 0 -26 -3 -50 110 l-19 85 -23
-98 c-22 -95 -24 -98 -49 -95 -24 3 -28 10 -48 91 -39 155 -39 157 -9 157 19
0 25 -5 25 -22z m-820 -778 c0 -5 -4 -10 -10 -10 -5 0 -10 5 -10 10 0 6 5 10
10 10 6 0 10 -4 10 -10z m810 0 c0 -5 -4 -10 -10 -10 -5 0 -10 5 -10 10 0 6 5
10 10 10 6 0 10 -4 10 -10z m165 0 c3 -5 1 -10 -4 -10 -6 0 -11 5 -11 10 0 6
2 10 4 10 3 0 8 -4 11 -10z m35 0 c0 -5 -4 -10 -10 -10 -5 0 -10 5 -10 10 0 6
5 10 10 10 6 0 10 -4 10 -10z m110 -6 c0 -2 -16 -4 -35 -4 -19 0 -35 4 -35 8
0 4 16 6 35 4 19 -2 35 -6 35 -8z m-763 -66 c-2 -13 -4 -5 -4 17 -1 22 1 32 4
23 2 -10 2 -28 0 -40z m306 45 c-7 -2 -21 -2 -30 0 -10 3 -4 5 12 5 17 0 24
-2 18 -5z m34 -22 c-5 -23 -2 -31 11 -34 12 -3 11 -5 -6 -6 -20 -1 -22 3 -20
34 1 19 6 35 11 35 5 0 7 -13 4 -29z m-710 -78 c-2 -16 -4 -3 -4 27 0 30 2 43
4 28 2 -16 2 -40 0 -55z m738 17 c3 -5 1 -10 -4 -10 -6 0 -11 5 -11 10 0 6 2
10 4 10 3 0 8 -4 11 -10z m-398 -22 c-3 -8 -6 -5 -6 6 -1 11 2 17 5 13 3 -3 4
-12 1 -19z m60 -30 c-3 -7 -5 -2 -5 12 0 14 2 19 5 13 2 -7 2 -19 0 -25z
m-392 -28 c3 -5 1 -10 -4 -10 -6 0 -11 5 -11 10 0 6 2 10 4 10 3 0 8 -4 11
-10z m840 -30 c3 -5 1 -10 -4 -10 -6 0 -11 5 -11 10 0 6 2 10 4 10 3 0 8 -4
11 -10z m88 -10 c-3 -13 0 -18 14 -17 10 1 21 6 24 10 3 5 9 2 12 -7 6 -14 -5
-16 -73 -16 -50 0 -80 4 -80 11 0 6 12 9 27 7 17 -2 28 2 29 10 2 17 2 17 28
18 18 1 22 -2 19 -16z m-936 -107 c-2 -21 -4 -6 -4 32 0 39 2 55 4 38 2 -18 2
-50 0 -70z m373 87 c0 -5 -10 -10 -22 -9 -22 0 -22 1 -3 9 11 5 21 9 23 9 1 1
2 -3 2 -9z m530 -50 c0 -25 4 -30 25 -30 18 0 23 4 19 15 -4 9 0 15 10 15 9 0
16 7 16 15 0 8 5 15 10 15 15 0 12 -16 -5 -30 -8 -7 -15 -19 -15 -26 0 -9 -11
-14 -31 -14 -24 0 -30 -4 -25 -15 3 -9 0 -15 -8 -15 -9 0 -13 14 -12 50 1 53
16 71 16 20z m60 21 c0 -6 -9 -9 -20 -8 -11 1 -20 5 -20 9 0 4 9 8 20 8 11 0
20 -4 20 -9z m-593 -48 c-3 -10 -5 -4 -5 12 0 17 2 24 5 18 2 -7 2 -21 0 -30z
m483 6 c0 -10 -4 -19 -10 -19 -5 0 -10 12 -10 26 0 14 4 23 10 19 6 -3 10 -15
10 -26z m17 -11 c-3 -7 -5 -2 -5 12 0 14 2 19 5 13 2 -7 2 -19 0 -25z m3 -30
c0 -4 -9 -8 -20 -8 -11 0 -20 4 -20 8 0 4 9 8 20 8 11 0 20 -4 20 -8z m-860
-28 c0 -5 -4 -10 -10 -10 -5 0 -10 5 -10 10 0 6 5 10 10 10 6 0 10 -4 10 -10z
m1010 0 c0 -5 -4 -10 -10 -10 -5 0 -10 5 -10 10 0 6 5 10 10 10 6 0 10 -4 10
-10z m190 0 c0 -5 -4 -10 -10 -10 -5 0 -10 5 -10 10 0 6 5 10 10 10 6 0 10 -4
10 -10z m60 0 c0 -5 -4 -10 -10 -10 -5 0 -10 5 -10 10 0 6 5 10 10 10 6 0 10
-4 10 -10z m-1273 -72 c-2 -13 -4 -5 -4 17 -1 22 1 32 4 23 2 -10 2 -28 0 -40z
m509 25 c30 2 57 0 60 -4 3 -5 -24 -9 -60 -9 -62 0 -66 1 -65 23 1 17 2 18 6
4 4 -15 13 -17 59 -14z m396 -26 c-4 -17 -6 -18 -14 -3 -5 9 -6 26 -2 39 7 21
7 21 14 2 4 -11 5 -28 2 -38z m-193 6 c0 -25 -1 -25 -8 -8 -5 11 -7 23 -4 28
8 14 13 7 12 -20z m18 -10 c-3 -10 -5 -4 -5 12 0 17 2 24 5 18 2 -7 2 -21 0
-30z m60 0 c-3 -10 -5 -4 -5 12 0 17 2 24 5 18 2 -7 2 -21 0 -30z m61 12 c0
-14 -4 -25 -9 -25 -5 0 -9 11 -9 25 0 14 4 25 9 25 5 0 9 -11 9 -25z m19 -12
c-3 -10 -5 -4 -5 12 0 17 2 24 5 18 2 -7 2 -21 0 -30z m-157 -33 c0 -5 -4 -10
-10 -10 -5 0 -10 5 -10 10 0 6 5 10 10 10 6 0 10 -4 10 -10z m140 6 c0 -3 -4
-8 -10 -11 -5 -3 -10 -1 -10 4 0 6 5 11 10 11 6 0 10 -2 10 -4z m-170 -36 c0
-5 -4 -10 -10 -10 -5 0 -10 5 -10 10 0 6 5 10 10 10 6 0 10 -4 10 -10z m30 6
c0 -3 -4 -8 -10 -11 -5 -3 -10 -1 -10 4 0 6 5 11 10 11 6 0 10 -2 10 -4z m160
-1 c0 -2 -9 -9 -20 -15 -16 -9 -20 -8 -20 5 0 8 9 15 20 15 11 0 20 -2 20 -5z"/>
<path d="M2410 2790 l-196 -5 -2 -120 c-2 -66 1 -131 7 -145 6 -15 10 -19 10
-9 1 9 10 19 20 22 15 3 21 -1 24 -17 4 -20 4 -20 6 2 1 27 21 30 21 2 0 -11
5 -20 11 -20 5 0 8 4 4 9 -3 5 -1 12 5 16 5 3 10 -2 11 -12 0 -16 1 -16 8 2 6
16 9 17 17 5 5 -8 20 -15 34 -16 14 0 24 -5 23 -11 -1 -5 17 -16 40 -23 23 -7
36 -15 29 -17 -6 -3 -10 -9 -6 -14 3 -5 -11 -9 -32 -9 -31 0 -35 -2 -24 -15
10 -12 10 -15 -1 -15 -10 0 -10 -3 -3 -8 6 -4 15 -18 19 -31 6 -21 9 -22 17
-7 5 9 14 14 19 10 5 -3 8 0 7 8 -2 9 12 14 49 16 50 3 52 2 56 -25 4 -27 4
-26 6 5 1 31 0 32 -40 32 -44 0 -46 20 -1 21 24 0 25 1 7 9 -11 5 -14 9 -7 9
6 1 12 11 13 24 0 17 3 14 13 -13 12 -34 13 -34 21 -10 8 25 8 25 12 3 3 -17
11 -23 29 -23 14 0 22 -4 19 -10 -3 -5 -16 -10 -28 -10 -18 0 -19 -2 -7 -10
10 -6 11 -10 3 -10 -7 0 -13 -5 -13 -10 0 -9 -35 -65 -50 -80 -3 -3 -7 -14 -8
-25 -2 -11 -9 -23 -15 -27 -9 -6 -9 -8 1 -8 19 0 14 -20 -5 -21 -10 0 -13 -3
-8 -5 7 -3 10 -36 9 -84 -2 -77 -2 -80 21 -80 20 0 23 6 30 57 11 92 52 210
93 271 7 11 19 6 55 -21 113 -86 270 -95 479 -27 l93 30 28 -32 c34 -40 64
-118 79 -208 11 -63 14 -69 37 -72 36 -4 51 -41 51 -124 0 -57 -4 -77 -21 -98
-11 -14 -29 -26 -38 -26 -14 0 -20 -11 -25 -46 -3 -25 -15 -65 -25 -89 -14
-31 -16 -45 -8 -49 7 -3 6 -5 -3 -5 -8 -1 -26 -17 -39 -36 -13 -19 -43 -53
-67 -75 -48 -44 -55 -76 -33 -149 10 -33 3 -66 -71 -331 -45 -162 -86 -301
-90 -309 -4 -7 -13 60 -20 149 -11 144 -11 166 3 195 l16 33 -38 30 -37 30
-36 -30 c-34 -26 -36 -32 -27 -56 11 -28 3 -269 -10 -319 -10 -36 -176 595
-167 637 3 17 3 30 -1 30 -3 0 -35 -18 -70 -40 -106 -67 -154 -67 -193 2 -27
48 -41 32 -15 -18 15 -29 14 -29 -13 -32 -115 -12 -237 -95 -288 -194 -33 -63
-37 -96 -43 -298 l-6 -205 -19 55 c-11 30 -25 64 -32 75 -21 32 -25 76 -9 92
8 8 15 23 15 32 0 29 -57 161 -74 174 -8 5 -8 9 0 15 31 22 12 81 -23 68 -7
-3 -16 1 -19 8 -9 23 -52 28 -86 11 -18 -8 -39 -13 -49 -10 -17 6 -18 -10 -18
-264 l0 -271 167 -2 167 -2 -165 -3 c-116 -3 -166 -7 -172 -16 -6 -9 -8 -9 -8
1 0 18 -796 17 -803 -1 -4 -9 -6 -9 -6 0 -1 18 -797 19 -804 1 -4 -10 -6 -10
-6 0 -1 9 -27 12 -96 12 l-95 0 0 -195 0 -195 2275 0 2275 0 0 195 0 195 -274
0 c-210 0 -276 -3 -279 -12 -4 -10 -6 -10 -6 0 -1 8 -24 12 -78 13 -49 1 -69
4 -53 8 14 4 49 6 78 4 l52 -3 0 105 c0 75 -3 105 -12 105 -9 0 -9 3 0 12 9 9
12 88 12 295 l0 282 -87 4 -88 3 88 2 87 2 0 400 0 400 -90 0 -90 0 0 -90 0
-90 80 0 c47 0 80 -4 80 -10 0 -6 -33 -10 -80 -10 l-80 0 -2 -197 c-1 -156 -3
-177 -7 -98 l-6 99 -37 4 c-29 3 -38 0 -38 -12 0 -9 -4 -16 -10 -16 -5 0 -7 7
-3 16 5 12 -2 15 -41 13 -25 -2 -46 -6 -46 -11 0 -4 6 -8 14 -8 10 0 12 -7 8
-22 -5 -21 -6 -21 -13 -2 -4 11 -8 -20 -10 -74 l-4 -92 98 0 97 0 0 -192 c0
-105 -2 -189 -5 -186 -3 3 -6 87 -6 187 l1 181 -38 0 c-20 0 -61 -3 -89 -6
l-53 -7 0 -43 c0 -23 -4 -46 -10 -49 -6 -4 -10 10 -10 36 0 40 -1 41 -30 37
-16 -3 -30 -1 -30 3 0 4 15 10 33 12 17 2 -14 5 -70 5 -61 1 -103 6 -103 12 0
6 40 10 100 10 l100 0 0 90 0 89 -35 -1 c-19 -1 -38 2 -42 5 -3 4 2 7 12 7 14
0 15 3 6 14 -7 8 -8 17 -4 19 5 3 9 42 8 86 0 45 4 81 8 81 5 0 7 -38 5 -85
-3 -82 -2 -85 20 -85 21 0 22 3 22 90 l0 90 -34 0 c-19 0 -38 5 -41 10 -4 6
10 10 34 10 l41 0 0 90 0 90 -52 1 c-44 1 -48 2 -26 9 16 5 39 7 53 5 l25 -2
0 88 0 89 -50 0 c-27 0 -50 5 -50 10 0 6 23 10 50 10 l50 0 0 90 0 90 -57 0
c-100 0 -47 13 67 16 64 2 112 -1 115 -6 4 -6 -16 -10 -49 -10 l-55 0 -3 -90
-3 -90 86 0 86 0 7 92 c3 50 6 133 6 185 l0 93 -500 0 -500 0 -1 -117 c-2 -97
-3 -108 -9 -63 -4 30 -5 83 -2 117 l5 62 -94 3 c-52 2 -182 1 -289 -2z m785
-178 c-3 -4 -9 -1 -13 5 -4 6 -21 13 -37 16 l-30 4 33 2 32 1 1 73 2 72 9 -84
c5 -45 6 -86 3 -89z m159 160 c2 -4 -11 -6 -30 -4 -19 2 -34 6 -34 8 0 8 59 4
64 -4z m36 -2 c0 -5 -5 -10 -11 -10 -5 0 -7 5 -4 10 3 6 8 10 11 10 2 0 4 -4
4 -10z m0 -95 c0 -30 -4 -55 -10 -55 -5 0 -10 25 -10 55 0 30 5 55 10 55 6 0
10 -25 10 -55z m-568 13 c-7 -7 -12 -8 -12 -2 0 6 3 14 7 17 3 4 9 5 12 2 2
-3 -1 -11 -7 -17z m488 0 c0 -4 -17 -8 -37 -7 -26 0 -32 3 -20 8 24 9 57 9 57
-1z m110 2 c0 -5 -4 -10 -10 -10 -5 0 -10 5 -10 10 0 6 5 10 10 10 6 0 10 -4
10 -10z m47 -22 c-3 -7 -5 -2 -5 12 0 14 2 19 5 13 2 -7 2 -19 0 -25z m93 11
c0 -6 -4 -7 -10 -4 -5 3 -10 11 -10 16 0 6 5 7 10 4 6 -3 10 -11 10 -16z
m-818 -21 c-7 -7 -12 -8 -12 -2 0 6 3 14 7 17 3 4 9 5 12 2 2 -3 -1 -11 -7
-17z m-27 2 c-3 -6 4 -14 17 -19 19 -8 15 -10 -22 -9 -37 0 -41 1 -20 8 14 4
21 8 17 9 -8 1 0 21 9 21 3 0 2 -5 -1 -10z m705 0 c0 -5 -4 -10 -10 -10 -5 0
-10 5 -10 10 0 6 5 10 10 10 6 0 10 -4 10 -10z m-152 -27 c-10 -2 -28 -2 -40
0 -13 2 -5 4 17 4 22 1 32 -1 23 -4z m85 0 c-7 -2 -19 -2 -25 0 -7 3 -2 5 12
5 14 0 19 -2 13 -5z m-743 -23 c0 -5 -4 -10 -10 -10 -5 0 -10 5 -10 10 0 6 5
10 10 10 6 0 10 -4 10 -10z m140 0 c0 -5 -20 -10 -45 -10 -25 0 -45 5 -45 10
0 6 20 10 45 10 25 0 45 -4 45 -10z m568 3 c-16 -2 -40 -2 -55 0 -16 2 -3 4
27 4 30 0 43 -2 28 -4z m-578 -33 c0 -11 -69 -10 -76 2 -3 4 13 8 35 8 23 0
41 -4 41 -10z m790 0 c0 -5 -4 -10 -10 -10 -5 0 -10 5 -10 10 0 6 5 10 10 10
6 0 10 -4 10 -10z m30 0 c0 -5 -4 -10 -10 -10 -5 0 -10 5 -10 10 0 6 5 10 10
10 6 0 10 -4 10 -10z m110 6 c0 -2 -9 -6 -20 -9 -11 -3 -20 -1 -20 4 0 5 9 9
20 9 11 0 20 -2 20 -4z m64 -4 c-5 -4 -11 -24 -12 -44 -3 -36 -1 -38 30 -40
l33 -1 -33 -4 c-21 -3 -32 -9 -29 -16 2 -7 1 -21 -4 -32 -5 -12 -8 11 -8 63
-1 72 1 82 17 82 10 0 13 -3 6 -8z m-1006 -29 c-10 -2 -28 -2 -40 0 -13 2 -5
4 17 4 22 1 32 -1 23 -4z m752 3 c0 -3 -4 -8 -10 -11 -5 -3 -10 -1 -10 4 0 6
5 11 10 11 6 0 10 -2 10 -4z m80 -6 c0 -5 -2 -10 -4 -10 -3 0 -8 5 -11 10 -3
6 -1 10 4 10 6 0 11 -4 11 -10z m205 0 c3 -6 -1 -7 -9 -4 -18 7 -21 14 -7 14
6 0 13 -4 16 -10z m-295 -40 c0 -14 -6 -20 -22 -19 -17 1 -19 2 -5 6 9 2 17
11 17 19 0 8 2 14 5 14 3 0 5 -9 5 -20z m218 -17 c-10 -2 -28 -2 -40 0 -13 2
-5 4 17 4 22 1 32 -1 23 -4z m-213 -23 c3 -5 1 -10 -4 -10 -6 0 -11 5 -11 10
0 6 2 10 4 10 3 0 8 -4 11 -10z m85 0 c0 -5 -5 -10 -11 -10 -5 0 -7 5 -4 10 3
6 8 10 11 10 2 0 4 -4 4 -10z m-883 -7 c-11 -3 -16 -11 -13 -19 3 -8 1 -14 -4
-14 -6 0 -10 7 -10 15 0 8 -4 15 -10 15 -5 0 -7 -7 -4 -15 4 -8 1 -15 -5 -15
-6 0 -11 9 -11 20 0 17 6 20 38 19 20 -1 29 -3 19 -6z m883 -99 c0 -15 -4 -23
-11 -19 -6 4 -8 13 -5 20 3 8 0 16 -7 19 -7 2 -4 5 6 5 12 1 17 -7 17 -25z
m30 16 c0 -5 -4 -10 -10 -10 -5 0 -10 5 -10 10 0 6 5 10 10 10 6 0 10 -4 10
-10z m-60 -80 c0 -5 -5 -10 -11 -10 -5 0 -7 5 -4 10 3 6 8 10 11 10 2 0 4 -4
4 -10z m-26 -15 c3 -8 1 -15 -4 -15 -6 0 -10 7 -10 15 0 8 2 15 4 15 2 0 6 -7
10 -15z m86 -101 c0 -2 -19 -4 -42 -3 -31 0 -37 3 -24 8 18 7 66 3 66 -5z
m360 6 c0 -5 -2 -10 -4 -10 -3 0 -8 5 -11 10 -3 6 -1 10 4 10 6 0 11 -4 11
-10z m-37 -7 c-7 -2 -19 -2 -25 0 -7 3 -2 5 12 5 14 0 19 -2 13 -5z m-340 -80
c-13 -2 -33 -2 -45 0 -13 2 -3 4 22 4 25 0 35 -2 23 -4z m367 -3 c12 -7 10 -9
-8 -7 -12 0 -22 5 -22 9 0 11 12 10 30 -2z m-357 -27 c-7 -2 -21 -2 -30 0 -10
3 -4 5 12 5 17 0 24 -2 18 -5z m337 -13 c0 -11 -2 -20 -4 -20 -2 0 -6 9 -9 20
-3 11 -1 20 4 20 5 0 9 -9 9 -20z m-22 -97 c-16 -2 -40 -2 -55 0 -16 2 -3 4
27 4 30 0 43 -2 28 -4z m22 -23 c0 -5 -5 -10 -11 -10 -5 0 -7 5 -4 10 3 6 8
10 11 10 2 0 4 -4 4 -10z m-330 -60 c0 -5 -4 -10 -10 -10 -5 0 -10 5 -10 10 0
6 5 10 10 10 6 0 10 -4 10 -10z m250 6 c0 -3 -4 -8 -10 -11 -5 -3 -10 -1 -10
4 0 6 5 11 10 11 6 0 10 -2 10 -4z m30 -6 c0 -5 -4 -10 -10 -10 -5 0 -10 5
-10 10 0 6 5 10 10 10 6 0 10 -4 10 -10z m-280 -24 c0 -3 -4 -8 -10 -11 -5 -3
-10 -1 -10 4 0 6 5 11 10 11 6 0 10 -2 10 -4z m183 -63 c-7 -2 -21 -2 -30 0
-10 3 -4 5 12 5 17 0 24 -2 18 -5z m-214 -77 c-2 -43 0 -51 14 -48 9 2 17 -2
17 -8 0 -5 -11 -10 -25 -10 -23 0 -24 3 -22 55 l3 55 -38 0 c-21 0 -38 3 -38
8 0 4 21 6 46 4 l45 -4 -2 -52z m221 48 c0 -2 -9 -4 -20 -4 -11 0 -20 4 -20 9
0 5 9 7 20 4 11 -3 20 -7 20 -9z m-292 -21 c-14 -3 -18 -15 -18 -45 0 -32 3
-39 15 -34 8 3 15 1 15 -4 0 -6 -9 -10 -19 -10 -22 0 -28 19 -23 68 3 25 9 32
26 31 16 -1 17 -2 4 -6z m42 -3 c0 -5 -2 -10 -4 -10 -3 0 -8 5 -11 10 -3 6 -1
10 4 10 6 0 11 -4 11 -10z m60 0 c0 -5 -4 -10 -10 -10 -5 0 -10 5 -10 10 0 6
5 10 10 10 6 0 10 -4 10 -10z m47 -42 c-2 -13 -4 -5 -4 17 -1 22 1 32 4 23 2
-10 2 -28 0 -40z m46 45 c-7 -2 -19 -2 -25 0 -7 3 -2 5 12 5 14 0 19 -2 13 -5z
m267 -3 c0 -5 -4 -10 -10 -10 -5 0 -10 5 -10 10 0 6 5 10 10 10 6 0 10 -4 10
-10z m-30 -15 c0 -8 -7 -15 -15 -15 -13 0 -14 3 -3 15 16 18 18 18 18 0z
m-398 -37 c-8 -8 -9 -4 -5 13 4 13 8 18 11 10 2 -7 -1 -18 -6 -23z m135 0 c-3
-8 -6 -5 -6 6 -1 11 2 17 5 13 3 -3 4 -12 1 -19z m213 2 c0 -5 -5 -10 -11 -10
-5 0 -7 5 -4 10 3 6 8 10 11 10 2 0 4 -4 4 -10z m-340 -30 c0 -5 -4 -10 -10
-10 -5 0 -10 5 -10 10 0 6 5 10 10 10 6 0 10 -4 10 -10z m140 0 c0 -5 -4 -10
-10 -10 -5 0 -10 5 -10 10 0 6 5 10 10 10 6 0 10 -4 10 -10z m-110 -24 c0 -3
-4 -8 -10 -11 -5 -3 -10 -1 -10 4 0 6 5 11 10 11 6 0 10 -2 10 -4z m303 -33
c-7 -2 -21 -2 -30 0 -10 3 -4 5 12 5 17 0 24 -2 18 -5z m95 0 c-16 -2 -40 -2
-55 0 -16 2 -3 4 27 4 30 0 43 -2 28 -4z m-483 -65 l0 -43 43 2 c23 0 42 -3
42 -8 0 -5 -19 -9 -42 -9 -42 0 -43 -1 -44 -35 l-1 -35 156 -3 156 -3 -167 -2
c-122 -1 -168 -5 -171 -14 -4 -10 -8 -9 -16 2 -6 8 -11 12 -11 8 0 -3 -3 -13
-6 -22 -5 -12 0 -16 20 -16 14 0 26 5 26 12 0 21 12 0 14 -26 2 -14 -1 -26 -5
-26 -5 0 -9 7 -9 15 0 10 -8 14 -22 11 -13 -2 -22 -9 -20 -15 1 -6 -2 -11 -7
-11 -6 0 -12 19 -14 43 l-4 42 -1 -47 c-2 -48 -21 -68 -23 -25 -1 16 -2 18 -6
5 -6 -24 -35 -23 -50 1 -10 15 -10 21 0 24 7 3 3 6 -8 7 -20 1 -20 1 -1 15 19
14 19 15 -7 15 -36 0 -35 20 1 21 l27 1 -25 8 c-14 4 -18 9 -10 9 12 1 12 3 2
10 -11 7 -11 9 2 14 11 4 16 1 17 -11 1 -16 2 -16 6 1 2 9 13 17 24 17 24 0
25 -20 2 -21 -14 0 -15 -2 -3 -6 8 -3 18 -11 22 -17 4 -6 8 4 8 22 0 28 -3 32
-27 32 -24 1 -26 2 -12 13 9 7 26 28 38 47 l21 35 2 -80 c1 -47 3 -62 5 -37 3
25 9 42 16 41 39 -5 47 1 47 37 0 31 -3 35 -22 32 -18 -2 -23 -9 -23 -30 1
-16 -3 -28 -7 -28 -5 0 -8 16 -6 35 2 33 4 35 38 35 35 0 35 0 35 -42z m205
38 c0 -2 -11 -6 -25 -8 -14 -3 -25 -1 -25 3 0 5 11 9 25 9 14 0 25 -2 25 -4z
m-243 -53 c-3 -10 -5 -4 -5 12 0 17 2 24 5 18 2 -7 2 -21 0 -30z m118 -3 c3
-5 1 -10 -4 -10 -6 0 -11 5 -11 10 0 6 2 10 4 10 3 0 8 -4 11 -10z m35 -30 c0
-5 -4 -10 -10 -10 -5 0 -10 5 -10 10 0 6 5 10 10 10 6 0 10 -4 10 -10z m-60
-30 c0 -5 -5 -10 -11 -10 -5 0 -7 5 -4 10 3 6 8 10 11 10 2 0 4 -4 4 -10z
m170 -104 c0 -2 -9 -6 -20 -9 -11 -3 -20 -1 -20 4 0 5 9 9 20 9 11 0 20 -2 20
-4z m110 -173 c0 -43 -5 -41 -13 5 -4 18 -2 32 3 32 6 0 10 -16 10 -37z
m-1790 -163 c0 -5 -5 -10 -11 -10 -5 0 -7 5 -4 10 3 6 8 10 11 10 2 0 4 -4 4
-10z m1865 0 c3 -5 -1 -10 -9 -10 -9 0 -16 5 -16 10 0 6 4 10 9 10 6 0 13 -4
16 -10z m90 -30 c3 -5 1 -10 -4 -10 -6 0 -11 5 -11 10 0 6 2 10 4 10 3 0 8 -4
11 -10z m-55 -17 c0 -10 -4 -14 -8 -8 -4 6 -11 13 -16 18 -5 4 -2 7 7 7 10 0
17 -8 17 -17z m30 -13 c0 -5 -4 -10 -10 -10 -5 0 -10 5 -10 10 0 6 5 10 10 10
6 0 10 -4 10 -10z m-2070 -140 c0 -5 -4 -10 -10 -10 -5 0 -10 5 -10 10 0 6 5
10 10 10 6 0 10 -4 10 -10z m30 0 c0 -5 -4 -10 -10 -10 -5 0 -10 5 -10 10 0 6
5 10 10 10 6 0 10 -4 10 -10z m30 0 c0 -5 -4 -10 -10 -10 -5 0 -10 5 -10 10 0
6 5 10 10 10 6 0 10 -4 10 -10z m50 0 c0 -5 -9 -10 -20 -10 -11 0 -20 5 -20
10 0 6 9 10 20 10 11 0 20 -4 20 -10z m30 0 c0 -5 -4 -10 -10 -10 -5 0 -10 5
-10 10 0 6 5 10 10 10 6 0 10 -4 10 -10z m30 0 c0 -5 -4 -10 -10 -10 -5 0 -10
5 -10 10 0 6 5 10 10 10 6 0 10 -4 10 -10z m1840 -140 c0 -5 -2 -10 -4 -10 -3
0 -8 5 -11 10 -3 6 -1 10 4 10 6 0 11 -4 11 -10z m60 0 c0 -5 -4 -10 -10 -10
-5 0 -10 5 -10 10 0 6 5 10 10 10 6 0 10 -4 10 -10z m-3727 -190 c3 -11 10
-20 17 -20 7 0 14 9 17 20 10 37 23 20 23 -30 0 -27 -4 -50 -10 -50 -5 0 -10
9 -10 20 0 13 -7 20 -20 20 -13 0 -20 -7 -20 -20 0 -11 -4 -20 -10 -20 -5 0
-10 23 -10 50 0 50 13 67 23 30z m127 10 c0 -5 -7 -10 -15 -10 -21 0 -19 -20
3 -20 16 -1 16 -1 0 -14 -24 -18 -22 -26 6 -26 19 0 26 7 33 37 12 52 36 54
51 5 16 -53 15 -72 -2 -49 -16 20 -32 22 -39 4 -3 -8 -22 -13 -48 -12 l-44 0
-3 48 c-3 46 -3 47 27 47 17 0 31 -4 31 -10z m178 -2 c29 -29 -1 -88 -45 -88
-21 0 -23 4 -23 50 0 48 1 50 28 50 15 0 33 -5 40 -12z m42 -28 c0 -33 3 -40
20 -40 11 0 20 -5 20 -11 0 -6 -12 -9 -27 -7 -26 3 -28 7 -31 51 -2 28 1 47 7
47 6 0 11 -18 11 -40z m70 -10 c0 -27 -4 -50 -10 -50 -5 0 -10 23 -10 50 0 28
5 50 10 50 6 0 10 -22 10 -50z m52 30 c14 -23 26 -26 24 -7 0 6 3 14 9 17 12
6 17 -78 5 -85 -5 -3 -18 7 -29 21 -19 25 -21 25 -21 6 0 -11 -4 -24 -10 -27
-6 -4 -10 13 -10 44 0 54 11 64 32 31z m118 11 c0 -5 -10 -11 -22 -14 -23 -4
-23 -4 2 -15 l25 -11 -22 -7 c-28 -8 -30 -24 -3 -24 11 0 20 -5 20 -11 0 -6
-12 -9 -27 -7 -26 3 -28 7 -31 51 -3 46 -3 47 27 47 17 0 31 -4 31 -9z m82
-18 l17 -28 1 28 c0 15 5 27 10 27 12 0 13 -87 1 -94 -5 -3 -18 9 -30 27 l-21
32 0 -33 c0 -20 -4 -31 -10 -27 -5 3 -10 26 -10 51 0 51 17 58 42 17z m108 17
c0 -5 -7 -10 -15 -10 -21 0 -19 -20 3 -20 16 -1 16 -1 0 -14 -24 -17 -23 -26
3 -26 11 0 17 -4 14 -10 -3 -5 -17 -10 -31 -10 -22 0 -24 4 -24 50 0 47 2 50
25 50 14 0 25 -4 25 -10z m41 -21 l6 -24 8 28 c9 33 27 31 36 -4 l6 -24 8 28
c10 39 28 34 20 -5 -14 -65 -44 -88 -45 -35 -1 20 -2 20 -16 -5 -8 -16 -17
-28 -20 -28 -5 0 -18 33 -28 73 -9 37 15 33 25 -4z m149 21 c0 -5 -8 -10 -17
-11 -15 0 -14 -3 5 -16 38 -26 24 -63 -24 -63 -8 0 -14 5 -14 10 0 6 9 10 20
10 26 0 25 8 -2 29 -13 11 -19 24 -15 34 7 18 47 24 47 7z m40 -205 l0 -25
-510 0 -510 0 0 25 0 25 510 0 510 0 0 -25z m125 -2 c1 -21 -3 -23 -42 -23
-39 0 -43 2 -43 26 0 23 3 25 42 22 35 -3 42 -7 43 -25z m755 2 l0 -25 -355 0
c-338 0 -355 1 -355 18 0 10 3 22 7 25 3 4 163 7 355 7 l348 0 0 -25z m390 0
c0 -23 -4 -25 -45 -25 -41 0 -45 2 -45 25 0 23 4 25 45 25 41 0 45 -2 45 -25z
m460 0 c0 -22 -4 -25 -40 -25 -36 0 -40 3 -40 25 0 23 4 25 40 25 36 0 40 -2
40 -25z m760 0 l0 -25 -355 0 -355 0 0 25 0 25 355 0 355 0 0 -25z m390 0 c0
-23 -4 -25 -45 -25 -41 0 -45 2 -45 25 0 23 4 25 45 25 41 0 45 -2 45 -25z"/>
<path d="M3361 1504 c0 -11 3 -14 6 -6 3 7 2 16 -1 19 -3 4 -6 -2 -5 -13z"/>
<path d="M3415 1450 c-1 -25 3 -30 22 -30 19 0 23 5 23 30 0 24 -4 30 -23 30
-18 0 -22 -6 -22 -30z"/>
<path d="M3362 1380 c0 -14 2 -19 5 -12 2 6 2 18 0 25 -3 6 -5 1 -5 -13z"/>
<path d="M3330 1340 c0 -5 5 -10 10 -10 6 0 10 5 10 10 0 6 -4 10 -10 10 -5 0
-10 -4 -10 -10z"/>
<path d="M480 460 c0 -33 11 -38 30 -15 15 18 6 45 -15 45 -10 0 -15 -10 -15
-30z"/>
<path d="M3810 2608 l0 -188 90 0 90 0 0 184 0 185 -90 3 -90 3 0 -187z m136
-65 c-10 -10 -19 5 -10 18 6 11 8 11 12 0 2 -7 1 -15 -2 -18z m7 -46 c28 -3
26 -4 -10 -5 -38 -2 -41 0 -35 21 5 17 7 18 10 5 2 -10 15 -18 35 -21z m-15
-34 c-10 -2 -28 -2 -40 0 -13 2 -5 4 17 4 22 1 32 -1 23 -4z m5 -30 c-7 -2
-19 -2 -25 0 -7 3 -2 5 12 5 14 0 19 -2 13 -5z"/>
<path d="M4186 2792 l-188 -2 5 -156 c3 -118 8 -158 18 -165 11 -7 11 -9 -3
-9 -11 0 -16 -7 -15 -20 1 -18 8 -20 94 -20 l93 0 1 58 c1 31 3 49 6 40 2 -9
12 -19 21 -21 15 -4 15 -5 0 -6 -31 -2 -20 -20 15 -24 l32 -4 -32 -1 c-26 -2
-33 -6 -33 -22 0 -19 7 -20 90 -20 l90 0 0 41 c0 24 4 38 10 34 6 -3 10 -22
10 -41 l0 -34 75 0 75 0 0 185 0 185 -67 1 c-38 0 -77 1 -88 2 -11 1 -105 1
-209 -1z m209 -182 c3 -5 1 -10 -4 -10 -6 0 -11 5 -11 10 0 6 2 10 4 10 3 0 8
-4 11 -10z m-335 -60 c0 -5 -2 -10 -4 -10 -3 0 -8 5 -11 10 -3 6 -1 10 4 10 6
0 11 -4 11 -10z m40 6 c0 -11 -19 -15 -25 -6 -3 5 1 10 9 10 9 0 16 -2 16 -4z
m73 -46 c3 -11 1 -20 -4 -20 -5 0 -9 9 -9 20 0 11 2 20 4 20 2 0 6 -9 9 -20z
m277 -5 c0 -9 -9 -15 -22 -14 -17 1 -19 2 -5 6 9 2 17 9 17 14 0 5 2 9 5 9 3
0 5 -7 5 -15z m27 -7 c-3 -8 -6 -5 -6 6 -1 11 2 17 5 13 3 -3 4 -12 1 -19z
m-302 -28 c3 -5 1 -10 -4 -10 -6 0 -11 5 -11 10 0 6 2 10 4 10 3 0 8 -4 11
-10z m135 0 c0 -5 -10 -10 -22 -9 -22 0 -22 1 -3 9 11 5 21 9 23 9 1 1 2 -3 2
-9z m60 0 c0 -5 -5 -10 -11 -10 -5 0 -7 5 -4 10 3 6 8 10 11 10 2 0 4 -4 4
-10z m140 -6 c0 -2 -24 -3 -52 -3 -48 2 -49 2 -18 8 33 6 70 3 70 -5z"/>
<path d="M1 2605 l2 -185 94 0 c86 0 93 1 93 20 0 25 -17 26 -23 3 -4 -14 -5
-12 -6 5 -1 13 5 22 14 22 12 0 15 14 15 65 l0 65 -60 0 c-80 0 -78 20 3 22
l62 1 -65 7 -65 7 63 1 62 2 0 75 0 75 -95 0 -96 0 2 -185z m166 113 c-3 -8
-6 -5 -6 6 -1 11 2 17 5 13 3 -3 4 -12 1 -19z m-77 -138 c0 -5 -4 -10 -10 -10
-5 0 -10 5 -10 10 0 6 5 10 10 10 6 0 10 -4 10 -10z m80 -7 c0 -12 -3 -14 -8
-6 -4 6 -20 10 -35 9 -15 -2 -27 1 -27 5 0 5 16 9 35 9 27 0 35 -4 35 -17z
m-31 -79 c2 -2 -27 -3 -65 -3 -55 1 -62 3 -34 9 32 6 89 2 99 -6z m-24 -24 c3
-5 1 -10 -4 -10 -6 0 -11 5 -11 10 0 6 2 10 4 10 3 0 8 -4 11 -10z"/>
<path d="M1235 2780 l30 -8 -27 -1 c-28 -1 -28 -1 -28 -76 l0 -75 34 0 34 0
-1 65 c0 36 3 68 6 72 4 3 7 -26 7 -65 l0 -72 50 0 50 0 0 85 0 85 -92 -1
c-65 -1 -84 -4 -63 -9z m123 -7 c-15 -2 -42 -2 -60 0 -18 2 -6 4 27 4 33 0 48
-2 33 -4z m22 -53 c0 -5 -4 -10 -10 -10 -5 0 -10 5 -10 10 0 6 5 10 10 10 6 0
10 -4 10 -10z m-140 -24 c0 -3 -4 -8 -10 -11 -5 -3 -10 -1 -10 4 0 6 5 11 10
11 6 0 10 -2 10 -4z m136 -31 c-1 -19 -4 -35 -8 -35 -5 0 -8 16 -8 35 0 19 4
35 8 35 5 0 8 -16 8 -35z"/>
<path d="M1448 2783 c29 -2 74 -2 100 0 26 2 2 3 -53 3 -55 0 -76 -1 -47 -3z"/>
<path d="M2220 2479 c0 -5 5 -7 10 -4 6 3 10 8 10 11 0 2 -4 4 -10 4 -5 0 -10
-5 -10 -11z"/>
<path d="M2300 2449 c0 -5 5 -7 10 -4 6 3 10 8 10 11 0 2 -4 4 -10 4 -5 0 -10
-5 -10 -11z"/>
<path d="M2361 2448 c-1 -14 -13 -18 -63 -21 -58 -3 -57 -3 20 -5 79 -2 82 -1
81 21 -1 16 -2 18 -6 5 -2 -10 -8 -18 -13 -18 -5 0 -11 8 -13 18 -4 15 -5 15
-6 0z"/>
<path d="M2440 2449 c0 -5 5 -7 10 -4 6 3 10 8 10 11 0 2 -4 4 -10 4 -5 0 -10
-5 -10 -11z"/>
<path d="M30 2390 c31 -7 18 -15 -17 -11 -8 1 -11 -22 -10 -76 l2 -78 78 0 77
0 0 79 0 78 -45 -5 c-25 -3 -45 -2 -45 3 0 5 28 11 63 13 39 2 25 3 -38 4 -66
0 -88 -2 -65 -7z m77 -102 c-2 -13 -4 -5 -4 17 -1 22 1 32 4 23 2 -10 2 -28 0
-40z m-80 10 c-3 -7 -5 -2 -5 12 0 14 2 19 5 13 2 -7 2 -19 0 -25z m63 2 c0
-5 -4 -10 -10 -10 -5 0 -10 5 -10 10 0 6 5 10 10 10 6 0 10 -4 10 -10z m-37
-57 c-7 -2 -19 -2 -25 0 -7 3 -2 5 12 5 14 0 19 -2 13 -5z"/>
<path d="M2253 2393 c9 -2 23 -2 30 0 6 3 -1 5 -18 5 -16 0 -22 -2 -12 -5z"/>
<path d="M2318 2393 c12 -2 30 -2 40 0 9 3 -1 5 -23 4 -22 0 -30 -2 -17 -4z"/>
<path d="M3655 2391 c48 -6 54 -20 8 -16 -21 1 -23 -3 -25 -44 l-1 -46 -7 50
c-6 46 -7 44 -8 -30 l-2 -80 45 -1 45 -1 1 71 c1 78 7 71 11 -14 3 -54 3 -55
36 -56 l32 -1 0 88 0 89 -92 -2 c-75 -1 -83 -2 -43 -7z m75 -5 c0 -3 -4 -8
-10 -11 -5 -3 -10 -1 -10 4 0 6 5 11 10 11 6 0 10 -2 10 -4z m50 -4 c0 -4 -9
-8 -20 -8 -11 0 -20 4 -20 8 0 4 9 8 20 8 11 0 20 -4 20 -8z m-7 -139 c-7 -2
-19 -2 -25 0 -7 3 -2 5 12 5 14 0 19 -2 13 -5z"/>
<path d="M3810 2312 l0 -89 90 1 90 1 0 87 0 88 -90 0 -90 0 0 -88z m166 71
c-10 -10 -126 -12 -126 -2 0 5 30 9 67 9 36 0 63 -3 59 -7z m-26 -123 c0 -17
-6 -20 -37 -18 -37 1 -37 1 -5 5 19 3 32 10 32 19 0 8 2 14 5 14 3 0 5 -9 5
-20z"/>
<path d="M4002 1905 l-3 -495 188 -3 188 -2 -188 -3 -188 -2 2 -297 c1 -164 6
-308 10 -321 5 -12 5 -22 1 -22 -4 0 -7 -35 -6 -77 l1 -78 34 0 c21 1 33 5 31
13 -1 7 2 12 8 12 5 0 10 -7 10 -15 0 -13 32 -15 230 -15 l230 0 0 400 0 400
-85 0 c-47 0 -85 3 -85 8 0 4 38 6 85 4 l85 -3 0 95 0 95 -72 4 -73 3 73 2 72
2 0 386 c0 339 -2 385 -15 380 -8 -3 -15 -1 -15 4 0 5 8 11 18 13 9 3 -18 5
-60 6 l-78 1 0 -70 c0 -40 -4 -70 -10 -70 -6 0 -10 30 -10 70 l0 70 -88 0 -88
0 -2 -72 c-2 -96 -12 -101 -12 -5 l0 77 -92 0 -93 0 -3 -495z m58 475 c0 -5
-2 -10 -4 -10 -3 0 -8 5 -11 10 -3 6 -1 10 4 10 6 0 11 -4 11 -10z m40 0 c-19
-13 -30 -13 -30 0 0 6 10 10 23 10 18 0 19 -2 7 -10z m50 6 c0 -3 -4 -8 -10
-11 -5 -3 -10 -1 -10 4 0 6 5 11 10 11 6 0 10 -2 10 -4z m110 0 c0 -2 -9 -6
-20 -9 -11 -3 -20 -1 -20 4 0 5 9 9 20 9 11 0 20 -2 20 -4z m110 -16 c0 -11
-4 -20 -8 -20 -4 0 -8 9 -9 20 -1 11 2 20 8 20 5 0 9 -9 9 -20z m60 16 c0 -3
-4 -8 -10 -11 -5 -3 -10 -1 -10 4 0 6 5 11 10 11 6 0 10 -2 10 -4z m24 -43
c-1 -27 -5 -48 -10 -48 -5 0 -15 -4 -21 -8 -9 -5 -13 -3 -13 7 0 9 7 16 15 16
11 0 15 11 15 40 0 22 3 40 8 40 4 0 6 -21 6 -47z m-287 -55 c-2 -13 -4 -5 -4
17 -1 22 1 32 4 23 2 -10 2 -28 0 -40z m310 30 c-3 -8 -6 -5 -6 6 -1 11 2 17
5 13 3 -3 4 -12 1 -19z m-330 6 c-3 -3 -12 -4 -19 -1 -8 3 -5 6 6 6 11 1 17
-2 13 -5z m106 -1 c-7 -2 -19 -2 -25 0 -7 3 -2 5 12 5 14 0 19 -2 13 -5z m117
-23 c0 -5 -4 -10 -10 -10 -5 0 -10 5 -10 10 0 6 5 10 10 10 6 0 10 -4 10 -10z
m-195 -50 c3 -5 1 -10 -4 -10 -6 0 -11 5 -11 10 0 6 2 10 4 10 3 0 8 -4 11
-10z m155 -6 c0 -2 -12 -4 -27 -4 -21 0 -24 3 -14 9 13 8 41 5 41 -5z m-14
-27 c4 -4 -15 -7 -42 -7 -29 0 -44 4 -36 8 15 10 69 9 78 -1z m79 3 c3 -5 1
-10 -4 -10 -6 0 -11 5 -11 10 0 6 2 10 4 10 3 0 8 -4 11 -10z m-115 -36 c0 -2
-9 -4 -21 -4 -11 0 -18 4 -14 10 5 8 35 3 35 -6z m-20 -74 c0 -5 -12 -10 -27
-9 l-28 1 25 8 c14 4 26 8 28 9 1 1 2 -3 2 -9z m140 -90 c0 -5 -4 -10 -10 -10
-5 0 -10 5 -10 10 0 6 5 10 10 10 6 0 10 -4 10 -10z m-32 -415 c-7 -7 -339 -7
-346 0 -3 3 75 5 173 5 98 0 176 -2 173 -5z m32 -5 c0 -5 -4 -10 -10 -10 -5 0
-10 5 -10 10 0 6 5 10 10 10 6 0 10 -4 10 -10z m0 -390 c0 -5 -4 -10 -10 -10
-5 0 -10 5 -10 10 0 6 5 10 10 10 6 0 10 -4 10 -10z m0 -390 c0 -5 -4 -10 -10
-10 -5 0 -10 5 -10 10 0 6 5 10 10 10 6 0 10 -4 10 -10z m-340 -140 c0 -5 -2
-10 -4 -10 -3 0 -8 5 -11 10 -3 6 -1 10 4 10 6 0 11 -4 11 -10z"/>
<path d="M170 2300 c0 -44 4 -80 9 -80 4 0 9 36 9 80 1 44 -3 80 -9 80 -5 0
-9 -36 -9 -80z"/>
<path d="M2392 2350 c0 -14 2 -19 5 -12 2 6 2 18 0 25 -3 6 -5 1 -5 -13z"/>
<path d="M1 1911 l-2 -300 48 -4 48 -3 -47 -2 -48 -2 0 -95 0 -95 95 0 95 0 0
94 0 95 -48 4 -47 3 47 2 47 2 -1 105 c-1 118 -17 144 -20 33 -2 -70 -2 -71
-5 -15 -3 49 -7 57 -23 57 -11 0 -20 -7 -20 -15 0 -8 -4 -15 -8 -15 -4 0 -8 9
-8 20 0 15 7 20 28 20 15 0 28 5 28 11 0 7 -15 9 -40 6 -22 -2 -43 -1 -46 4
-3 5 22 9 55 9 l61 0 0 90 0 90 -72 0 c-40 0 -80 5 -88 10 -10 7 12 10 72 10
l87 0 -1 90 c0 50 -5 90 -9 90 -5 0 -10 -39 -12 -87 l-3 -88 -2 88 -2 87 -79
0 -78 0 -2 -299z m34 279 c3 -5 1 -10 -4 -10 -6 0 -11 5 -11 10 0 6 2 10 4 10
3 0 8 -4 11 -10z m55 0 c0 -5 -4 -10 -10 -10 -5 0 -10 5 -10 10 0 6 5 10 10
10 6 0 10 -4 10 -10z m25 0 c3 -5 1 -10 -4 -10 -6 0 -11 5 -11 10 0 6 2 10 4
10 3 0 8 -4 11 -10z m54 -242 c-1 -29 -3 -45 -6 -35 -3 13 -15 17 -49 17 -25
0 -43 4 -40 9 3 5 24 6 46 4 39 -5 40 -4 40 26 0 17 2 31 5 31 3 0 4 -24 4
-52z m-54 22 c3 -5 1 -10 -4 -10 -6 0 -11 5 -11 10 0 6 2 10 4 10 3 0 8 -4 11
-10z m-32 -7 c-7 -2 -19 -2 -25 0 -7 3 -2 5 12 5 14 0 19 -2 13 -5z m67 -82
c0 -10 -75 -9 -86 2 -4 4 14 7 39 7 26 0 47 -4 47 -9z m17 -28 c-3 -10 -5 -4
-5 12 0 17 2 24 5 18 2 -7 2 -21 0 -30z m-17 3 c0 -8 -48 -12 -66 -5 -13 5 -7
8 24 8 23 1 42 -1 42 -3z"/>
<path d="M3615 2120 l0 -90 88 0 87 0 0 90 0 90 -87 0 -88 0 0 -90z m80 70 c3
-5 1 -10 -4 -10 -6 0 -11 5 -11 10 0 6 2 10 4 10 3 0 8 -4 11 -10z m30 0 c3
-5 1 -10 -4 -10 -6 0 -11 5 -11 10 0 6 2 10 4 10 3 0 8 -4 11 -10z m55 -6 c0
-2 -9 -4 -20 -4 -11 0 -20 4 -20 9 0 5 9 7 20 4 11 -3 20 -7 20 -9z m-63 -51
c-3 -10 -5 -4 -5 12 0 17 2 24 5 18 2 -7 2 -21 0 -30z m-17 -27 c0 -2 -16 -6
-35 -8 -19 -2 -35 0 -35 4 0 4 16 8 35 8 19 0 35 -2 35 -4z m30 0 c0 -3 -4 -8
-10 -11 -5 -3 -10 -1 -10 4 0 6 5 11 10 11 6 0 10 -2 10 -4z m43 -3 c-7 -2
-19 -2 -25 0 -7 3 -2 5 12 5 14 0 19 -2 13 -5z"/>
<path d="M3615 1920 l0 -90 88 0 87 0 0 90 0 90 -87 0 -88 0 0 -90z m22 -2
c-2 -13 -4 -3 -4 22 0 25 2 35 4 23 2 -13 2 -33 0 -45z m88 32 c1 -11 -2 -20
-7 -20 -4 0 -8 12 -8 27 0 30 13 24 15 -7z m-48 14 c-3 -3 -12 -4 -19 -1 -8 3
-5 6 6 6 11 1 17 -2 13 -5z m16 -31 c-7 -2 -21 -2 -30 0 -10 3 -4 5 12 5 17 0
24 -2 18 -5z m32 -23 c3 -5 1 -10 -4 -10 -6 0 -11 5 -11 10 0 6 2 10 4 10 3 0
8 -4 11 -10z m-55 -30 c0 -5 -4 -10 -10 -10 -5 0 -10 5 -10 10 0 6 5 10 10 10
6 0 10 -4 10 -10z m60 0 c0 -5 -4 -10 -10 -10 -5 0 -10 5 -10 10 0 6 5 10 10
10 6 0 10 -4 10 -10z m50 2 c0 -4 -9 -8 -20 -8 -11 0 -20 4 -20 8 0 4 9 8 20
8 11 0 20 -4 20 -8z m-20 -28 c-60 -8 -130 -8 -130 -1 0 4 35 6 78 6 42 -1 66
-3 52 -5z"/>
<path d="M2720 1960 c0 -18 7 -20 85 -20 78 0 85 2 85 20 0 18 -7 20 -85 20
-78 0 -85 -2 -85 -20z"/>
<path d="M3100 1960 c0 -18 7 -20 85 -20 78 0 85 2 85 20 0 18 -7 20 -85 20
-78 0 -85 -2 -85 -20z"/>
<path d="M3560 1810 c0 -5 9 -10 20 -10 11 0 20 5 20 10 0 6 -9 10 -20 10 -11
0 -20 -4 -20 -10z"/>
<path d="M2890 1591 c0 -16 67 -41 109 -41 44 0 104 20 115 39 5 8 -27 11
-108 11 -64 0 -116 -4 -116 -9z"/>
<path d="M2640 1553 c14 -72 26 -86 49 -59 10 11 6 23 -16 55 -15 22 -31 40
-34 41 -4 0 -3 -17 1 -37z"/>
<path d="M2410 1526 c0 -8 6 -21 13 -28 6 -7 14 -22 16 -33 5 -33 21 -56 34
-48 8 5 8 8 -1 11 -7 2 -12 12 -12 22 0 23 -32 89 -42 90 -5 0 -8 -6 -8 -14z"/>
<path d="M0 1000 l0 -400 95 0 95 0 0 400 0 400 -95 0 -95 0 0 -400z"/>
<path d="M822 1108 c2 -90 2 -91 5 -20 2 39 7 72 12 72 4 0 7 -25 6 -55 -2
-55 -2 -55 29 -56 l31 -2 -35 -6 c-53 -9 -24 -18 55 -16 87 3 94 6 30 15 l-50
7 45 1 45 2 0 75 0 75 -87 0 -88 0 2 -92z m125 20 c-3 -7 -5 -2 -5 12 0 14 2
19 5 13 2 -7 2 -19 0 -25z m30 -20 c-2 -13 -4 -5 -4 17 -1 22 1 32 4 23 2 -10
2 -28 0 -40z m-80 -20 c-2 -13 -4 -5 -4 17 -1 22 1 32 4 23 2 -10 2 -28 0 -40z"/>
<path d="M1010 1032 c0 -4 29 -8 65 -7 36 0 65 3 65 8 0 4 -29 7 -65 7 -36 0
-65 -4 -65 -8z"/>
<path d="M1150 1031 c0 -6 9 -9 20 -8 11 1 20 5 20 9 0 4 -9 8 -20 8 -11 0
-20 -4 -20 -9z"/>
<path d="M821 923 l-1 -93 88 0 87 0 1 90 0 90 -79 0 c-66 0 -78 -2 -73 -15 3
-8 1 -15 -4 -15 -5 0 -11 8 -13 18 -3 9 -5 -25 -6 -75z m79 35 c0 -5 -16 -8
-35 -8 -19 0 -35 4 -35 9 0 4 16 8 35 7 19 0 35 -4 35 -8z m30 2 c0 -5 -4 -10
-10 -10 -5 0 -10 5 -10 10 0 6 5 10 10 10 6 0 10 -4 10 -10z m-80 -24 c0 -3
-4 -8 -10 -11 -5 -3 -10 -1 -10 4 0 6 5 11 10 11 6 0 10 -2 10 -4z m52 -63
c-51 -3 -63 -7 -58 -18 3 -8 1 -15 -4 -15 -6 0 -10 9 -10 20 0 18 6 20 68 18
l67 -2 -63 -3z m-27 -23 c3 -5 1 -10 -4 -10 -6 0 -11 5 -11 10 0 6 2 10 4 10
3 0 8 -4 11 -10z"/>
<path d="M1010 920 l0 -90 65 0 65 0 0 90 0 90 -65 0 -65 0 0 -90z m83 63 c-7
-2 -21 -2 -30 0 -10 3 -4 5 12 5 17 0 24 -2 18 -5z m7 -23 c0 -5 -18 -10 -41
-10 -22 0 -38 4 -35 8 7 12 76 14 76 2z m30 0 c0 -5 -4 -10 -10 -10 -5 0 -10
5 -10 10 0 6 5 10 10 10 6 0 10 -4 10 -10z m-30 -70 c0 -11 -4 -20 -9 -20 -5
0 -7 9 -4 20 3 11 7 20 9 20 2 0 4 -9 4 -20z m17 -12 c-3 -7 -5 -2 -5 12 0 14
2 19 5 13 2 -7 2 -19 0 -25z m-17 -28 c0 -5 -12 -10 -27 -9 l-28 1 25 8 c14 4
26 8 28 9 1 1 2 -3 2 -9z m25 0 c3 -5 1 -10 -4 -10 -6 0 -11 5 -11 10 0 6 2
10 4 10 3 0 8 -4 11 -10z"/>
<path d="M1151 920 c-1 -84 0 -90 19 -90 19 0 20 7 20 90 0 82 -2 90 -19 90
-17 0 -19 -8 -20 -90z"/>
<path d="M1603 95 c0 -27 2 -38 4 -22 2 15 8 27 13 27 5 0 11 -12 13 -27 4
-26 4 -26 6 5 1 22 -4 32 -13 32 -8 0 -17 8 -19 18 -3 9 -5 -5 -4 -33z"/>
<path d="M2102 95 c0 -27 2 -43 5 -35 3 8 13 24 22 35 15 18 15 19 -1 7 -14
-12 -17 -10 -21 15 -2 16 -4 6 -5 -22z"/>
<path d="M1720 120 c-4 -25 1 -54 10 -63 4 -5 5 3 3 17 -4 19 -1 26 10 26 9 0
17 -10 19 -22 2 -12 9 -23 16 -24 7 -1 8 0 2 3 -12 6 -13 40 -1 45 5 2 3 9 -5
16 -8 7 -14 8 -14 2 0 -14 -27 -13 -33 3 -4 8 -6 8 -7 -3z"/>
<path d="M1948 117 c-7 -19 6 -60 20 -63 7 -1 8 0 2 3 -12 6 -13 40 -1 45 5 2
3 8 -4 15 -10 9 -14 9 -17 0z"/>
<path d="M2485 120 c-3 -5 0 -7 8 -4 24 9 28 -12 7 -31 -27 -25 -25 -35 8 -34
21 0 23 2 9 7 -15 7 -16 10 -3 27 7 10 12 25 9 32 -6 15 -29 17 -38 3z"/>
<path d="M2547 123 c-11 -11 -8 -43 4 -43 6 0 8 -8 5 -17 -5 -15 -4 -15 9 1 8
11 15 25 15 30 1 6 8 -1 16 -16 17 -32 39 -36 49 -10 6 16 7 16 16 -1 22 -38
59 -3 44 43 -8 24 -33 27 -42 5 -5 -14 -8 -14 -25 2 -19 17 -20 17 -34 -1 -12
-17 -14 -17 -20 -3 -6 17 -25 22 -37 10z m25 -18 c0 -5 -5 -11 -11 -13 -6 -2
-11 4 -11 13 0 9 5 15 11 13 6 -2 11 -8 11 -13z m63 -15 c0 -13 -5 -25 -11
-27 -14 -5 -25 22 -17 42 8 23 28 12 28 -15z m60 0 c0 -13 -5 -25 -11 -27 -14
-5 -25 22 -17 42 8 23 28 12 28 -15z"/>
<path d="M2725 120 c-4 -6 1 -7 11 -3 13 5 16 3 11 -10 -3 -9 -2 -19 4 -22 14
-9 -1 -27 -18 -21 -8 3 -11 1 -8 -4 8 -14 32 -13 37 2 13 39 -18 88 -37 58z"/>
<path d="M2800 125 c-1 -5 -1 -21 0 -34 1 -13 -4 -28 -12 -32 -9 -6 -3 -9 17
-9 17 0 25 4 18 8 -6 4 -13 23 -16 42 -2 19 -5 31 -7 25z"/>
<path d="M2860 125 c-1 -5 -1 -21 0 -34 1 -13 -4 -28 -12 -32 -9 -6 -3 -9 17
-9 17 0 25 4 18 8 -6 4 -13 23 -16 42 -2 19 -5 31 -7 25z"/>
<path d="M2907 123 c-3 -5 -4 -21 -3 -38 1 -23 6 -30 21 -30 11 0 20 6 19 13
-1 6 -2 23 -2 37 -2 23 -25 35 -35 18z m23 -13 c0 -5 -4 -10 -10 -10 -5 0 -10
5 -10 10 0 6 5 10 10 10 6 0 10 -4 10 -10z m2 -35 c0 -5 -5 -11 -11 -13 -6 -2
-11 4 -11 13 0 9 5 15 11 13 6 -2 11 -8 11 -13z"/>
<path d="M2967 123 c-3 -5 -4 -21 -3 -38 1 -23 6 -30 21 -30 11 0 20 6 19 13
-1 6 -2 23 -2 37 -2 23 -25 35 -35 18z m23 -13 c0 -5 -4 -10 -10 -10 -5 0 -10
5 -10 10 0 6 5 10 10 10 6 0 10 -4 10 -10z m2 -35 c0 -5 -5 -11 -11 -13 -6 -2
-11 4 -11 13 0 9 5 15 11 13 6 -2 11 -8 11 -13z"/>
<path d="M1550 93 c0 -10 4 -14 8 -8 4 6 11 13 16 18 5 4 2 7 -7 7 -10 0 -17
-8 -17 -17z"/>
<path d="M1661 83 c-1 -27 3 -33 19 -33 16 0 20 6 19 33 -2 30 -2 30 -6 5 -6
-36 -20 -36 -26 0 -4 25 -4 25 -6 -5z"/>
<path d="M1807 104 c-13 -13 -7 -24 14 -24 11 0 19 5 17 12 -5 14 -22 21 -31
12z"/>
<path d="M1861 78 c2 -28 2 -29 6 -8 3 14 10 28 17 32 7 5 5 8 -6 8 -14 0 -18
-8 -17 -32z"/>
<path d="M1900 93 c0 -10 4 -14 8 -8 4 6 11 13 16 18 5 4 2 7 -7 7 -10 0 -17
-8 -17 -17z"/>
<path d="M1994 95 c-8 -21 2 -45 20 -45 7 0 16 7 20 15 8 21 -3 45 -20 45 -8
0 -17 -7 -20 -15z m31 -15 c0 -7 -6 -15 -12 -17 -8 -3 -13 4 -13 17 0 13 5 20
13 18 6 -3 12 -11 12 -18z"/>
<path d="M2054 95 c-8 -20 2 -45 18 -44 10 0 10 2 1 6 -7 2 -13 13 -13 23 0
10 6 21 13 23 9 4 9 6 -1 6 -7 1 -15 -6 -18 -14z"/>
<path d="M2194 95 c-8 -20 2 -45 18 -44 10 0 10 2 1 6 -7 2 -13 13 -13 23 0
10 6 21 13 23 9 4 9 6 -1 6 -7 1 -15 -6 -18 -14z"/>
<path d="M2244 95 c-8 -21 2 -45 20 -45 7 0 16 7 20 15 8 21 -3 45 -20 45 -8
0 -17 -7 -20 -15z m31 -15 c0 -7 -6 -15 -12 -17 -8 -3 -13 4 -13 17 0 13 5 20
13 18 6 -3 12 -11 12 -18z"/>
<path d="M2301 77 c2 -31 2 -31 6 -4 2 15 8 27 13 27 5 0 11 -12 13 -27 l4
-28 2 28 c0 15 5 27 10 27 5 0 12 -12 14 -27 4 -27 4 -27 6 4 1 29 -1 31 -34
31 -33 0 -35 -2 -34 -31z"/>
<path d="M1562 65 c-11 -12 -10 -15 3 -15 8 0 15 7 15 15 0 18 -2 18 -18 0z"/>
<path d="M1912 65 c-11 -12 -10 -15 3 -15 8 0 15 7 15 15 0 18 -2 18 -18 0z"/>
<path d="M2120 71 c0 -5 5 -13 10 -16 6 -3 10 -2 10 4 0 5 -4 13 -10 16 -5 3
-10 2 -10 -4z"/>
<path d="M1808 58 c5 -5 16 -8 23 -6 8 3 3 7 -10 11 -17 4 -21 3 -13 -5z"/>
</g>
</svg>
