<?xml version="1.0" standalone="no"?>
<!DOCTYPE svg PUBLIC "-//W3C//DTD SVG 20010904//EN"
 "http://www.w3.org/TR/2001/REC-SVG-20010904/DTD/svg10.dtd">
<svg version="1.0" xmlns="http://www.w3.org/2000/svg"
 width="1024.000000pt" height="1024.000000pt" viewBox="0 0 1024.000000 1024.000000"
 preserveAspectRatio="xMidYMid meet">

<g transform="translate(0.000000,1024.000000) scale(0.100000,-0.100000)"
fill="#000000" stroke="none">
<path d="M3767 6163 c-9 -28 -35 -209 -42 -289 l-7 -70 126 -37 c70 -20 137
-37 151 -37 l25 0 0 188 0 187 -108 33 c-59 18 -114 35 -124 38 -10 4 -18 -1
-21 -13z"/>
<path d="M4078 5892 c-2 -134 -6 -183 -17 -196 -13 -15 -88 -16 -982 -14 -533
2 -969 0 -969 -4 0 -5 5 -8 10 -8 6 0 -16 -53 -49 -117 -101 -204 -291 -611
-291 -627 0 -8 3 -17 8 -20 4 -2 331 0 727 6 l720 10 60 24 60 24 -310 -5
c-624 -10 -1180 -9 -1178 1 2 11 290 635 296 640 6 6 1427 34 1755 34 l222 0
0 188 0 189 1027 6 c565 3 1030 3 1033 1 3 -3 7 -88 8 -189 l4 -183 81 -6 c45
-3 431 -8 857 -12 944 -7 1229 -11 1233 -18 1 -3 -70 -150 -158 -326 l-160
-320 -922 0 -923 0 0 -251 0 -250 -232 5 c-128 3 -367 8 -531 12 l-299 5 4
-23 3 -23 285 -6 c157 -3 403 -10 548 -14 l262 -8 0 250 c0 200 3 253 14 262
9 8 79 10 242 6 126 -3 540 -7 920 -10 l691 -5 65 133 c37 72 122 238 191 367
68 129 124 236 123 236 -1 1 -368 7 -816 13 -448 6 -953 14 -1122 17 l-308 7
0 188 0 189 -1089 0 -1090 0 -3 -178z"/>
<path d="M6536 5925 c-3 -8 -18 -21 -33 -27 -33 -15 -126 -69 -133 -78 -3 -4
-12 -10 -20 -13 -38 -14 109 -5 157 10 l53 17 0 47 c0 48 -13 72 -24 44z"/>
<path d="M6441 5775 c-101 -26 -121 -35 -75 -34 41 0 162 33 176 47 16 16 8
15 -101 -13z"/>
<path d="M9080 5734 c-158 -14 -386 -32 -464 -36 -58 -3 -65 -12 -100 -116
l-25 -71 29 -25 c25 -21 138 -56 182 -56 7 0 27 -7 43 -16 17 -9 63 -23 102
-30 121 -22 223 -84 223 -136 0 -4 -57 -128 -126 -275 -140 -298 -159 -341
-151 -350 3 -3 64 112 136 255 109 218 287 554 420 792 17 30 31 61 31 68 0
16 -103 14 -300 -4z m156 -159 c-9 -14 -21 -25 -27 -25 -6 0 -1 14 11 31 26
36 40 31 16 -6z"/>
<path d="M9253 5468 c-164 -291 -317 -586 -397 -768 -40 -89 -44 -103 -34
-136 10 -36 10 -35 192 332 100 203 222 443 270 533 70 129 86 165 75 172 -8
5 -17 9 -20 9 -3 0 -42 -64 -86 -142z"/>
<path d="M4003 4875 c0 -22 2 -30 4 -17 2 12 2 30 0 40 -3 9 -5 -1 -4 -23z"/>
<path d="M6290 4655 l0 -245 89 -98 c49 -53 107 -115 130 -137 46 -44 53 -68
19 -61 -13 3 -115 7 -228 11 -646 18 -1125 36 -1131 43 -4 4 -10 56 -13 117
-5 77 -11 114 -21 124 -13 14 -15 -1 -15 -119 0 -74 4 -140 8 -146 8 -11 1414
-50 1432 -39 6 3 10 -4 10 -17 0 -14 7 -33 15 -44 13 -17 14 9 15 229 l0 247
203 1 c111 1 236 4 277 8 81 6 85 11 66 69 l-7 22 813 1 c447 1 802 5 788 9
-34 11 -2151 12 -2168 1 -10 -6 -32 11 -75 58 -120 131 -197 211 -202 211 -3
0 -5 -110 -5 -245z"/>
<path d="M3945 4863 c-10 -14 -44 -54 -75 -88 -32 -34 -70 -80 -84 -102 l-27
-40 -887 -7 c-488 -3 -1097 -9 -1355 -12 l-467 -7 -6 -24 c-4 -13 -4 -26 -2
-28 2 -3 580 2 1284 10 703 8 1308 15 1344 15 l66 0 -2 -52 c-5 -133 -15 -318
-21 -373 l-6 -60 73 85 c39 47 93 112 118 145 25 33 49 62 52 65 28 25 41 66
35 109 -4 25 -7 124 -6 219 0 94 -3 172 -8 172 -5 0 -17 -12 -26 -27z"/>
<path d="M3992 4690 c0 -14 2 -19 5 -12 2 6 2 18 0 25 -3 6 -5 1 -5 -13z"/>
<path d="M4368 4013 c23 -2 61 -2 85 0 23 2 4 4 -43 4 -47 0 -66 -2 -42 -4z"/>
<path d="M4648 4013 c28 -2 76 -2 105 0 28 2 5 3 -53 3 -58 0 -81 -1 -52 -3z"/>
<path d="M5618 4013 c29 -2 74 -2 100 0 26 2 2 3 -53 3 -55 0 -76 -1 -47 -3z"/>
<path d="M5913 4013 c31 -2 83 -2 115 0 31 2 5 3 -58 3 -63 0 -89 -1 -57 -3z"/>
</g>
</svg>
