<?xml version="1.0" standalone="no"?>
<!DOCTYPE svg PUBLIC "-//W3C//DTD SVG 20010904//EN"
 "http://www.w3.org/TR/2001/REC-SVG-20010904/DTD/svg10.dtd">
<svg version="1.0" xmlns="http://www.w3.org/2000/svg"
 width="1254.000000pt" height="836.000000pt" viewBox="0 0 1254.000000 836.000000"
 preserveAspectRatio="xMidYMid meet">

<g transform="translate(0.000000,836.000000) scale(0.100000,-0.100000)"
fill="#000000" stroke="none">
<path d="M0 4180 l0 -4180 6270 0 6270 0 0 1245 0 1245 -65 0 c-37 0 -65 4
-65 10 0 11 12 13 83 10 l47 -1 0 560 0 561 -35 0 c-19 0 -35 5 -35 10 0 6 16
10 35 10 l35 0 0 185 c0 102 -3 185 -7 185 -5 0 -39 -6 -78 -14 -38 -8 -128
-20 -200 -26 -71 -6 -148 -14 -170 -17 -28 -4 -37 -2 -30 5 6 6 71 18 145 26
227 27 273 34 279 44 3 5 18 12 34 16 l27 6 0 680 0 680 -52 1 -53 2 53 10
c44 8 52 13 52 33 0 12 -6 25 -12 27 -10 4 -10 6 0 6 9 1 12 294 12 1431 l0
1430 -6270 0 -6270 0 0 -4180z m12160 3982 c-12 -21 -62 -89 -111 -151 -126
-159 -216 -318 -259 -456 -13 -41 -30 -68 -30 -48 0 25 55 163 103 258 68 136
121 216 207 310 40 44 79 90 88 103 23 36 25 25 2 -16z m-240 -167 c0 -3 -23
-36 -52 -73 -59 -77 -122 -204 -142 -288 l-14 -59 -1 50 c-1 43 9 70 58 170
66 133 113 205 136 205 8 0 15 -2 15 -5z m-330 -159 c0 -3 -4 -8 -10 -11 -5
-3 -10 -1 -10 4 0 6 5 11 10 11 6 0 10 -2 10 -4z m241 -539 c-10 -9 -11 -8 -5
6 3 10 9 15 12 12 3 -3 0 -11 -7 -18z m-22 -67 c-23 -44 -34 -52 -23 -17 6 20
32 57 40 57 2 0 -6 -18 -17 -40z m-1742 -62 c-3 -7 -5 -2 -5 12 0 14 2 19 5
13 2 -7 2 -19 0 -25z m473 -8 c0 -5 -7 -10 -16 -10 -8 0 -12 5 -9 10 3 6 10
10 16 10 5 0 9 -4 9 -10z m-9877 -164 c7 -18 -17 -52 -43 -59 -29 -7 -36 15
-15 47 19 28 50 34 58 12z m11827 -115 c0 -5 -28 -31 -62 -58 -78 -61 -92 -69
-87 -54 3 9 135 118 147 120 1 1 2 -3 2 -8z m-100 -25 c0 -2 -7 -7 -16 -10 -8
-3 -12 -2 -9 4 6 10 25 14 25 6z m-2240 -76 c-6 -12 -14 -20 -17 -17 -2 3 1
14 8 26 17 26 24 19 9 -9z m-7223 -167 c-2 -37 -3 -9 -3 62 0 72 1 102 3 68 2
-34 2 -93 0 -130z m7234 130 c-5 -10 -17 -27 -26 -38 -16 -19 -16 -19 -4 5 13
27 29 50 36 50 2 0 -1 -8 -6 -17z m28 -29 c-14 -18 -24 -11 -15 11 3 9 11 13
16 10 8 -5 7 -11 -1 -21z m2115 17 c3 -5 -9 -20 -27 -34 -45 -34 -258 -244
-356 -351 -44 -49 -81 -86 -81 -83 0 18 209 263 271 318 40 35 95 85 123 111
53 49 61 54 70 39z m-556 -116 c-6 -14 -13 -23 -16 -21 -7 7 9 46 18 46 5 0 4
-11 -2 -25z m-11111 -41 c-3 -3 -12 -4 -19 -1 -8 3 -5 6 6 6 11 1 17 -2 13 -5z
m11143 -11 c0 -5 -7 -17 -15 -27 -15 -20 -20 -10 -9 18 6 16 24 22 24 9z
m-11260 -28 c0 -8 -7 -15 -15 -15 -8 0 -15 7 -15 15 0 8 7 15 15 15 8 0 15 -7
15 -15z m11418 -77 c-3 -7 -19 -15 -37 -19 -50 -10 -96 -62 -156 -174 -14 -26
-25 -43 -25 -36 0 48 107 206 154 227 39 17 69 18 64 2z m-2548 -148 c0 -5 -7
-10 -15 -10 -8 0 -15 5 -15 10 0 6 7 10 15 10 8 0 15 -4 15 -10z m-8480 -10
c0 -5 -4 -10 -10 -10 -5 0 -10 5 -10 10 0 6 5 10 10 10 6 0 10 -4 10 -10z
m-293 -16 c-3 -3 -12 -4 -19 -1 -8 3 -5 6 6 6 11 1 17 -2 13 -5z m538 -84 c3
-5 2 -10 -4 -10 -5 0 -13 5 -16 10 -3 6 -2 10 4 10 5 0 13 -4 16 -10z m35 -25
c11 -13 10 -14 -4 -9 -9 3 -16 10 -16 15 0 13 6 11 20 -6z m10626 -62 c-11
-11 -19 6 -11 24 8 17 8 17 12 0 3 -10 2 -21 -1 -24z m-10823 0 c-7 -2 -19 -2
-25 0 -7 3 -2 5 12 5 14 0 19 -2 13 -5z m185 -34 c41 -22 72 -43 69 -45 -3 -3
-26 8 -52 25 -26 16 -60 33 -76 36 -16 4 -31 11 -34 16 -12 19 23 7 93 -32z
m332 5 c0 -8 -7 -14 -15 -14 -10 0 -15 10 -15 26 0 22 2 25 15 14 8 -7 15 -19
15 -26z m-230 -70 c0 -8 -4 -12 -10 -9 -5 3 -10 10 -10 16 0 5 5 9 10 9 6 0
10 -7 10 -16z m9690 -15 c0 -5 -4 -9 -10 -9 -5 0 -10 7 -10 16 0 8 5 12 10 9
6 -3 10 -10 10 -16z m-9860 -5 c22 -9 40 -20 40 -25 0 -13 -10 -11 -60 16 -51
28 -40 33 20 9z m9425 -14 c-3 -5 -11 -10 -16 -10 -6 0 -7 5 -4 10 3 6 11 10
16 10 6 0 7 -4 4 -10z m-9805 -60 c0 -5 -7 -10 -16 -10 -8 0 -12 5 -9 10 3 6
10 10 16 10 5 0 9 -4 9 -10z m93 3 c-7 -2 -19 -2 -25 0 -7 3 -2 5 12 5 14 0
19 -2 13 -5z m8696 -7 c26 -31 -18 -63 -47 -34 -9 9 -8 16 5 30 19 22 27 22
42 4z m-8545 -5 c11 -4 15 -10 10 -13 -5 -4 -20 0 -34 8 -26 14 -9 18 24 5z
m2396 -27 c0 -8 -4 -12 -10 -9 -5 3 -10 10 -10 16 0 5 5 9 10 9 6 0 10 -7 10
-16z m-72 -166 c-1 -110 -3 -142 -7 -98 -6 68 -3 260 5 260 2 0 3 -73 2 -162z
m-2741 146 c-3 -3 -12 -4 -19 -1 -8 3 -5 6 6 6 11 1 17 -2 13 -5z m600 -20
c-3 -3 -12 -4 -19 -1 -8 3 -5 6 6 6 11 1 17 -2 13 -5z m-637 -18 c0 -2 -7 -7
-16 -10 -8 -3 -12 -2 -9 4 6 10 25 14 25 6z m627 -12 c-3 -3 -12 -4 -19 -1 -8
3 -5 6 6 6 11 1 17 -2 13 -5z m4043 -78 c0 -3 -4 -8 -10 -11 -5 -3 -10 -1 -10
4 0 6 5 11 10 11 6 0 10 -2 10 -4z m5384 -21 c-4 -8 -12 -15 -20 -15 -8 0 -11
6 -8 15 4 8 12 15 20 15 8 0 11 -6 8 -15z m-9124 -30 c11 -13 10 -14 -4 -9 -9
3 -16 10 -16 15 0 13 6 11 20 -6z m-463 -11 c-3 -3 -12 -4 -19 -1 -8 3 -5 6 6
6 11 1 17 -2 13 -5z m471 -32 c6 -19 -22 -3 -37 20 -14 22 -13 22 10 7 12 -9
25 -21 27 -27z m3731 -29 c1 -7 -3 -13 -9 -13 -5 0 -10 15 -9 33 0 27 2 29 9
12 5 -11 9 -26 9 -32z m1 -113 c0 -44 -3 -80 -7 -80 -5 0 -8 36 -8 80 0 44 3
80 7 80 5 0 8 -36 8 -80z m-1895 -158 c-11 -12 -12 7 -6 108 l6 105 3 -104 c1
-57 0 -106 -3 -109z m6828 67 c-13 -13 -5 -42 9 -33 5 3 3 -7 -6 -24 -18 -34
-44 -48 -52 -28 -8 20 35 96 55 96 3 0 0 -5 -6 -11z m-9426 -15 c-3 -3 -12 -4
-19 -1 -8 3 -5 6 6 6 11 1 17 -2 13 -5z m684 -79 c13 -11 33 -32 44 -45 12
-15 3 -10 -25 13 -25 21 -62 49 -82 62 -21 14 -38 28 -38 31 0 7 69 -35 101
-61z m-551 -45 c0 -5 -4 -10 -10 -10 -5 0 -10 5 -10 10 0 6 5 10 10 10 6 0 10
-4 10 -10z m550 -142 c0 -6 -6 -5 -15 2 -8 7 -15 14 -15 16 0 2 7 1 15 -2 8
-4 15 -11 15 -16z m5545 -13 c95 -18 285 -73 303 -87 9 -8 12 -76 12 -278 0
-252 -1 -269 -20 -293 -18 -22 -20 -41 -20 -149 -1 -88 -3 -118 -11 -105 -14
23 -25 22 -54 -7 -14 -14 -32 -29 -41 -34 -20 -11 -10 -32 16 -32 13 0 17 -5
13 -20 -4 -14 -14 -20 -35 -20 -25 0 -27 2 -18 19 8 15 5 27 -13 54 -12 20
-31 38 -42 41 -36 10 -65 6 -71 -9 -11 -29 -26 -15 -22 22 3 42 -15 55 -38 27
-11 -15 -13 -16 -8 -3 3 10 1 20 -5 24 -7 4 -5 15 7 33 9 14 12 23 6 20 -6 -4
-24 -3 -40 2 -28 8 -28 8 -4 10 23 2 22 3 -8 11 -18 5 -31 13 -28 18 3 4 -8 5
-24 3 -29 -4 -29 -4 -19 29 5 19 7 50 4 70 -6 34 -8 35 -53 38 -26 1 -51 6
-56 12 -6 6 -5 9 4 9 7 0 11 3 8 6 -5 5 -45 -13 -58 -26 -11 -12 -95 -28 -105
-20 -11 9 -70 24 -115 29 -12 1 -13 3 -1 10 22 14 -68 18 -96 4 -13 -7 -29
-10 -36 -7 -7 2 -30 -7 -50 -20 -20 -14 -37 -23 -37 -20 0 2 -9 0 -20 -6 -11
-6 -20 -17 -20 -25 0 -8 -4 -15 -9 -15 -11 0 -35 -56 -28 -67 3 -5 -1 -17 -9
-28 -8 -10 -14 -13 -14 -7 0 7 -9 12 -20 12 -10 0 -23 7 -28 16 -8 15 -12 15
-40 0 -34 -18 -52 -43 -52 -74 0 -11 -7 -25 -16 -33 -16 -13 -16 -16 2 -153 6
-49 22 -76 43 -76 6 0 11 -4 11 -10 0 -5 14 -23 30 -40 17 -17 30 -35 30 -40
0 -6 10 -10 23 -10 16 0 26 -9 34 -31 9 -23 17 -29 30 -25 12 3 24 -3 35 -18
16 -22 16 -24 -6 -45 -20 -19 -27 -20 -52 -11 -23 9 -31 8 -40 -5 -7 -9 -18
-13 -29 -8 -13 4 -16 3 -11 -6 7 -10 4 -10 -11 0 -17 10 -24 8 -44 -12 -13
-13 -23 -27 -22 -31 1 -3 -5 -9 -13 -12 -11 -4 -18 1 -21 14 -4 16 -8 18 -19
9 -11 -9 -14 -6 -14 20 0 18 -4 51 -9 74 -6 23 -13 56 -17 72 l-6 30 -13 -35
c-7 -20 -18 -68 -25 -108 -8 -46 -18 -72 -26 -72 -13 0 -15 8 -34 140 -6 41
-12 76 -14 77 -1 2 -8 -15 -15 -37 -19 -65 -31 -57 -33 22 -1 40 -2 87 -3 103
-5 121 30 317 80 446 107 273 370 524 641 613 142 46 375 60 529 31z m-5745
-5 c0 -5 -7 -7 -15 -4 -8 4 -15 8 -15 10 0 2 7 4 15 4 8 0 15 -4 15 -10z
m6671 -88 c-8 -13 -10 -5 -10 33 1 48 1 49 10 17 6 -21 6 -39 0 -50z m2424 5
c18 -40 8 -65 -31 -69 -33 -4 -46 5 -21 15 7 3 4 6 -7 6 -15 1 -16 4 -6 16 10
12 10 15 -1 15 -9 1 -5 8 10 20 30 26 44 25 56 -3z m-8921 -23 c5 -14 4 -15
-9 -4 -17 14 -19 20 -6 20 5 0 12 -7 15 -16z m8992 6 c14 12 38 4 29 -10 -3
-4 -2 -15 1 -24 7 -18 36 -21 65 -6 22 12 22 12 8 -29 -8 -21 -17 -31 -32 -31
-11 0 -29 -7 -39 -17 -11 -9 -18 -11 -18 -5 0 7 6 12 13 12 7 1 6 5 -5 13 -9
7 -18 24 -20 37 -2 15 -9 24 -17 22 -20 -4 -32 20 -18 36 8 10 12 11 15 3 3
-9 7 -9 18 -1z m-8796 -31 c0 -6 -4 -7 -10 -4 -5 3 -10 11 -10 16 0 6 5 7 10
4 6 -3 10 -11 10 -16z m-244 -4 c12 -9 14 -14 6 -15 -7 0 -20 7 -28 15 -20 19
-4 20 22 0z m9114 11 c0 -3 -4 -8 -10 -11 -5 -3 -10 -1 -10 4 0 6 5 11 10 11
6 0 10 -2 10 -4z m-168 -108 c-7 -7 -12 -8 -12 -2 0 14 12 26 19 19 2 -3 -1
-11 -7 -17z m-77 -28 c-3 -5 -11 -10 -16 -10 -6 0 -7 5 -4 10 3 6 11 10 16 10
6 0 7 -4 4 -10z m-8605 -10 c0 -5 -2 -10 -4 -10 -3 0 -8 5 -11 10 -3 6 -1 10
4 10 6 0 11 -4 11 -10z m5987 -104 c87 -97 163 -238 204 -380 29 -101 39 -344
15 -380 -21 -33 -22 -106 -1 -106 22 0 18 -17 -5 -23 -17 -4 -20 -14 -21 -69
-1 -57 -16 -136 -18 -97 -1 19 -28 33 -36 19 -4 -6 -22 -10 -42 -10 -32 0 -35
2 -30 22 7 26 -17 58 -44 58 -37 0 -49 -27 -48 -106 1 -41 -1 -77 -4 -80 -3
-3 -7 82 -11 188 -8 259 -15 1081 -9 1044 3 -17 25 -53 50 -80z m2568 84 c-4
-12 -2 -20 5 -20 6 0 10 -5 8 -11 -4 -13 -23 -13 -24 1 -1 6 -2 15 -3 21 0 6
-11 8 -23 5 -15 -4 -12 -1 7 9 39 18 37 18 30 -5z m122 4 c-3 -3 -12 -4 -19
-1 -8 3 -5 6 6 6 11 1 17 -2 13 -5z m-7 -59 c-25 -8 -54 -14 -65 -14 -35 1 28
24 71 26 l39 2 -45 -14z m-150 -5 c-20 -13 -33 -13 -25 0 3 6 14 10 23 10 15
0 15 -2 2 -10z m-8778 -32 c7 -7 26 -20 42 -28 32 -16 102 -80 88 -80 -4 0
-17 8 -28 18 -23 21 -96 72 -127 89 -17 10 -18 13 -5 13 9 0 23 -6 30 -12z
m208 -3 c11 -13 10 -14 -4 -9 -9 3 -16 10 -16 15 0 13 6 11 20 -6z m-60 -27
c0 -6 -6 -5 -15 2 -8 7 -15 14 -15 16 0 2 7 1 15 -2 8 -4 15 -11 15 -16z
m8775 13 c-11 -5 -33 -13 -50 -18 -20 -6 -29 -15 -27 -26 2 -10 -4 -17 -13
-17 -9 0 -18 -7 -21 -15 -9 -23 -33 -19 -27 5 3 11 12 20 20 20 7 0 13 8 11
17 -2 12 9 19 47 29 59 14 89 16 60 5z m-8699 -15 c10 -8 16 -17 12 -21 -10
-10 -45 4 -52 20 -7 19 14 19 40 1z m3674 -46 c0 -5 -2 -10 -4 -10 -3 0 -8 5
-11 10 -3 6 -1 10 4 10 6 0 11 -4 11 -10z m3165 0 c-3 -5 -10 -10 -16 -10 -5
0 -9 5 -9 10 0 6 7 10 16 10 8 0 12 -4 9 -10z m-4525 -30 c0 -5 -6 -10 -14
-10 -8 0 -18 5 -21 10 -3 6 3 10 14 10 12 0 21 -4 21 -10z m16 -45 c14 -11 15
-14 4 -15 -26 0 -60 12 -60 21 0 14 34 10 56 -6z m-1456 -60 c11 -13 10 -14
-4 -9 -9 3 -16 10 -16 15 0 13 6 11 20 -6z m-975 -15 c3 -6 -1 -7 -9 -4 -18 7
-21 14 -7 14 6 0 13 -4 16 -10z m3715 -14 c0 -3 -4 -8 -10 -11 -5 -3 -10 -1
-10 4 0 6 5 11 10 11 6 0 10 -2 10 -4z m-2737 -32 c9 -4 17 -10 17 -16 0 -9
-20 0 -50 22 -13 10 -13 11 0 6 8 -3 23 -9 33 -12z m5507 -64 c0 -5 -4 -10
-10 -10 -5 0 -10 5 -10 10 0 6 5 10 10 10 6 0 10 -4 10 -10z m-5515 -10 c3 -5
2 -10 -4 -10 -5 0 -13 5 -16 10 -3 6 -2 10 4 10 5 0 13 -4 16 -10z m-5 -35 c7
-9 8 -15 2 -15 -5 0 -12 7 -16 15 -3 8 -4 15 -2 15 2 0 9 -7 16 -15z m5492
-47 c-7 -7 -12 -8 -12 -2 0 14 12 26 19 19 2 -3 -1 -11 -7 -17z m2371 15 c-7
-2 -19 -2 -25 0 -7 3 -2 5 12 5 14 0 19 -2 13 -5z m-7851 -33 c12 -11 19 -22
16 -26 -6 -5 -48 31 -48 41 0 10 11 5 32 -15z m7868 16 c0 -3 -4 -8 -10 -11
-5 -3 -10 -1 -10 4 0 6 5 11 10 11 6 0 10 -2 10 -4z m30 -16 c0 -5 -4 -10 -10
-10 -5 0 -10 5 -10 10 0 6 5 10 10 10 6 0 10 -4 10 -10z m-2413 -152 c-2 -24
-4 -7 -4 37 0 44 2 63 4 43 2 -21 2 -57 0 -80z m2306 95 c-7 -2 -19 -2 -25 0
-7 3 -2 5 12 5 14 0 19 -2 13 -5z m2254 -19 c-3 -3 -12 -4 -19 -1 -8 3 -5 6 6
6 11 1 17 -2 13 -5z m-2192 -14 c-3 -5 -11 -10 -16 -10 -6 0 -7 5 -4 10 3 6
11 10 16 10 6 0 7 -4 4 -10z m-1811 -25 c-4 -8 -19 -15 -35 -15 -21 0 -27 4
-23 15 4 8 19 15 35 15 21 0 27 -4 23 -15z m-1474 -15 c0 -5 -4 -10 -10 -10
-5 0 -10 5 -10 10 0 6 5 10 10 10 6 0 10 -4 10 -10z m5043 -17 c-7 -2 -19 -2
-25 0 -7 3 -2 5 12 5 14 0 19 -2 13 -5z m37 -24 c0 -5 -15 -9 -32 -9 l-33 1
25 13 c25 14 40 13 40 -5z m-5380 -49 c0 -11 -4 -20 -9 -20 -5 0 -7 9 -4 20 3
11 7 20 9 20 2 0 4 -9 4 -20z m297 14 c-3 -3 -12 -4 -19 -1 -8 3 -5 6 6 6 11
1 17 -2 13 -5z m-3290 -30 c-3 -3 -12 -4 -19 -1 -8 3 -5 6 6 6 11 1 17 -2 13
-5z m-3279 -28 c56 -19 68 -36 25 -36 -32 1 -102 16 -110 24 -10 9 7 38 20 33
6 -2 36 -12 65 -21z m3880 14 c-10 -6 -25 -7 -40 -1 -20 9 -18 10 17 10 31 0
36 -2 23 -9z m2446 -7 c6 -15 8 -15 16 -3 8 13 10 12 10 -2 0 -16 11 -23 33
-19 13 2 7 -22 -9 -34 -10 -6 -18 -25 -18 -41 -1 -16 -7 -29 -14 -29 -7 0 -12
-3 -12 -7 0 -5 0 -25 0 -45 0 -20 3 -33 7 -30 3 4 6 20 5 36 0 23 4 30 24 34
16 3 28 -1 31 -10 7 -19 -6 -31 -16 -14 -16 26 -29 -17 -17 -60 12 -47 31 -53
22 -7 -4 19 -3 28 3 23 9 -11 21 -104 14 -121 -2 -6 -15 -9 -29 -6 -24 4 -25
3 -15 -16 15 -27 14 -32 -4 -32 -17 0 -37 -42 -37 -77 0 -13 -5 -20 -10 -17
-11 7 -9 494 2 494 4 0 11 -8 14 -17z m276 7 c0 -5 -7 -10 -15 -10 -8 0 -15 5
-15 10 0 6 7 10 15 10 8 0 15 -4 15 -10z m-393 -37 c-3 -10 -5 -4 -5 12 0 17
2 24 5 18 2 -7 2 -21 0 -30z m3673 12 c0 -8 -7 -15 -15 -15 -16 0 -20 12 -8
23 11 12 23 8 23 -8z m-50 -20 c0 -8 -4 -15 -10 -15 -5 0 -10 7 -10 15 0 8 5
15 10 15 6 0 10 -7 10 -15z m-1813 -21 c-3 -3 -12 -4 -19 -1 -8 3 -5 6 6 6 11
1 17 -2 13 -5z m1848 -18 c15 -3 -65 0 -83 3 -2 1 -1 5 3 10 3 6 16 6 33 1 15
-5 36 -11 47 -14z m-3708 -18 c-3 -8 -6 -5 -6 6 -1 11 2 17 5 13 3 -3 4 -12 1
-19z m3520 0 c-3 -8 -6 -5 -6 6 -1 11 2 17 5 13 3 -3 4 -12 1 -19z m1107 -18
c-18 -18 -110 -47 -150 -48 -22 0 -79 -14 -129 -31 -99 -34 -113 -37 -73 -16
33 18 168 62 263 86 86 21 103 23 89 9z m-962 -11 c-15 -6 -30 -5 -40 1 -13 7
-8 9 23 9 35 0 37 -1 17 -10z m-5000 -41 l-5 -33 -8 29 c-8 30 -3 50 10 42 4
-3 5 -20 3 -38z m1335 20 c-3 -8 -6 -5 -6 6 -1 11 2 17 5 13 3 -3 4 -12 1 -19z
m114 -203 l6 40 -2 -40 c-2 -22 -6 -50 -10 -62 -5 -17 -3 -23 8 -23 12 0 16
-16 17 -82 1 -46 2 -103 3 -126 2 -34 -2 -46 -16 -54 -10 -5 -22 -7 -25 -3 -8
8 -10 423 -2 515 4 54 6 42 10 -70 3 -85 7 -120 11 -95z m3584 194 c-18 -5
-33 -5 -39 1 -7 7 4 10 30 9 39 -1 39 -1 9 -10z m-2418 -21 c-3 -8 -6 -5 -6 6
-1 11 2 17 5 13 3 -3 4 -12 1 -19z m-3252 -106 c-17 -44 -24 54 -7 103 5 13 8
2 10 -34 2 -29 1 -60 -3 -69z m5678 101 c-7 -2 -21 -2 -30 0 -10 3 -4 5 12 5
17 0 24 -2 18 -5z m-3586 -35 c-3 -7 -5 -2 -5 12 0 14 2 19 5 13 2 -7 2 -19 0
-25z m1160 -20 c-3 -7 -5 -2 -5 12 0 14 2 19 5 13 2 -7 2 -19 0 -25z m-6967
13 c25 -4 -72 -6 -214 -4 -143 2 -262 5 -264 8 -8 8 428 4 478 -4z m5740 -26
c0 -8 -4 -15 -10 -15 -5 0 -10 7 -10 15 0 8 5 15 10 15 6 0 10 -7 10 -15z m67
-7 c-3 -8 -6 -5 -6 6 -1 11 2 17 5 13 3 -3 4 -12 1 -19z m4078 -18 c-3 -5 -10
-10 -16 -10 -5 0 -9 5 -9 10 0 6 7 10 16 10 8 0 12 -4 9 -10z m-9496 -31 c74
-28 100 -44 89 -54 -10 -10 -188 63 -188 77 0 13 13 10 99 -23z m5051 4 c-1
-24 -2 -26 -11 -10 -5 9 -7 22 -4 27 10 17 15 11 15 -17z m295 7 c3 -5 1 -10
-4 -10 -6 0 -11 5 -11 10 0 6 2 10 4 10 3 0 8 -4 11 -10z m4876 -10 l24 -20
-25 -20 c-26 -20 -50 -26 -50 -12 0 14 -51 33 -71 27 -29 -10 -22 3 14 25 41
25 78 25 108 0z m-4610 -17 c12 -15 12 -16 -5 -10 -12 5 -22 3 -27 -5 -4 -7
-11 -9 -15 -5 -7 7 13 37 26 37 4 0 14 -8 21 -17z m49 7 c0 -5 -4 -10 -10 -10
-5 0 -10 5 -10 10 0 6 5 10 10 10 6 0 10 -4 10 -10z m-1750 -10 c0 -5 -4 -10
-9 -10 -6 0 -13 5 -16 10 -3 6 1 10 9 10 9 0 16 -4 16 -10z m2667 -47 c-3 -10
-5 -2 -5 17 0 19 2 27 5 18 2 -10 2 -26 0 -35z m-4067 27 c0 -5 -2 -10 -4 -10
-3 0 -8 5 -11 10 -3 6 -1 10 4 10 6 0 11 -4 11 -10z m2614 -7 c-5 -15 -3 -15
12 2 15 18 16 18 10 2 -4 -14 -2 -18 12 -15 9 2 16 10 15 16 -2 7 10 12 29 12
24 0 39 -8 60 -32 15 -18 23 -34 18 -36 -6 -2 -10 -8 -10 -14 0 -6 7 -8 15 -4
8 3 15 1 15 -4 0 -6 -36 -10 -82 -10 -46 0 -93 -3 -105 -6 -14 -4 -23 -2 -23
5 0 6 10 12 23 12 l22 2 -23 4 c-14 3 -22 10 -19 18 3 7 0 18 -6 24 -8 8 -8
11 1 11 7 0 12 7 12 15 0 8 7 15 15 15 9 0 12 -6 9 -17z m1218 -23 c-2 -16
-10 -30 -18 -30 -7 0 -18 -8 -23 -17 -6 -10 -11 -13 -11 -6 0 6 -3 18 -6 27
-4 12 0 16 15 16 14 0 21 6 21 20 0 11 6 20 13 20 9 0 12 -10 9 -30z m-792 16
c0 -3 -4 -8 -10 -11 -5 -3 -10 -1 -10 4 0 6 5 11 10 11 6 0 10 -2 10 -4z
m-5012 -33 c2 -8 -5 -13 -17 -13 -21 0 -35 13 -24 24 10 10 36 3 41 -11z
m10312 9 c0 -5 -98 -12 -217 -15 -189 -5 -321 -19 -407 -42 -19 -6 -20 -5 -4
8 19 15 117 35 232 47 101 10 396 12 396 2z m320 -11 c-7 -14 -16 -17 -32 -13
-19 5 -20 7 -5 10 9 2 17 8 17 13 0 5 7 9 15 9 12 0 13 -4 5 -19z m-7723 -53
c-2 -13 -4 -5 -4 17 -1 22 1 32 4 23 2 -10 2 -28 0 -40z m1909 5 c-11 -11 -19
6 -11 24 8 17 8 17 12 0 3 -10 2 -21 -1 -24z m-4723 6 c10 -11 16 -23 14 -25
-8 -9 -56 19 -50 29 3 5 -3 6 -15 3 -11 -4 -23 -2 -27 4 -13 21 60 11 78 -11z
m5837 6 c0 -8 -7 -15 -15 -15 -26 0 -18 20 13 29 1 1 2 -6 2 -14z m-45 -16 c0
-8 4 -17 10 -21 5 -4 1 -6 -11 -6 -13 1 -21 10 -22 26 -1 15 3 22 11 19 6 -2
12 -10 12 -18z m-6566 -48 c195 -34 379 -82 474 -125 103 -45 51 -45 -75 1
-273 100 -552 143 -923 143 -142 0 -236 4 -245 11 -10 7 77 9 285 6 283 -4
311 -6 484 -36z m5241 29 c0 -5 -5 -10 -11 -10 -5 0 -7 5 -4 10 3 6 8 10 11
10 2 0 4 -4 4 -10z m40 0 c-13 -9 -13 -11 0 -20 12 -8 11 -10 -7 -10 -12 0
-30 -3 -40 -6 -17 -5 -17 -5 0 9 9 8 17 19 17 26 0 6 10 11 23 11 18 0 19 -2
7 -10z m130 0 c0 -13 -11 -13 -30 0 -12 8 -11 10 8 10 12 0 22 -4 22 -10z m40
0 c0 -5 -7 -10 -15 -10 -8 0 -15 5 -15 10 0 6 7 10 15 10 8 0 15 -4 15 -10z
m45 0 c3 -5 -3 -10 -14 -10 -12 0 -21 5 -21 10 0 6 6 10 14 10 8 0 18 -4 21
-10z m285 0 c0 -5 -7 -10 -15 -10 -8 0 -15 5 -15 10 0 6 7 10 15 10 8 0 15 -4
15 -10z m880 -11 c0 -16 -31 -22 -43 -10 -9 9 -9 14 2 20 16 10 41 4 41 -10z
m1335 10 c10 -15 0 -21 -30 -21 -32 0 -44 10 -25 22 20 13 47 12 55 -1z m1840
-19 c-3 -5 -22 -12 -43 -16 -20 -4 -40 -11 -43 -15 -7 -11 -179 -50 -179 -40
0 3 36 14 80 24 44 10 80 22 80 26 0 5 21 13 48 19 64 13 64 13 57 2z m1143 1
c7 -4 -93 -11 -225 -15 -131 -3 -249 -9 -263 -13 -20 -4 -23 -3 -13 7 8 8 78
14 235 19 122 4 230 8 238 9 8 1 21 -2 28 -7z m-5635 -8 c-7 -2 -19 -2 -25 0
-7 3 -2 5 12 5 14 0 19 -2 13 -5z m157 -4 c0 -11 -98 -10 -125 1 -14 6 4 8 53
8 39 0 72 -4 72 -9z m-223 -23 c-3 -8 -1 -17 6 -20 9 -5 8 -8 -2 -12 -11 -5
-11 -8 0 -16 12 -8 12 -10 0 -15 -11 -5 -11 -7 0 -14 12 -8 11 -11 -1 -19 -8
-5 -10 -10 -4 -10 8 0 9 -11 4 -34 -4 -19 -5 -38 -2 -41 4 -3 0 -10 -8 -15
-13 -8 -12 -10 3 -10 9 0 18 8 18 18 1 15 2 15 6 -1 3 -11 -3 -25 -14 -34 -16
-13 -16 -14 0 -9 23 7 21 -3 -5 -27 -21 -18 -21 -19 -3 -13 19 6 20 2 17 -89
l-4 -95 33 0 c18 0 29 -3 25 -7 -4 -5 -18 -8 -29 -8 -20 0 -22 -5 -22 -50 1
-27 -4 -53 -10 -57 -7 -5 -6 -8 1 -8 8 0 11 -61 10 -205 l-1 -205 23 0 c12 0
22 6 22 15 0 7 8 19 18 24 9 6 12 11 7 11 -12 0 -14 120 -2 120 4 0 7 8 5 17
-2 11 6 19 22 24 20 6 17 7 -20 9 -25 1 -37 4 -28 7 21 5 27 29 17 66 -4 15
-4 27 1 27 5 0 8 17 6 38 -3 20 -5 37 -6 37 -1 0 -3 12 -4 28 -2 15 1 27 7 27
5 0 4 7 -3 15 -10 13 -9 15 9 15 12 0 20 -4 17 -9 -3 -5 1 -12 10 -15 25 -10
32 -7 39 14 4 12 11 17 18 14 7 -4 9 -3 4 1 -4 5 -16 10 -27 12 -14 2 -18 -2
-13 -15 5 -14 3 -14 -9 2 -8 10 -19 16 -24 13 -6 -3 -16 -2 -24 3 -11 7 -11
10 1 22 10 9 31 11 74 7 33 -3 55 -6 48 -7 -6 -1 -10 -9 -9 -18 3 -20 34 -44
49 -38 19 6 40 -13 34 -29 -3 -9 -23 -25 -44 -36 -28 -15 -33 -20 -18 -21 11
-1 14 -4 8 -7 -7 -2 -13 -9 -13 -15 0 -6 7 -8 15 -4 19 7 19 -1 0 -21 -14 -14
-14 -17 2 -29 17 -13 17 -15 -1 -29 -18 -14 -16 -15 30 -16 l49 -2 -40 -7
c-22 -4 -30 -8 -17 -9 34 -2 26 -19 -10 -23 l-33 -4 35 -12 c29 -10 30 -11 7
-8 -15 2 -30 -1 -33 -5 -3 -5 12 -10 33 -10 30 -2 32 -3 11 -6 -16 -2 -28 -8
-28 -13 0 -4 10 -6 23 -3 19 4 18 2 -5 -12 -38 -21 -37 -52 2 -60 16 -4 34 -4
39 -1 5 4 12 2 16 -4 5 -9 -27 -14 -72 -13 -7 1 -11 -3 -8 -7 3 -5 -3 -11 -12
-13 -12 -3 -9 -5 8 -6 16 -1 26 -7 26 -16 0 -9 -6 -14 -12 -11 -8 3 -11 -10
-9 -38 1 -25 -3 -47 -13 -58 -8 -9 -12 -22 -8 -27 3 -6 -2 -11 -11 -11 -16 0
-16 -1 2 -16 19 -15 18 -15 -3 -9 -12 3 -24 1 -28 -5 -3 -5 1 -10 9 -10 19 0
56 -52 56 -78 0 -11 6 -22 14 -25 19 -8 27 -56 30 -174 l2 -103 -98 0 c-80 0
-101 3 -116 18 -20 20 -54 18 -45 -4 3 -8 -1 -14 -8 -14 -54 1 -79 32 -79 100
0 22 -4 40 -9 40 -5 0 -9 -12 -9 -27 1 -50 -2 -64 -12 -58 -5 3 -10 24 -10 46
0 21 -4 39 -9 39 -5 0 -8 12 -5 26 7 37 -12 21 -27 -23 -15 -47 -27 -28 -36
57 l-6 62 59 -3 c58 -3 59 -2 62 25 3 24 1 27 -17 21 -20 -6 -21 -2 -23 62
l-1 68 -6 -65 c-4 -37 -2 -71 4 -80 9 -13 8 -13 -8 -1 -13 11 -18 27 -17 65 1
88 -10 145 -31 151 -11 4 -19 13 -19 22 0 11 6 14 25 9 27 -7 55 10 48 30 -2
6 6 21 17 34 22 25 24 31 13 29 -44 -7 -53 12 -28 61 14 26 14 29 0 24 -8 -4
-15 -1 -15 5 0 6 -5 11 -11 11 -6 0 -8 -9 -4 -21 5 -16 3 -20 -12 -17 -10 2
-17 -2 -15 -9 1 -7 3 -19 5 -25 1 -7 -9 -14 -22 -16 -21 -3 -23 -1 -17 22 4
15 2 26 -4 26 -5 0 -10 -7 -10 -15 0 -8 -9 -15 -20 -15 -12 0 -20 7 -20 17 0
22 -13 8 -15 -16 -1 -15 4 -18 21 -15 13 2 26 -1 29 -7 11 -17 -2 -22 -40 -15
-30 6 -35 11 -30 26 3 11 -2 31 -11 45 -15 23 -15 28 -3 37 10 7 6 8 -17 6
-23 -3 -30 0 -31 14 -2 15 2 16 19 7 14 -7 23 -8 30 -1 6 6 18 8 27 5 13 -4
13 -2 -2 10 -10 8 -30 14 -45 13 -19 -1 -28 3 -29 14 -1 8 -5 28 -9 44 -6 25
-4 28 10 23 9 -4 16 -2 16 4 0 6 4 8 8 5 11 -6 10 79 0 90 -5 4 -8 -9 -8 -29
0 -21 -3 -37 -7 -37 -5 0 -8 19 -7 42 1 34 4 43 17 42 11 -1 17 6 17 18 0 17
5 19 25 14 14 -4 25 -3 24 1 -1 5 -1 10 0 13 9 25 7 116 -2 122 -22 14 -30 8
-14 -10 24 -26 21 -35 -8 -30 -13 3 -22 1 -19 -4 6 -9 -23 -37 -38 -38 -17 0
-7 28 17 50 14 13 25 31 25 41 0 13 8 17 33 15 32 -1 32 0 32 44 0 39 -3 45
-22 48 -24 4 -38 29 -24 46 10 12 3 63 -10 72 -14 8 -11 45 4 43 6 -1 20 -1
31 0 15 1 16 4 6 16 -16 20 -9 26 32 30 52 5 69 10 79 26 8 12 10 12 19 -1 8
-13 10 -12 10 3 0 14 4 16 18 8 12 -7 17 -22 17 -58 0 -26 5 -51 10 -55 7 -5
6 -8 0 -8 -14 0 -6 -73 9 -82 7 -5 4 -8 -7 -8 -10 0 -15 -4 -12 -10 3 -5 17
-9 30 -8 17 2 21 6 14 14 -7 8 -6 14 3 17 7 3 3 6 -9 6 -24 1 -31 25 -12 37 8
4 7 9 -2 15 -10 6 -6 9 13 9 21 0 25 4 21 19 -3 13 -11 18 -21 14 -13 -3 -13
-1 2 11 13 11 20 29 21 56 1 39 0 40 -34 41 l-36 1 40 13 c53 17 58 17 52 1z
m221 -10 c2 -2 4 -24 5 -48 l2 -43 -45 2 -45 2 40 -10 c52 -13 71 -31 30 -29
-46 3 -57 1 -50 -10 3 -5 -2 -11 -12 -11 -17 -1 -17 -2 0 -6 28 -7 19 -18 -15
-18 -26 0 -33 4 -33 20 0 15 6 19 25 18 l25 -3 -25 15 c-23 13 -23 14 -5 16
16 1 16 2 4 6 -24 6 -32 43 -11 44 15 1 15 2 0 6 -30 7 -20 23 15 24 30 2 30
2 5 6 -17 3 -28 11 -28 20 0 13 9 15 57 9 31 -4 59 -8 61 -10z m4373 0 c-15
-18 -136 -63 -236 -87 -92 -22 -95 -22 -95 -10 0 5 18 12 41 16 22 4 98 27
167 51 148 50 138 48 123 30z m-10060 -16 c85 -11 213 -32 284 -46 129 -25
366 -88 395 -105 32 -18 -19 -9 -137 25 -144 41 -268 68 -478 103 -134 22
-195 27 -373 28 -117 1 -215 5 -219 8 -16 17 379 6 528 -13z m5426 -16 c-3 -3
-12 -4 -19 -1 -8 3 -5 6 6 6 11 1 17 -2 13 -5z m732 -20 c12 -10 -11 -13 -53
-8 -28 4 -42 10 -35 15 11 7 78 1 88 -7z m-314 -14 c8 -13 -20 -24 -41 -16
-20 8 -9 26 16 26 10 0 22 -5 25 -10z m-715 -47 c3 -2 -3 -9 -13 -14 -9 -6
-17 -19 -17 -29 0 -11 -4 -20 -10 -20 -5 0 -10 18 -10 41 0 37 2 40 23 33 12
-3 24 -9 27 -11z m-1600 -3 c0 -5 -9 -10 -20 -10 -11 0 -20 5 -20 10 0 6 9 10
20 10 11 0 20 -4 20 -10z m5810 1 c0 -5 -32 -17 -71 -26 -40 -9 -88 -22 -107
-31 -19 -8 -37 -12 -39 -10 -8 8 53 35 124 55 79 23 93 24 93 12z m-8400 -11
c0 -5 -4 -10 -10 -10 -5 0 -10 5 -10 10 0 6 5 10 10 10 6 0 10 -4 10 -10z
m-165 -10 c3 -5 2 -10 -4 -10 -5 0 -13 5 -16 10 -3 6 -2 10 4 10 5 0 13 -4 16
-10z m215 0 c0 -5 7 -7 15 -4 10 4 15 0 15 -13 0 -16 12 -21 68 -31 87 -15
150 -34 135 -39 -20 -7 -164 26 -215 50 -46 21 -64 47 -33 47 8 0 15 -4 15
-10z m1970 -22 c0 -16 -3 -19 -11 -11 -6 6 -8 16 -5 22 11 17 16 13 16 -11z
m2720 1 c0 -5 -6 -9 -13 -9 -8 0 -14 6 -14 14 0 8 6 12 14 9 7 -3 13 -9 13
-14z m3665 11 c-11 -5 -29 -8 -40 -8 -16 0 -15 2 5 8 34 11 60 11 35 0z
m-5815 -10 c0 -5 -12 -10 -27 -9 -25 0 -26 1 -8 9 27 12 35 12 35 0z m5747 -6
c-3 -3 -12 -4 -19 -1 -8 3 -5 6 6 6 11 1 17 -2 13 -5z m-40 -10 c-3 -3 -12 -4
-19 -1 -8 3 -5 6 6 6 11 1 17 -2 13 -5z m-8242 -14 c13 -5 14 -9 5 -9 -8 0
-24 4 -35 9 -13 5 -14 9 -5 9 8 0 24 -4 35 -9z m-238 -6 c-3 -3 -12 -4 -19 -1
-8 3 -5 6 6 6 11 1 17 -2 13 -5z m4918 -4 c13 -5 -2 -7 -42 -5 -45 2 -60 -1
-57 -10 3 -8 21 -10 53 -7 27 2 51 0 55 -6 4 -6 -21 -10 -67 -11 -41 0 -66 3
-59 8 7 4 12 12 11 17 -1 5 -1 12 0 17 1 9 81 8 106 -3z m-4765 -10 c18 -12 2
-12 -25 0 -13 6 -15 9 -5 9 8 0 22 -4 30 -9z m120 -20 c0 -12 -24 -12 -60 0
-21 7 -19 8 18 9 23 1 42 -3 42 -9z m4780 -10 c0 -5 -7 -10 -15 -10 -8 0 -15
5 -15 10 0 6 7 10 15 10 8 0 15 -4 15 -10z m110 0 c0 -5 -9 -10 -21 -10 -11 0
-17 5 -14 10 3 6 13 10 21 10 8 0 14 -4 14 -10z m-165 -10 c-28 -12 -45 -12
-45 0 0 6 15 10 33 9 27 0 29 -2 12 -9z m-105 -10 c0 -5 -20 -10 -45 -10 -25
0 -45 5 -45 10 0 6 20 10 45 10 25 0 45 -4 45 -10z m-69 -27 c-11 -5 -11 -7 0
-14 11 -7 10 -9 -3 -9 -10 0 -18 7 -18 15 0 8 8 15 18 14 12 0 13 -2 3 -6z
m59 -8 c0 -8 -4 -15 -10 -15 -5 0 -10 7 -10 15 0 8 5 15 10 15 6 0 10 -7 10
-15z m5278 -2 c-10 -2 -26 -2 -35 0 -10 3 -2 5 17 5 19 0 27 -2 18 -5z m-243
-18 c-17 -7 -419 -55 -445 -54 -31 2 43 14 225 38 126 17 246 25 220 16z
m-10617 -35 c205 -32 260 -43 157 -34 -123 12 -438 62 -397 63 24 0 132 -13
240 -29z m5524 18 c-9 -9 -15 -9 -24 0 -9 9 -7 12 12 12 19 0 21 -3 12 -12z
m98 2 c0 -7 -8 -9 -22 -4 -21 6 -21 5 -9 -10 13 -15 13 -19 0 -27 -10 -6 -7
-9 14 -9 15 0 27 -4 27 -10 0 -5 -7 -10 -15 -10 -21 0 -19 -18 3 -23 9 -3 1
-6 -18 -7 -29 -1 -32 -3 -15 -10 16 -7 17 -9 3 -9 -9 -1 -20 4 -23 9 -3 6 -19
10 -35 10 -16 0 -32 4 -35 10 -4 6 12 9 40 7 25 -1 45 1 45 5 0 4 -18 8 -40 8
-38 0 -54 13 -27 23 7 3 4 6 -6 6 -33 2 -6 21 29 21 19 0 34 4 34 10 0 5 -7 7
-15 4 -8 -4 -15 -2 -15 3 0 5 18 10 40 11 24 2 40 -2 40 -8z m-2205 -40 c3 -5
1 -10 -4 -10 -6 0 -11 5 -11 10 0 6 2 10 4 10 3 0 8 -4 11 -10z m1165 -16 c0
-8 -5 -12 -10 -9 -6 4 -8 11 -5 16 9 14 15 11 15 -7z m5548 9 c-10 -2 -28 -2
-40 0 -13 2 -5 4 17 4 22 1 32 -1 23 -4z m-75 -10 c-7 -2 -19 -2 -25 0 -7 3
-2 5 12 5 14 0 19 -2 13 -5z m-80 -10 c-7 -2 -19 -2 -25 0 -7 3 -2 5 12 5 14
0 19 -2 13 -5z m-5410 -35 c2 -18 4 -34 3 -35 0 -1 -15 -5 -31 -8 -24 -6 -28
-5 -18 5 7 7 9 25 6 41 -5 24 -2 29 15 29 15 0 21 -8 25 -32z m5344 26 c-3 -3
-12 -4 -19 -1 -8 3 -5 6 6 6 11 1 17 -2 13 -5z m633 -9 c-69 -7 -145 -16 -170
-20 -26 -5 -42 -4 -37 1 12 13 159 31 252 31 76 0 73 0 -45 -12z m-5500 -5 c0
-5 -5 -10 -11 -10 -5 0 -7 5 -4 10 3 6 8 10 11 10 2 0 4 -4 4 -10z m-5085 -21
c28 -5 19 -6 -30 -2 -38 3 -77 9 -85 14 -15 9 40 4 115 -12z m505 1 c161 -28
259 -48 235 -49 -11 -1 -73 8 -137 18 -64 11 -144 23 -178 27 -33 4 -60 11
-60 15 0 12 9 12 140 -11z m4574 -15 c3 -8 1 -15 -4 -15 -6 0 -10 7 -10 15 0
8 2 15 4 15 2 0 6 -7 10 -15z m-4991 -2 c-7 -2 -19 -2 -25 0 -7 3 -2 5 12 5
14 0 19 -2 13 -5z m4999 -128 c-3 -46 -8 -65 -17 -65 -7 0 -16 -6 -18 -12 -5
-13 -9 4 -11 52 -1 14 6 28 14 32 12 5 12 7 -2 7 -10 1 -18 6 -18 12 0 6 7 9
15 5 11 -4 15 2 16 19 1 23 3 34 9 53 6 22 15 -47 12 -103z m605 99 c-3 -3
-12 -4 -19 -1 -8 3 -5 6 6 6 11 1 17 -2 13 -5z m4452 2 c-7 -7 -291 -37 -297
-31 -3 3 3 5 14 6 10 0 60 7 109 14 92 13 182 18 174 11z m-4626 -91 c0 -6 -7
-11 -16 -13 -12 -3 -15 1 -11 13 7 17 25 17 27 0z m3540 -22 c-7 -2 -19 -2
-25 0 -7 3 -2 5 12 5 14 0 19 -2 13 -5z m-9240 -50 c-7 -2 -21 -2 -30 0 -10 3
-4 5 12 5 17 0 24 -2 18 -5z m916 -19 c10 -9 -9 -12 -110 -16 -81 -3 -105 0
-102 9 7 18 195 24 212 7z m4338 -40 c-9 -9 -28 6 -21 18 4 6 10 6 17 -1 6 -6
8 -13 4 -17z m-621 -21 c-11 -11 -19 6 -11 24 8 17 8 17 12 0 3 -10 2 -21 -1
-24z m1304 21 c0 -8 -5 -12 -10 -9 -6 4 -8 11 -5 16 9 14 15 11 15 -7z m4990
0 c0 -8 -5 -12 -10 -9 -6 4 -8 11 -5 16 9 14 15 11 15 -7z m-5686 -30 c4 -10
1 -14 -6 -12 -15 5 -23 28 -10 28 5 0 13 -7 16 -16z m5644 -1 c-10 -2 -26 -2
-35 0 -10 3 -2 5 17 5 19 0 27 -2 18 -5z m-1968 -37 c0 -3 -7 -3 -15 0 -8 4
-15 13 -15 21 0 12 2 12 15 -1 8 -8 15 -17 15 -20z m1710 24 c0 -5 -7 -7 -15
-4 -8 4 -15 8 -15 10 0 2 7 4 15 4 8 0 15 -4 15 -10z m-340 -19 c0 -14 -39
-21 -117 -21 -103 0 -91 19 15 23 48 1 90 4 95 5 4 1 7 -2 7 -7z m-10120 -81
c63 -5 125 -10 138 -10 12 0 22 -4 22 -9 0 -6 -15 -8 -32 -6 -18 2 -90 10
-160 16 -71 6 -128 16 -128 21 0 4 10 6 23 3 12 -3 74 -10 137 -15z m5147 14
c-3 -3 -12 -4 -19 -1 -8 3 -5 6 6 6 11 1 17 -2 13 -5z m600 -50 c-3 -3 -12 -4
-19 -1 -8 3 -5 6 6 6 11 1 17 -2 13 -5z m-607 -14 c0 -5 -2 -10 -4 -10 -3 0
-8 5 -11 10 -3 6 -1 10 4 10 6 0 11 -4 11 -10z m-4690 -10 c0 -5 -2 -10 -4
-10 -3 0 -8 5 -11 10 -3 6 -1 10 4 10 6 0 11 -4 11 -10z m47 4 c-3 -3 -12 -4
-19 -1 -8 3 -5 6 6 6 11 1 17 -2 13 -5z m43 -4 c0 -5 -4 -10 -9 -10 -6 0 -13
5 -16 10 -3 6 1 10 9 10 9 0 16 -4 16 -10z m-325 -21 c105 1 210 -4 235 -9 25
-5 92 -14 150 -20 58 -5 121 -12 140 -14 19 -3 61 -8 93 -11 31 -4 57 -11 57
-17 0 -10 -87 -7 -355 12 -122 10 -794 50 -822 50 -7 0 -13 4 -13 9 0 15 53
17 195 8 72 -4 216 -8 320 -8z m548 6 c20 -3 37 -11 37 -17 0 -6 -10 -7 -27
-3 -16 4 -45 11 -66 15 -49 10 -63 24 -17 16 19 -3 52 -8 73 -11z m4442 -5 c3
-5 -1 -10 -9 -10 -9 0 -16 5 -16 10 0 6 4 10 9 10 6 0 13 -4 16 -10z m95 -9
c0 -5 -9 -11 -19 -14 -14 -3 -18 -1 -14 9 6 15 33 19 33 5z m-80 -21 c0 -5
-10 -10 -22 -10 -19 0 -20 2 -8 10 19 13 30 13 30 0z m554 1 c3 -5 -5 -11 -19
-13 -28 -6 -35 8 -7 15 9 3 18 5 19 6 1 0 4 -3 7 -8z m-564 -31 c0 -5 -4 -10
-10 -10 -5 0 -10 5 -10 10 0 6 5 10 10 10 6 0 10 -4 10 -10z m4820 0 c0 -7 85
-8 263 -3 413 12 1160 10 1164 -3 3 -8 -24 -14 -79 -18 -115 -9 -1446 -29
-1464 -22 -24 9 -4 36 27 36 16 0 29 5 29 10 0 6 14 10 30 10 17 0 30 -5 30
-10z m-10754 -26 c17 -14 17 -15 1 -10 -10 3 -23 6 -28 6 -5 0 -9 5 -9 10 0
14 13 12 36 -6z m1754 6 c0 -10 -39 -17 -62 -12 -33 7 -18 19 22 19 22 0 40
-3 40 -7z m108 -1 c44 0 52 -2 35 -9 -27 -11 -123 -1 -123 12 0 6 7 7 16 4 9
-3 41 -6 72 -7z m532 -38 l45 -8 -45 -2 c-156 -5 -290 -5 -290 0 0 3 3 9 7 12
9 10 228 7 283 -2z m7944 -27 c5 -12 -40 -14 -299 -14 -275 0 -337 5 -292 24
6 2 141 5 299 5 238 -1 287 -3 292 -15z m-699 -5 c5 -7 -5 -8 -32 -3 -51 9
-54 14 -10 14 20 0 39 -5 42 -11z m-8985 -80 c0 -21 -93 -24 -110 -4 -11 14
-6 15 49 13 33 -1 61 -5 61 -9z m185 -9 c-7 -12 -105 -9 -105 3 0 4 25 7 56 7
35 0 53 -4 49 -10z m95 0 c0 -5 -13 -10 -30 -10 -16 0 -30 5 -30 10 0 6 14 10
30 10 17 0 30 -4 30 -10z m130 0 c0 -5 -16 -10 -35 -10 -19 0 -35 5 -35 10 0
6 16 10 35 10 19 0 35 -4 35 -10z m100 0 c20 -6 14 -8 -27 -9 -29 -1 -53 3
-53 9 0 12 44 12 80 0z m145 0 c-3 -5 -24 -10 -46 -10 -21 0 -39 5 -39 10 0 6
21 10 46 10 27 0 43 -4 39 -10z m145 0 c10 -7 -7 -10 -57 -10 -42 0 -73 4 -73
10 0 13 110 13 130 0z m8820 -10 c0 -5 -15 -9 -32 -9 l-33 1 30 8 c17 4 31 8
33 9 1 0 2 -3 2 -9z m535 1 c4 -7 -16 -11 -59 -11 -36 0 -66 3 -66 8 0 12 117
14 125 3z m195 -1 c-20 -13 -100 -13 -100 0 0 6 26 10 58 10 40 0 53 -3 42
-10z m291 -2 c-1 -5 -3 -8 -6 -8 -3 0 -45 0 -95 0 -57 0 -90 4 -90 11 0 6 33
9 96 7 53 -2 95 -6 95 -10z m289 2 c0 -7 -31 -10 -80 -9 -44 2 -80 6 -80 11 0
4 36 8 80 8 48 0 80 -4 80 -10z m-9562 -7 c-16 -2 -40 -2 -55 0 -16 2 -3 4 27
4 30 0 43 -2 28 -4z m9912 -13 c0 -6 -36 -9 -95 -8 -52 1 -95 5 -95 10 0 4 43
8 95 8 57 0 95 -4 95 -10z m-1166 -31 c19 -1 18 -2 -4 -8 -31 -9 -80 -2 -80
11 0 6 13 8 31 4 17 -3 41 -6 53 -7z m80 -8 c3 -5 -5 -8 -19 -7 -14 0 -25 4
-25 9 0 10 38 9 44 -2z m91 -1 c-8 -13 -45 -13 -65 0 -11 7 -3 10 28 10 26 0
41 -4 37 -10z m-685 -34 c0 -23 -55 -32 -173 -26 -121 6 -143 22 -40 30 168
13 213 12 213 -4z m-4960 -6 c0 -5 -11 -10 -25 -10 -14 0 -25 5 -25 10 0 6 11
10 25 10 14 0 25 -4 25 -10z m-187 -7 c-7 -2 -19 -2 -25 0 -7 3 -2 5 12 5 14
0 19 -2 13 -5z m5167 -33 c0 -11 -7 -20 -15 -20 -18 0 -19 6 -2 25 16 19 17
18 17 -5z m-4074 -317 c-4 -31 -8 -59 -11 -61 -2 -2 -14 5 -26 17 -12 11 -20
23 -17 27 4 3 2 18 -2 34 -10 35 -5 40 33 40 l30 0 -7 -57z m239 49 c-12 -8
-17 -47 -16 -111 0 -25 -4 -50 -10 -57 -5 -6 -9 -16 -8 -20 2 -15 -13 -54 -21
-54 -4 0 -11 15 -14 34 -4 19 -11 36 -15 38 -5 2 -12 37 -15 78 -5 53 -11 79
-23 88 -14 10 -4 12 58 12 41 0 69 -4 64 -8z m-5341 -155 c7 -31 -3 -67 -20
-67 -23 0 -38 44 -25 69 15 28 37 27 45 -2z m-516 -19 c15 -15 16 -161 2 -189
-13 -23 -36 -25 -44 -3 -6 16 1 166 10 192 4 15 17 15 32 0z m142 -27 c0 -40
-13 -111 -21 -111 -4 0 -8 8 -8 18 0 9 -3 38 -7 65 -6 43 -5 47 15 47 14 0 21
-6 21 -19z m5860 -281 c0 -5 5 -10 11 -10 13 0 92 -68 98 -84 2 -6 12 -19 22
-29 40 -44 53 -89 53 -188 0 -61 -4 -102 -12 -111 -6 -8 -9 -17 -6 -20 3 -4
-2 -20 -10 -37 -9 -16 -16 -38 -16 -48 0 -18 -56 -138 -75 -159 -5 -7 -21 -26
-35 -44 -39 -49 -89 -70 -162 -69 -35 1 -74 4 -88 8 -15 4 -60 -1 -110 -12
-102 -24 -144 -26 -218 -15 -60 10 -99 32 -151 87 -79 85 -101 149 -107 311
-4 145 25 268 85 351 46 63 58 69 116 58 75 -14 82 -16 197 -45 l107 -28 40
30 c73 52 95 60 180 63 51 1 81 -2 81 -9z m-5214 -518 c6 -4 11 -24 12 -45 1
-31 -3 -40 -22 -48 -35 -16 -68 4 -57 34 4 12 6 28 4 35 -3 6 2 12 11 12 9 0
16 5 16 10 0 12 20 13 36 2z m-228 -22 c24 -23 37 -78 27 -117 -7 -31 -48 -83
-79 -100 -32 -19 -83 -16 -105 6 -41 41 -53 144 -21 182 10 13 19 20 20 15 0
-4 10 -1 23 7 46 30 107 33 135 7z m9840 -73 c4 -21 -25 -34 -40 -19 -8 8 -8
16 2 27 16 19 34 15 38 -8z m-250 2 c29 -10 62 -46 62 -69 0 -18 -45 -11 -63
10 -25 30 -72 26 -94 -7 -22 -34 -21 -97 2 -123 23 -26 70 -26 92 0 18 21 63
28 63 9 0 -6 -13 -24 -29 -40 -55 -54 -157 -34 -187 38 -29 68 -5 150 50 177
37 18 62 20 104 5z m152 -124 c0 -117 -1 -125 -19 -125 -18 0 -20 9 -23 125
-3 124 -3 125 20 125 22 0 22 -2 22 -125z m550 0 c0 -118 -1 -125 -20 -125
-12 0 -20 7 -20 17 0 15 -1 15 -18 0 -29 -26 -77 -22 -101 9 -31 39 -29 107 4
139 27 28 66 32 89 10 22 -23 26 -19 26 30 0 38 3 45 20 45 19 0 20 -7 20
-125z m-450 -30 c0 -95 0 -95 -25 -95 -25 0 -25 0 -25 95 0 95 0 95 25 95 25
0 25 0 25 -95z m100 78 c0 -15 1 -15 18 0 38 35 94 16 112 -37 30 -91 -50
-175 -112 -119 -17 15 -18 14 -18 -35 0 -49 -2 -52 -25 -52 l-25 0 0 130 0
130 25 0 c17 0 25 -6 25 -17z m450 0 c0 -15 1 -15 18 0 26 23 52 22 52 -3 0
-12 -7 -20 -17 -20 -35 0 -53 -30 -53 -92 0 -51 -2 -58 -20 -58 -11 0 -20 3
-20 8 0 4 -3 39 -7 79 -3 40 -3 79 0 87 8 22 47 21 47 -1z m245 -8 c19 -18 25
-35 25 -70 0 -63 -31 -95 -93 -95 -61 0 -92 34 -91 98 1 36 6 50 28 69 38 32
98 32 131 -2z m115 8 c0 -15 1 -15 18 0 60 55 140 -32 112 -119 -18 -53 -74
-72 -112 -37 -17 15 -18 14 -18 -35 0 -49 -2 -52 -25 -52 l-25 0 0 130 0 130
25 0 c17 0 25 -6 25 -17z m-4080 -34 c0 -24 -23 -21 -28 4 -2 10 3 17 12 17
10 0 16 -9 16 -21z m2788 -243 c-3 -32 -2 -33 19 -23 45 20 83 -25 64 -76 -10
-25 -15 -28 -56 -25 l-45 3 0 78 c0 50 4 77 11 77 7 0 10 -13 7 -34z m694 3
c-4 -30 -4 -31 27 -24 41 9 61 -8 61 -50 0 -42 -16 -54 -68 -52 l-42 1 0 78
c0 58 3 78 13 78 9 0 12 -10 9 -31z m148 22 c0 -6 -4 -13 -10 -16 -5 -3 -10 1
-10 9 0 9 5 16 10 16 6 0 10 -4 10 -9z m60 -71 c0 -47 -4 -80 -10 -80 -6 0
-10 33 -10 80 0 47 4 80 10 80 6 0 10 -33 10 -80z m60 70 c0 -5 -4 -10 -10
-10 -5 0 -10 5 -10 10 0 6 5 10 10 10 6 0 10 -4 10 -10z m465 0 c3 -5 -1 -10
-9 -10 -9 0 -16 5 -16 10 0 6 4 10 9 10 6 0 13 -4 16 -10z m-940 -40 c8 0 15
-4 15 -10 0 -5 -9 -10 -19 -10 -16 0 -19 -6 -15 -32 2 -18 11 -39 21 -45 15
-12 15 -13 -4 -13 -26 0 -32 9 -35 47 -1 15 -6 34 -12 42 -8 10 -8 15 2 18 6
3 12 12 12 21 1 15 2 15 11 0 5 -10 17 -18 24 -18z m564 0 c6 0 11 -4 11 -10
0 -5 -7 -10 -15 -10 -22 0 -20 -59 3 -77 16 -12 15 -13 -8 -11 -21 3 -25 9
-28 43 -2 22 -9 44 -15 48 -9 6 -9 10 1 14 6 2 12 12 12 21 1 15 2 15 14 0 7
-10 18 -18 25 -18z m-908 -40 c7 -22 15 -40 19 -40 4 0 12 18 19 40 6 22 17
40 22 40 6 0 9 -6 6 -12 -44 -112 -61 -148 -68 -148 -5 0 -4 11 1 25 7 18 4
36 -10 71 -22 51 -24 64 -10 64 5 0 15 -18 21 -40z m254 30 c4 -6 -5 -10 -19
-10 -33 0 -34 -18 -2 -30 30 -11 38 -23 30 -44 -6 -16 -74 -24 -74 -8 0 4 10
8 23 7 33 0 35 18 4 33 -25 12 -36 40 -20 55 10 11 51 8 58 -3z m200 0 c5 -8
11 -7 21 1 12 10 14 3 14 -43 l0 -54 -47 1 c-42 0 -48 3 -57 27 -7 20 -5 33 8
52 17 26 50 35 61 16z m245 -45 c0 -30 -4 -55 -10 -55 -5 0 -10 25 -10 55 0
30 5 55 10 55 6 0 10 -25 10 -55z m120 0 c0 -30 -4 -55 -10 -55 -5 0 -10 25
-10 55 0 30 5 55 10 55 6 0 10 -25 10 -55z m154 18 c17 -48 24 -49 37 -4 7 23
18 41 25 41 8 0 2 -26 -19 -80 -18 -44 -38 -80 -44 -80 -10 0 -10 6 -1 24 8
20 7 34 -7 68 -9 24 -20 49 -23 57 -3 8 0 12 8 9 8 -2 18 -18 24 -35z m211 27
c5 -8 11 -7 21 1 12 10 14 3 14 -43 l0 -54 -47 1 c-42 0 -48 3 -57 27 -7 20
-5 33 8 52 17 26 50 35 61 16z m95 -45 c0 -30 -4 -55 -10 -55 -5 0 -10 25 -10
55 0 30 5 55 10 55 6 0 10 -25 10 -55z m-200 -45 c0 -5 -4 -10 -10 -10 -5 0
-10 5 -10 10 0 6 5 10 10 10 6 0 10 -4 10 -10z"/>
<path d="M6220 4610 c0 -5 5 -10 10 -10 6 0 10 5 10 10 0 6 -4 10 -10 10 -5 0
-10 -4 -10 -10z"/>
<path d="M6186 4581 c-4 -5 -2 -12 3 -15 5 -4 12 -2 15 3 4 5 2 12 -3 15 -5 4
-12 2 -15 -3z"/>
<path d="M6067 4396 c-4 -10 -5 -21 -2 -24 9 -9 17 6 13 25 -3 17 -4 17 -11
-1z"/>
<path d="M6065 4350 c3 -5 8 -10 11 -10 2 0 4 5 4 10 0 6 -5 10 -11 10 -5 0
-7 -4 -4 -10z"/>
<path d="M6946 4271 c-4 -7 -5 -15 -2 -18 9 -9 19 4 14 18 -4 11 -6 11 -12 0z"/>
<path d="M6745 3730 c-3 -5 3 -10 15 -10 12 0 18 5 15 10 -3 6 -10 10 -15 10
-5 0 -12 -4 -15 -10z"/>
<path d="M6400 3640 c0 -5 7 -10 15 -10 8 0 15 5 15 10 0 6 -7 10 -15 10 -8 0
-15 -4 -15 -10z"/>
<path d="M6415 3610 c-3 -5 1 -10 9 -10 9 0 16 5 16 10 0 6 -4 10 -9 10 -6 0
-13 -4 -16 -10z"/>
<path d="M6488 3603 c6 -2 18 -2 25 0 6 3 1 5 -13 5 -14 0 -19 -2 -12 -5z"/>
<path d="M6367 3326 c-4 -10 -5 -21 -2 -24 9 -9 17 6 13 25 -3 17 -4 17 -11
-1z"/>
<path d="M6358 3227 c-9 -9 -21 -17 -27 -17 -6 0 -11 -5 -11 -10 0 -7 8 -7 22
1 16 9 23 9 26 0 2 -6 11 -11 20 -11 11 0 13 3 6 8 -7 4 -13 16 -15 26 -4 18
-5 19 -21 3z"/>
<path d="M6332 3160 c-10 -16 -10 -20 2 -20 22 0 46 11 46 22 0 5 -5 6 -11 2
-6 -3 -14 -2 -18 4 -4 7 -11 4 -19 -8z"/>
<path d="M6326 3115 c-3 -8 -1 -15 4 -15 13 0 22 18 11 24 -5 3 -11 -1 -15 -9z"/>
<path d="M6328 3063 c7 -3 16 -2 19 1 4 3 -2 6 -13 5 -11 0 -14 -3 -6 -6z"/>
<path d="M6330 3040 c0 -5 5 -10 10 -10 6 0 10 5 10 10 0 6 -4 10 -10 10 -5 0
-10 -4 -10 -10z"/>
<path d="M6338 2973 c7 -3 16 -2 19 1 4 3 -2 6 -13 5 -11 0 -14 -3 -6 -6z"/>
<path d="M6566 2955 c-3 -8 -1 -15 4 -15 6 0 10 7 10 15 0 8 -2 15 -4 15 -2 0
-6 -7 -10 -15z"/>
<path d="M6130 2950 c0 -5 5 -10 11 -10 5 0 7 5 4 10 -3 6 -8 10 -11 10 -2 0
-4 -4 -4 -10z"/>
<path d="M6105 2930 c3 -5 8 -10 11 -10 2 0 4 5 4 10 0 6 -5 10 -11 10 -5 0
-7 -4 -4 -10z"/>
<path d="M6533 2885 c0 -9 4 -11 11 -6 6 4 18 11 26 14 9 3 5 6 -11 6 -16 1
-26 -4 -26 -14z"/>
<path d="M6330 2879 c0 -5 5 -7 10 -4 6 3 10 8 10 11 0 2 -4 4 -10 4 -5 0 -10
-5 -10 -11z"/>
<path d="M6110 2859 c0 -24 23 -21 28 4 2 10 -3 17 -12 17 -10 0 -16 -9 -16
-21z"/>
<path d="M6530 2850 c0 -5 7 -7 15 -4 8 4 15 8 15 10 0 2 -7 4 -15 4 -8 0 -15
-4 -15 -10z"/>
<path d="M6070 2799 c0 -11 4 -18 10 -14 5 3 7 12 3 20 -7 21 -13 19 -13 -6z"/>
<path d="M6113 2800 c1 -11 7 -20 13 -20 7 0 10 8 7 20 -3 11 -9 20 -14 20 -4
0 -7 -9 -6 -20z"/>
<path d="M6265 2731 c-3 -5 -1 -12 5 -16 5 -3 10 1 10 9 0 18 -6 21 -15 7z"/>
<path d="M6330 2730 c-13 -8 -12 -10 3 -10 9 0 17 5 17 10 0 12 -1 12 -20 0z"/>
<path d="M6149 2677 c5 -5 19 -7 32 -5 20 3 19 5 -9 9 -20 3 -29 2 -23 -4z"/>
<path d="M6328 2633 c7 -3 16 -2 19 1 4 3 -2 6 -13 5 -11 0 -14 -3 -6 -6z"/>
<path d="M6328 2613 c7 -3 16 -2 19 1 4 3 -2 6 -13 5 -11 0 -14 -3 -6 -6z"/>
<path d="M6342 2560 c0 -14 2 -19 5 -12 2 6 2 18 0 25 -3 6 -5 1 -5 -13z"/>
<path d="M6337 2503 c-12 -21 -15 -62 -8 -93 l8 -35 7 50 c4 28 10 58 13 68 4
16 -12 25 -20 10z"/>
<path d="M6433 2493 c9 -2 25 -2 35 0 9 3 1 5 -18 5 -19 0 -27 -2 -17 -5z"/>
<path d="M6297 2453 c-4 -3 -7 -11 -7 -17 0 -6 5 -5 12 2 6 6 9 14 7 17 -3 3
-9 2 -12 -2z"/>
<path d="M6428 2453 c7 -3 16 -2 19 1 4 3 -2 6 -13 5 -11 0 -14 -3 -6 -6z"/>
<path d="M6570 3479 c0 -11 37 -12 43 -1 3 4 -6 8 -19 8 -13 1 -24 -2 -24 -7z"/>
<path d="M6566 3451 c-3 -5 10 -9 29 -8 19 1 35 5 35 9 0 11 -57 10 -64 -1z"/>
<path d="M6578 3423 c6 -2 18 -2 25 0 6 3 1 5 -13 5 -14 0 -19 -2 -12 -5z"/>
<path d="M11531 701 c-24 -45 -1 -106 37 -99 28 5 48 53 36 85 -12 36 -57 45
-73 14z"/>
<path d="M11312 708 c-25 -25 -6 -108 24 -108 18 0 43 23 48 44 13 54 -37 99
-72 64z"/>
<path d="M11900 705 c-18 -22 -17 -72 2 -92 22 -21 56 -8 64 24 15 58 -34 107
-66 68z"/>
<path d="M12122 708 c-30 -30 -2 -113 36 -106 28 5 48 53 36 85 -10 31 -50 43
-72 21z"/>
<path d="M10820 411 c-7 -14 -5 -24 8 -41 19 -24 47 -19 55 9 11 44 -42 71
-63 32z"/>
<path d="M11520 410 c-9 -18 -8 -25 5 -41 25 -26 57 -8 53 29 -4 35 -42 43
-58 12z"/>
<path d="M11371 411 c-13 -23 -6 -47 16 -55 23 -9 44 14 41 43 -4 33 -42 41
-57 12z"/>
<path d="M12101 416 c-15 -18 -6 -52 16 -60 23 -9 44 13 41 43 -4 30 -38 40
-57 17z"/>
</g>
</svg>
